<?xml version="1.0" encoding="UTF-8"?><svg xmlns="http://www.w3.org/2000/svg" viewBox="0 0 259.32 203.24"><defs><style>.d{fill:#d2222d;}.e{fill:#fff;}.f{fill:#ffd500;}.g{fill:#ff033e;}</style></defs><g id="a"/><g id="b"><g id="c"><path class="g" d="M219.83,139.38c-.36,.87-.73,1.73-1.12,2.59,1.18-.48,2.35-.95,3.5-1.41,.34-.83,.67-1.66,.99-2.49-1.11,.42-2.23,.85-3.37,1.31Zm-4.84,10.03c-16.88,30.53-49.42,51.24-86.7,51.24-34.71,0-65.3-17.95-82.99-45.06-.87,.28-1.78,.45-2.7,.5-.05,0-.1,0-.14,0,3.96,6.22,8.64,12.05,13.97,17.38,19.2,19.19,44.71,29.76,71.86,29.76s52.66-10.57,71.86-29.76c7.64-7.64,13.92-16.29,18.7-25.64-1.28,.52-2.56,1.05-3.85,1.57Zm-14.85-119.64C180.95,10.57,155.43,0,128.28,0S75.62,10.57,56.42,29.76c-4.7,4.7-8.87,9.77-12.5,15.15,.66,.07,1.32,.16,2.01,.27,.31,.05,.61,.1,.92,.16C64.73,19.53,94.57,2.6,128.28,2.6c45.67,0,84.21,31.07,95.6,73.18,.5,.02,1.35,.05,2.73,.08-4.49-17.28-13.52-33.13-26.48-46.09ZM38.51,143.4c.15,.69,.38,1.3,.74,1.55-.25-.52-.5-1.03-.74-1.55Z"/><g><path class="g" d="M59.97,161.93l2.9-2.46-3.6,.59-.43-.51,1.14-3.38-2.85,2.4-.89-1.05,4.85-4.08,.78,.93-1.49,4.35,4.52-.75,.77,.92-4.84,4.09-.89-1.05Z"/><path class="g" d="M66.07,166.32l-2.09-2.07-1.35,.57-1.07-1.06,6.47-2.5,1.03,1.02-2.46,6.49-1.09-1.08,.56-1.36Zm.46-1.12l1-2.43-2.42,1.01,1.43,1.42Z"/><path class="g" d="M71.48,164.57l1.11,.96-3.36,3.89,2.41,2.07-.78,.91-3.52-3.03,4.14-4.8Z"/><path class="g" d="M76.33,175.07l-.71,.94-3.92-2.95,3.81-5.06,3.82,2.88-.71,.94-2.66-2-.83,1.1,2.35,1.77-.69,.91-2.35-1.77-.88,1.17,2.75,2.07Z"/><path class="g" d="M80.74,173.25l-1.7-1.11,.65-1,4.62,3.02-.65,1-1.7-1.11-2.81,4.3-1.23-.8,2.81-4.3Z"/><path class="g" d="M85.8,180.7l-2.57-1.44-1.15,.91-1.31-.73,5.56-4.15,1.26,.71-.62,6.91-1.34-.75,.17-1.46Zm.14-1.2l.31-2.61-2.06,1.63,1.75,.98Z"/><path class="g" d="M88.46,183.49c-.37-.32-.63-.64-.8-.96l.92-.79c.16,.29,.39,.58,.67,.84s.6,.48,.94,.64c.38,.18,.68,.25,.92,.22,.23-.03,.39-.13,.48-.32,.06-.14,.06-.28,0-.42-.06-.14-.17-.28-.31-.41-.14-.13-.34-.3-.59-.5-.39-.31-.7-.58-.93-.81-.23-.23-.39-.51-.48-.83-.09-.32-.05-.68,.13-1.06,.16-.33,.39-.59,.69-.78s.68-.27,1.12-.26c.44,.01,.92,.14,1.44,.38,.37,.17,.7,.38,1.01,.63s.56,.52,.74,.81l-.88,.82c-.39-.55-.85-.95-1.38-1.19-.37-.17-.67-.24-.91-.2-.23,.04-.4,.15-.49,.35-.09,.2-.06,.39,.1,.58,.16,.19,.43,.43,.81,.72,.39,.31,.7,.58,.93,.81s.39,.51,.49,.83c.09,.32,.05,.67-.13,1.05-.15,.33-.38,.58-.69,.77-.31,.19-.68,.27-1.12,.26-.44-.01-.92-.14-1.45-.39-.45-.21-.86-.48-1.23-.8Z"/><path class="g" d="M96.45,185.17c-.13-.28-.14-.58-.02-.88,.11-.31,.31-.52,.59-.65s.57-.14,.86-.03,.51,.3,.64,.58,.14,.57,.03,.88-.31,.52-.59,.65-.57,.14-.87,.03c-.29-.11-.51-.31-.64-.59Z"/><path class="g" d="M107.63,187.62c.13,.31,.14,.66,.04,1.04-.15,.54-.47,.89-.96,1.06-.5,.17-1.14,.15-1.94-.06l-3.16-.86,1.67-6.11,2.99,.82c.75,.2,1.28,.5,1.6,.9,.32,.39,.41,.84,.28,1.33-.08,.3-.22,.54-.43,.74-.21,.19-.46,.32-.75,.39,.32,.21,.54,.46,.67,.78Zm-1.79,.99c.22-.07,.37-.23,.44-.49,.14-.51-.17-.86-.92-1.07l-1.65-.45-.41,1.51,1.65,.45c.37,.1,.67,.12,.89,.05Zm-1.46-4.48l-.39,1.44,1.41,.38c.35,.09,.63,.11,.84,.03s.35-.23,.42-.47c.07-.24,.02-.44-.12-.61-.15-.17-.4-.3-.75-.4l-1.41-.38Z"/><path class="g" d="M109.97,190.57c-.47-.38-.8-.83-1.01-1.38-.2-.54-.25-1.12-.14-1.73,.11-.61,.36-1.13,.74-1.57,.38-.44,.86-.75,1.43-.93,.57-.18,1.18-.22,1.83-.1,.65,.12,1.2,.37,1.67,.74s.8,.83,1.01,1.38c.21,.54,.25,1.12,.14,1.73-.11,.61-.36,1.13-.75,1.57-.39,.43-.86,.74-1.43,.93-.57,.18-1.17,.22-1.82,.1s-1.2-.37-1.67-.74Zm2.94-.56c.33-.11,.6-.31,.83-.58,.23-.27,.37-.6,.44-.99,.07-.39,.05-.75-.06-1.08-.11-.33-.3-.61-.57-.84-.27-.22-.58-.37-.95-.44-.37-.07-.72-.04-1.04,.07-.33,.11-.6,.31-.83,.58-.23,.27-.37,.6-.44,.99-.07,.39-.05,.75,.06,1.08s.3,.61,.57,.84c.27,.22,.58,.37,.95,.44,.37,.07,.72,.04,1.04-.07Z"/><path class="g" d="M117.14,185.68l1.46,.16-.55,5.11,3.16,.34-.13,1.19-4.62-.5,.68-6.3Z"/><path class="g" d="M122.77,192.47c-.46-.16-.83-.35-1.1-.58l.54-1.08c.26,.21,.58,.38,.95,.52s.74,.21,1.11,.23c.42,.02,.73-.03,.93-.14,.2-.12,.31-.28,.32-.48,0-.15-.05-.28-.16-.38s-.26-.19-.44-.26-.43-.15-.74-.23c-.48-.14-.87-.27-1.17-.4-.3-.13-.56-.32-.77-.58s-.3-.61-.29-1.03c.02-.37,.13-.7,.34-.99s.52-.51,.93-.67c.41-.16,.9-.22,1.48-.2,.4,.02,.8,.08,1.18,.2,.38,.11,.71,.27,.99,.46l-.5,1.09c-.57-.36-1.15-.55-1.73-.57-.41-.02-.72,.04-.92,.16-.2,.12-.31,.29-.32,.51,0,.22,.1,.38,.32,.5,.22,.12,.56,.23,1.02,.36,.48,.14,.87,.27,1.17,.4,.3,.13,.56,.32,.77,.58,.21,.26,.3,.6,.29,1.02-.02,.36-.13,.69-.35,.98-.21,.29-.53,.51-.94,.67-.41,.16-.91,.22-1.48,.2-.5-.02-.98-.11-1.44-.27Z"/><path class="g" d="M129.47,192.41c-.54-.27-.96-.64-1.28-1.13s-.48-1.04-.5-1.66c-.02-.62,.11-1.18,.39-1.69,.28-.51,.68-.91,1.2-1.21,.52-.3,1.11-.46,1.76-.48,.66-.02,1.25,.1,1.79,.37,.53,.27,.96,.64,1.28,1.13,.32,.49,.49,1.04,.51,1.66,.02,.62-.11,1.18-.4,1.69-.29,.51-.69,.91-1.2,1.21-.52,.3-1.1,.46-1.76,.48-.66,.02-1.25-.1-1.79-.37Zm2.76-1.17c.3-.18,.52-.43,.69-.74,.16-.31,.24-.67,.22-1.06-.01-.39-.11-.74-.29-1.04-.18-.3-.43-.53-.73-.7-.31-.16-.65-.24-1.02-.22-.37,.01-.71,.11-1,.29-.3,.18-.52,.43-.69,.74-.16,.31-.24,.67-.22,1.06,.01,.39,.11,.74,.29,1.04,.18,.3,.43,.53,.73,.7s.65,.24,1.02,.22c.37-.01,.71-.11,1-.29Z"/><path class="g" d="M136.73,192.25c-.48-.08-.87-.22-1.18-.4l.38-1.15c.29,.17,.63,.29,1.01,.37,.38,.08,.76,.1,1.14,.06,.41-.04,.71-.14,.9-.28s.27-.32,.24-.52c-.02-.15-.09-.27-.22-.35-.13-.09-.29-.15-.48-.19s-.44-.08-.76-.12c-.49-.06-.9-.13-1.22-.21-.32-.08-.6-.24-.85-.46-.25-.23-.39-.55-.44-.97-.04-.37,.02-.71,.19-1.03s.44-.59,.82-.8c.38-.22,.86-.36,1.43-.42,.4-.04,.8-.04,1.19,.02,.39,.05,.75,.16,1.05,.3l-.33,1.16c-.62-.27-1.22-.37-1.8-.31-.41,.04-.7,.14-.88,.3-.18,.15-.26,.34-.24,.55,.02,.22,.15,.36,.39,.45,.24,.08,.59,.15,1.06,.2,.49,.06,.9,.13,1.22,.21s.6,.23,.85,.45c.25,.22,.39,.54,.44,.96,.04,.36-.03,.7-.19,1.02-.17,.32-.44,.59-.83,.8-.38,.22-.86,.36-1.44,.42-.5,.05-.99,.04-1.47-.05Z"/><path class="g" d="M144.45,189.55c-.26-.17-.42-.42-.48-.74-.06-.32,0-.61,.17-.86s.42-.41,.73-.47,.59,0,.85,.17,.42,.42,.48,.74c.06,.32,0,.61-.17,.87s-.42,.42-.72,.48c-.31,.06-.59,0-.85-.17Z"/><path class="g" d="M156.32,188.35l-1.09-3.64-.9,3.53-.63,.19-2.65-2.4,1.06,3.57-1.32,.39-1.8-6.07,1.16-.34,3.39,3.1,1.12-4.44,1.15-.34,1.82,6.07-1.32,.39Z"/><path class="g" d="M160.5,186.54c-.6-.07-1.12-.27-1.59-.62-.46-.35-.81-.81-1.04-1.39-.23-.58-.3-1.15-.21-1.72s.33-1.09,.71-1.55c.38-.46,.88-.81,1.49-1.06,.61-.25,1.21-.33,1.8-.27,.59,.07,1.12,.28,1.59,.62,.47,.35,.81,.81,1.05,1.39,.23,.58,.3,1.15,.21,1.73s-.33,1.09-.71,1.55c-.38,.46-.88,.81-1.49,1.06-.61,.25-1.21,.34-1.81,.27Zm2.19-2.05c.22-.27,.35-.58,.39-.93,.04-.35,0-.71-.15-1.07-.15-.36-.36-.66-.63-.88-.27-.22-.58-.36-.93-.4-.34-.05-.69,0-1.04,.14-.35,.14-.63,.35-.84,.62-.22,.27-.35,.58-.39,.93-.04,.35,0,.71,.15,1.07,.15,.36,.36,.66,.63,.88,.27,.22,.58,.36,.93,.4,.34,.05,.69,0,1.04-.14s.63-.35,.84-.62Z"/><path class="g" d="M170.38,182.44l-1.88-1.03-.06,.03-1.14,.57,.79,1.58-1.31,.66-2.84-5.66,2.45-1.23c.5-.25,.98-.39,1.43-.4s.86,.08,1.21,.28c.35,.21,.64,.52,.85,.94,.21,.42,.29,.83,.24,1.24s-.22,.78-.51,1.13l2.18,1.18-1.41,.71Zm-2.51-4.17c-.29-.07-.63,0-1.03,.2l-1.07,.54,.99,1.97,1.07-.54c.39-.2,.65-.43,.77-.71s.1-.57-.06-.88c-.16-.32-.38-.51-.67-.58Z"/><path class="g" d="M176.42,178.99l-1.96-.88-.06,.04-1.09,.66,.91,1.51-1.26,.76-3.27-5.43,2.35-1.41c.48-.29,.95-.46,1.4-.51s.86,.01,1.23,.19c.37,.18,.67,.47,.92,.88s.35,.81,.34,1.22c-.02,.41-.16,.8-.42,1.17l2.27,1.01-1.35,.81Zm-2.82-3.97c-.29-.04-.63,.05-1.01,.27l-1.02,.62,1.14,1.89,1.02-.62c.38-.23,.61-.48,.71-.77,.1-.28,.06-.58-.12-.88-.18-.3-.42-.48-.72-.52Z"/><path class="g" d="M181.53,173.88l-2.39,1.71,.33,1.43-1.22,.87-1.38-6.8,1.18-.84,5.99,3.51-1.25,.89-1.25-.78Zm-1.02-.64l-2.23-1.39,.59,2.56,1.64-1.17Z"/><path class="g" d="M180.69,168.27l1.13-.93,3.27,3.96,2.45-2.02,.76,.92-3.58,2.96-4.03-4.88Z"/><path class="g" d="M191.89,165.24l.81,.86-3.57,3.37-4.35-4.61,3.48-3.29,.81,.86-2.42,2.29,.94,1,2.14-2.02,.78,.83-2.14,2.02,1.01,1.07,2.51-2.37Z"/><path class="g" d="M194.06,164.53c-.42,.25-.8,.41-1.15,.47l-.47-1.12c.33-.06,.67-.19,1.01-.38s.64-.43,.9-.7c.28-.31,.45-.57,.49-.8,.04-.23,0-.42-.16-.55-.11-.1-.24-.14-.4-.12-.15,.02-.31,.08-.48,.17-.17,.09-.39,.23-.65,.41-.41,.28-.76,.49-1.06,.64-.29,.15-.61,.22-.94,.21-.34-.01-.66-.16-.97-.45-.27-.25-.45-.55-.53-.9-.08-.35-.05-.73,.09-1.14,.14-.41,.41-.83,.81-1.26,.27-.3,.58-.55,.91-.77,.33-.22,.66-.37,.99-.46l.51,1.09c-.64,.2-1.16,.52-1.56,.95-.28,.3-.44,.57-.47,.8-.04,.23,.03,.42,.19,.57,.16,.15,.35,.17,.59,.08,.23-.09,.54-.28,.93-.55,.41-.28,.76-.49,1.06-.64,.29-.15,.61-.22,.94-.21,.33,0,.65,.15,.96,.44,.27,.25,.44,.54,.52,.9s.05,.73-.1,1.15c-.15,.42-.42,.84-.81,1.26-.34,.37-.72,.68-1.14,.93Z"/></g><g><path class="g" d="M74.7,35.82l-2.48-2.88,.63,3.59-.5,.43-3.4-1.11,2.42,2.82-1.04,.9-4.13-4.81,.92-.79,4.36,1.44-.79-4.51,.91-.78,4.14,4.79-1.04,.9Z"/><path class="g" d="M79.44,30.58l-2.39,1.71,.33,1.43-1.22,.87-1.38-6.8,1.18-.84,5.99,3.51-1.25,.89-1.25-.78Zm-1.02-.64l-2.23-1.39,.59,2.56,1.64-1.17Z"/><path class="g" d="M79.14,24.8l1.25-.76,2.68,4.39,2.71-1.66,.62,1.02-3.96,2.42-3.3-5.41Z"/><path class="g" d="M90.84,24.12l.54,1.04-4.35,2.27-2.93-5.62,4.24-2.22,.54,1.04-2.95,1.54,.64,1.22,2.61-1.36,.53,1.01-2.61,1.36,.68,1.3,3.06-1.6Z"/><path class="g" d="M91.49,19.49l-1.86,.82-.48-1.09,5.06-2.22,.48,1.09-1.86,.81,2.07,4.71-1.34,.59-2.07-4.71Z"/><path class="g" d="M100.55,19.98l-2.77,.99-.07,1.47-1.41,.51,.52-6.92,1.36-.49,4.81,5.01-1.45,.52-.99-1.09Zm-.81-.89l-1.76-1.94-.13,2.62,1.89-.68Z"/><path class="g" d="M104.1,20.17c-.49,0-.9-.08-1.23-.21l.18-1.2c.31,.12,.67,.19,1.06,.2,.39,.02,.77-.03,1.13-.12,.4-.11,.68-.25,.84-.42,.16-.17,.21-.36,.16-.56-.04-.15-.13-.25-.27-.31-.14-.06-.31-.1-.5-.11s-.45,0-.77,0c-.5,.02-.91,.01-1.23-.01s-.63-.13-.91-.32c-.28-.19-.48-.48-.59-.89-.1-.35-.09-.7,.02-1.04,.11-.34,.34-.65,.68-.92,.34-.28,.79-.49,1.35-.65,.39-.11,.78-.17,1.18-.18,.4-.01,.76,.03,1.09,.13l-.14,1.19c-.65-.16-1.26-.17-1.83-.01-.4,.11-.67,.25-.82,.44-.15,.18-.2,.38-.14,.58,.06,.21,.21,.33,.46,.38,.25,.04,.61,.05,1.08,.02,.5-.02,.91-.01,1.23,.01s.63,.13,.91,.31c.28,.18,.47,.47,.59,.88,.1,.35,.09,.69-.03,1.04s-.34,.65-.69,.93-.79,.49-1.35,.65c-.48,.13-.97,.2-1.45,.19Z"/><path class="g" d="M111.21,16.75c-.26-.17-.42-.42-.48-.74-.06-.32,0-.61,.17-.86,.18-.25,.42-.41,.73-.47s.59,0,.85,.17c.26,.17,.42,.42,.48,.74s0,.61-.17,.87-.42,.42-.73,.47-.59,0-.85-.17Z"/><path class="g" d="M122.25,14.23c.23,.25,.37,.57,.4,.96,.06,.55-.12,1-.52,1.34-.4,.34-1.01,.55-1.83,.63l-3.26,.33-.63-6.3,3.08-.31c.77-.08,1.37,.01,1.81,.26,.44,.25,.69,.63,.74,1.14,.03,.31-.02,.59-.14,.84s-.31,.46-.56,.63c.37,.08,.67,.24,.9,.49Zm-4.28-2.1l.15,1.49,1.45-.14c.36-.04,.63-.13,.8-.27,.17-.14,.25-.34,.22-.59-.02-.25-.14-.42-.33-.53s-.48-.14-.84-.1l-1.45,.15Zm2.96,3.66c.18-.15,.26-.35,.23-.61-.05-.52-.47-.75-1.24-.67l-1.7,.17,.16,1.56,1.7-.17c.38-.04,.67-.13,.85-.28Z"/><path class="g" d="M125.09,16.51c-.53-.28-.95-.66-1.26-1.15-.31-.49-.47-1.05-.48-1.67-.01-.62,.13-1.18,.42-1.69,.29-.5,.7-.9,1.22-1.19,.52-.29,1.11-.44,1.77-.45s1.25,.12,1.78,.4c.53,.28,.95,.66,1.26,1.15,.31,.49,.47,1.05,.48,1.67s-.13,1.18-.43,1.69c-.29,.5-.7,.9-1.22,1.19s-1.11,.44-1.77,.45c-.66,.01-1.25-.12-1.79-.4Zm2.77-1.13c.3-.18,.53-.42,.7-.73,.17-.31,.25-.66,.24-1.05,0-.39-.1-.74-.27-1.04-.18-.3-.42-.54-.72-.71-.3-.17-.64-.25-1.02-.24-.37,0-.71,.1-1.01,.27-.3,.18-.53,.42-.7,.73s-.25,.66-.24,1.05c0,.39,.1,.74,.27,1.05s.42,.54,.72,.71c.3,.17,.64,.25,1.02,.24s.71-.1,1.01-.27Z"/><path class="g" d="M131.72,10.5l1.46,.08-.3,5.13,3.17,.19-.07,1.19-4.63-.27,.37-6.32Z"/><path class="g" d="M137.3,17.15c-.45-.19-.8-.41-1.05-.66l.63-1.04c.25,.23,.55,.43,.9,.6,.36,.17,.72,.27,1.09,.32,.41,.05,.73,.03,.94-.07,.21-.1,.33-.25,.36-.45,.02-.15-.02-.28-.13-.39s-.24-.21-.42-.29c-.18-.08-.41-.18-.72-.29-.47-.17-.84-.33-1.13-.49s-.53-.37-.72-.64c-.19-.28-.26-.63-.2-1.05,.04-.37,.18-.68,.42-.96,.23-.27,.56-.47,.98-.59,.42-.12,.92-.15,1.49-.08,.4,.05,.79,.15,1.16,.29,.37,.14,.69,.32,.95,.54l-.59,1.05c-.54-.4-1.1-.64-1.68-.71-.41-.05-.72-.02-.93,.09-.21,.11-.33,.27-.36,.48-.03,.22,.07,.39,.28,.52,.21,.13,.54,.28,.99,.44,.46,.17,.84,.34,1.13,.49,.29,.15,.53,.36,.72,.64,.19,.27,.26,.62,.2,1.04-.04,.36-.19,.67-.42,.95-.24,.27-.57,.47-.99,.59-.42,.12-.92,.15-1.5,.08-.5-.06-.97-.19-1.42-.38Z"/><path class="g" d="M143.6,17.83c-.46-.38-.79-.85-.98-1.4-.19-.55-.23-1.13-.1-1.74,.12-.61,.38-1.13,.77-1.56,.39-.43,.87-.73,1.45-.9,.57-.17,1.18-.19,1.83-.06s1.2,.39,1.65,.77,.78,.85,.98,1.4c.2,.55,.23,1.13,.11,1.74-.12,.61-.38,1.13-.78,1.56-.39,.43-.88,.73-1.45,.9-.57,.17-1.18,.19-1.82,.06-.64-.13-1.2-.39-1.66-.77Zm2.95-.5c.33-.11,.61-.3,.84-.56,.23-.27,.38-.59,.46-.98,.08-.38,.06-.74-.04-1.08-.11-.34-.29-.62-.55-.85-.26-.23-.58-.38-.94-.45-.37-.08-.71-.06-1.04,.05s-.61,.3-.84,.56c-.23,.27-.38,.59-.46,.98-.08,.38-.06,.75,.04,1.08,.11,.34,.29,.62,.55,.85,.26,.23,.58,.38,.94,.46,.37,.08,.71,.06,1.04-.05Z"/><path class="g" d="M150.24,19.54c-.41-.26-.72-.53-.94-.82l.78-.92c.21,.27,.47,.51,.8,.73,.33,.22,.67,.38,1.03,.48,.4,.11,.71,.14,.94,.08,.23-.06,.37-.19,.42-.39,.04-.14,.02-.28-.07-.41-.09-.13-.21-.25-.37-.35-.16-.11-.38-.24-.66-.4-.43-.24-.78-.46-1.05-.66-.26-.19-.47-.44-.61-.75-.14-.3-.16-.66-.04-1.07,.1-.35,.29-.65,.56-.88,.27-.23,.63-.38,1.06-.44s.93,0,1.49,.15c.39,.11,.76,.27,1.1,.46,.34,.2,.63,.43,.86,.68l-.74,.95c-.47-.48-.99-.8-1.55-.96-.39-.11-.7-.13-.93-.06-.23,.07-.37,.21-.43,.42-.06,.21,0,.39,.19,.56,.19,.16,.49,.36,.91,.58,.43,.24,.78,.46,1.05,.66,.26,.19,.47,.44,.61,.74,.14,.3,.16,.65,.04,1.06-.1,.35-.29,.64-.56,.87-.28,.23-.63,.38-1.07,.43-.44,.06-.93,0-1.49-.15-.48-.14-.93-.34-1.34-.6Z"/><path class="g" d="M158.1,20.34c-.13-.28-.13-.58-.02-.88,.12-.3,.31-.52,.6-.65,.28-.12,.57-.13,.86-.02,.29,.11,.5,.31,.63,.59,.13,.28,.14,.57,.02,.88-.12,.3-.31,.52-.6,.65-.28,.13-.57,.14-.87,.03-.29-.11-.5-.31-.63-.59Z"/><path class="g" d="M167.87,26.54l1.68-3.41-3.06,1.98-.59-.29-.31-3.56-1.65,3.33-1.23-.61,2.81-5.68,1.09,.54,.38,4.58,3.84-2.49,1.08,.53-2.8,5.68-1.23-.61Z"/><path class="g" d="M171.52,28.23c-.3-.52-.45-1.07-.44-1.65,0-.58,.18-1.13,.5-1.66s.75-.93,1.26-1.19c.52-.27,1.07-.38,1.67-.34,.6,.04,1.18,.23,1.74,.57,.56,.35,.99,.78,1.28,1.29,.3,.52,.44,1.07,.44,1.65,0,.58-.17,1.14-.5,1.67s-.75,.92-1.27,1.19c-.52,.26-1.08,.38-1.67,.34s-1.17-.23-1.73-.57c-.56-.35-.99-.78-1.29-1.3Zm2.94,.55c.35,.01,.67-.07,.98-.24s.57-.42,.77-.76c.21-.33,.32-.68,.33-1.03,.02-.35-.06-.68-.23-.99s-.41-.56-.73-.75c-.32-.2-.65-.3-1-.31-.35-.01-.67,.07-.98,.24s-.57,.42-.77,.76c-.21,.33-.32,.68-.33,1.03-.02,.35,.06,.68,.23,.99,.17,.3,.41,.56,.73,.75,.32,.2,.65,.3,1,.31Z"/><path class="g" d="M179.86,34.24l.07-2.15-.06-.04-1.03-.76-1.05,1.42-1.18-.87,3.77-5.09,2.2,1.63c.45,.33,.79,.7,1.01,1.09s.32,.8,.29,1.21-.18,.8-.46,1.18c-.28,.38-.61,.64-1,.78-.38,.14-.8,.16-1.24,.06l-.07,2.48-1.27-.94Zm2.59-4.12c-.07-.29-.28-.56-.64-.83l-.96-.71-1.31,1.78,.96,.71c.35,.26,.68,.38,.98,.36s.55-.17,.76-.45c.21-.29,.28-.57,.21-.86Z"/><path class="g" d="M184.88,38.41l.23-2.13-.05-.05-.96-.83-1.15,1.33-1.11-.96,4.15-4.79,2.07,1.79c.42,.37,.73,.76,.92,1.17,.19,.41,.26,.82,.2,1.23-.06,.41-.24,.79-.55,1.14-.31,.36-.66,.59-1.05,.7-.39,.11-.81,.1-1.24-.04l-.26,2.47-1.19-1.03Zm2.9-3.92c-.05-.29-.24-.58-.57-.87l-.9-.78-1.45,1.67,.9,.78c.33,.29,.65,.43,.95,.44,.3,0,.56-.13,.79-.39,.23-.27,.33-.55,.28-.84Z"/><path class="g" d="M190.64,42.1l-2.07-2.09-1.36,.55-1.06-1.07,6.49-2.44,1.02,1.03-2.52,6.47-1.08-1.09,.57-1.35Zm.47-1.11l1.02-2.42-2.43,.99,1.41,1.43Z"/><path class="g" d="M196.28,40.86l.95,1.11-3.91,3.34,2.07,2.41-.91,.78-3.02-3.53,4.81-4.12Z"/><path class="g" d="M198.81,52.31l-.94,.7-2.94-3.93,5.08-3.79,2.86,3.84-.94,.7-1.99-2.67-1.1,.82,1.76,2.36-.91,.68-1.76-2.36-1.17,.88,2.06,2.76Z"/><path class="g" d="M198.87,54.36c-.14-.47-.19-.88-.17-1.23l1.2-.18c-.02,.34,.02,.69,.12,1.07,.1,.38,.25,.73,.46,1.04,.23,.35,.44,.58,.66,.67,.21,.1,.4,.09,.58-.02,.13-.08,.2-.2,.22-.35,.02-.15,0-.32-.04-.51-.05-.19-.13-.43-.24-.73-.17-.47-.28-.86-.35-1.18-.07-.32-.06-.64,.03-.96,.09-.32,.32-.6,.67-.83,.31-.2,.64-.3,1-.29,.36,0,.72,.13,1.09,.37,.36,.24,.7,.61,1.02,1.09,.22,.34,.39,.7,.52,1.08,.13,.38,.19,.74,.2,1.08l-1.18,.22c-.04-.67-.22-1.25-.53-1.75-.22-.35-.44-.56-.66-.66s-.42-.08-.6,.04c-.18,.12-.26,.3-.22,.55s.13,.59,.3,1.04c.17,.47,.28,.86,.35,1.18,.07,.32,.06,.64-.03,.96-.09,.32-.31,.59-.67,.82-.3,.2-.64,.29-1,.28-.36,0-.72-.13-1.09-.38s-.71-.61-1.02-1.1c-.27-.42-.48-.87-.62-1.33Z"/></g><g><path class="f" d="M81.61,84.34c-.25,1.58-.46,3.16-.64,4.75-.24,2.08-.42,4.17-.54,6.26h0c-.12,1.86-.2,3.72-.24,5.59,3.61-1.67,6.2-4.77,6.2-9.48,0-2.92-1.43-5.8-4.78-7.12Zm60.61-.75c-1.1,0-2.03,.29-2.71,.9,.8,.01,1.59,.02,2.39,.04,1.49,.02,2.94,.2,4.35,.51-1.19-.92-2.98-1.45-4.03-1.45Zm8.44-18.86c-1.33,0-2.46,.47-3.13,1.71-1.42,2.75-3.79,9.48-4.07,10.33-.67,1.9,3.03,3.79,5.02,3.79,.57,0,.95-.19,1.14-.47,1.14-1.8,5.69-7.39,7.39-10.05,1.33-1.99-3.03-5.31-6.35-5.31Zm1.08,21.75c-.13,.13-.25,.27-.37,.4,.13,.07,.27,.14,.4,.21,0-.2,0-.41-.03-.61Zm12.44-8.68c.04,.15,.08,.3,.12,.45,.14-.19,.28-.38,.41-.56-.18,.04-.35,.07-.52,.11Zm6.69-9.81c-1.76-5.1-4.03-9.94-7.39-14.22-5.55-7.08-12.77-10.82-21.83-10.83-9-.02-17.99,0-26.99,0-3.14,0-6.21,.49-9.18,1.54-5.86,2.08-10.29,5.96-13.78,11-3.27,4.71-5.43,9.94-7.06,15.4-.67,2.23-1.25,4.48-1.75,6.73,1.4,.21,2.72,.56,3.96,1.05,2.55,1,4.7,2.58,6.31,4.56,.17-.26,.33-.52,.49-.76,2.02-3.19,5.4-5.11,9.04-5.11,3.16,0,7.59,1.43,10.4,4.53l1.87-1.39h.15c.83-.54,1.62-1,2.39-1.39l1.68-.87h.25c1.57-.6,3.04-.89,4.5-.89,2.39,0,4.79,.66,6.93,1.91,1.45,.84,2.78,1.95,3.88,3.27,.01-.02,.03-.04,.04-.06,.49-.77,1.1-1.5,1.8-2.15,.42-.38,.87-.73,1.34-1.04-.06-1.18,.11-2.37,.52-3.51,.27-.78,2.74-7.93,4.5-11.33l.06-.12c1.78-3.3,5.01-5.39,8.8-5.76-3.43-3.03-7.5-4.64-12.16-4.7-7.61-.08-15.23-.09-22.84,0-5.8,.07-10.55,2.52-14.32,6.89-3.47,4.03-5.56,8.77-7.06,13.81-.44,1.51-.81,3.04-1.25,4.71-.77-.18-1.35-.31-2.07-.47,.18-.85,.33-1.64,.53-2.42,1.17-4.63,2.86-9.05,5.38-13.13,1.65-2.67,3.62-5.07,6.08-7.05,3.67-2.96,7.88-4.53,12.57-4.58,7.72-.07,15.43-.1,23.15,0,6.06,.08,11.08,2.59,15.14,6.99,4.62,.67,9.25,3.67,11.29,7.48,1.72,3.22,1.61,6.88-.31,9.8-.34,.53-.75,1.13-1.21,1.77,1.12-.22,2.25-.33,3.38-.33,1.97,0,3.83,.25,5.54,.73-.71-3.41-1.61-6.78-2.75-10.1Zm-8.1-.02c-.64-1.2-1.7-2.31-2.98-3.22,.38,.45,.71,.93,.97,1.43,.56,1.05,.83,2.16,.79,3.24,.5,1.23,.94,2.49,1.35,3.76,.01,.04,.02,.07,.03,.1h0s.04-.07,.05-.11c0,0,.01-.02,.01-.03,.04-.07,.07-.14,.1-.2,.03-.07,.06-.14,.09-.21,.04-.12,.09-.24,.12-.37,.07-.25,.13-.5,.16-.75,.04-.25,.05-.51,.05-.77,0-.96-.25-1.94-.74-2.87Zm-2.34,4.69c-1.03,1.56-2.66,3.69-4.24,5.76-1.17,1.54-2.51,3.28-2.93,3.95l-.05,.09c-.52,.79-1.24,1.41-2.09,1.81,.21,.43,.37,.88,.48,1.33,.04,.14,.06,.28,.08,.42,.03,.15,.05,.31,.06,.46,.18-.2,.36-.39,.56-.58h0c1.22-1.26,2.48-2.35,3.78-3.25h.01c.44-.61,1-1.35,1.57-2.11h0c.18-.25,.37-.49,.56-.74,1.08-1.42,2.19-2.87,3.11-4.14-.27-1.01-.58-2.01-.91-3Zm-30.84,10.46c.35,.41,.67,.85,.97,1.3h.58c-.47-.48-.99-.92-1.54-1.3Zm-8.04,.47c-.77,0-1.74,.32-2.85,.89,1.94-.02,3.88-.04,5.83-.04-.91-.53-1.93-.84-2.98-.84Zm-13.06-.47c.21,.28,.41,.57,.58,.88,.2,.38,.37,.76,.5,1.15,.28-.07,.56-.13,.85-.19,.02-.02,.05-.04,.07-.06-.55-.7-1.25-1.3-2-1.79Zm-8.17,.47c-.95,0-1.8,.47-2.46,1.52-.47,.73-1.17,1.82-2,3.17-.95,1.55-2.08,3.43-3.22,5.48-.05,1.28-.26,2.5-.61,3.66,.47-.13,.99-.22,1.55-.22,.51,0,1.01,.07,1.48,.2,.09-.19,.18-.38,.27-.58,.49-.99,1.06-1.96,1.72-2.89,.37-.53,.77-1.05,1.2-1.55,2.12-2.51,4.54-4.43,7.25-5.75-.44-1.87-3.63-3.03-5.19-3.03Zm-7.72,34.75c.19,.07,.37,.13,.55,.19v-.74c-.18,.19-.37,.38-.55,.55Zm.42,4.62l-.54-.14c-.63-.17-1.27-.38-1.91-.63,.96,.56,1.86,.98,2.58,1.26v-.48h-.13Zm-2.1-36.17c-.76-1.21-1.75-2.26-2.96-3.11,1.07,1.28,1.81,2.75,2.24,4.3,.09,.31,.16,.62,.22,.93,.29-.49,.58-.98,.87-1.46-.12-.23-.24-.45-.38-.66Zm2.1,36.17l-.54-.14c-.63-.17-1.27-.38-1.91-.63,.96,.56,1.86,.98,2.58,1.26v-.48h-.13Zm-9-5.38c-.65,.52-1.31,1.01-1.97,1.46-.67,.46-1.34,.88-2.03,1.27v.68c0,.55,0,1.1,0,1.66,.66-.28,1.32-.61,1.98-.98,.08-.04,.16-.09,.24-.13,.34-.2,.69-.4,1.04-.62,.47-.29,.94-.61,1.41-.94,.33-.24,.66-.48,.99-.73-.6-.51-1.15-1.07-1.64-1.67Zm79.25,4.68v.2c.13-.03,.25-.06,.38-.1-.13-.04-.25-.07-.38-.11Zm12.68,11.01c-.15-.02-.29-.05-.44-.07-.34-.06-.68-.12-1.02-.19-.24-.05-.47-.1-.71-.16-.38-.09-.76-.18-1.13-.29-.19-.05-.38-.11-.56-.16-.22-.07-.44-.14-.65-.21-.16-.05-.33-.11-.5-.17-.16-.06-.33-.12-.49-.18-.18-.07-.36-.14-.54-.22-.16-.07-.33-.14-.49-.21-.14-.06-.29-.13-.43-.2-.41-.19-.81-.4-1.21-.62-.11-.05-.21-.11-.32-.18-.12-.07-.23-.13-.34-.2-.18-.11-.35-.22-.52-.33-.17-.11-.34-.23-.51-.34-.17-.12-.34-.24-.51-.37-.15-.11-.31-.23-.45-.35-.02-.02-.05-.04-.07-.05-.31-.26-.62-.52-.92-.81-.09-.09-.19-.18-.28-.27-.2-.18-.38-.38-.57-.58v.92c0,3.87,0,7.75,.02,11.62,2.87,3.93,7.71,6.22,12.86,6.87,.15-.93,.23-1.89,.23-2.87,0-3.43,0-6.86,0-10.3-.15-.02-.29-.04-.44-.07Zm-.54-15.63c-.4-.47-.78-.98-1.12-1.53-1.61,1.44-3.26,2.71-4.97,3.76-.56,.34-1.12,.65-1.68,.94h0c-1.29,.66-2.61,1.19-3.97,1.55,.77,.24,1.5,.65,2.18,1.25,.34-.09,.69-.2,1.04-.31,.99-.33,1.98-.75,2.98-1.26,.51-.26,1.01-.54,1.52-.85,1.43-.86,2.87-1.92,4.35-3.18-.11-.12-.21-.24-.32-.36Zm-7.98,7.49c.23,.2,.46,.39,.71,.57-.23-.22-.47-.4-.71-.57Zm-87.4,2.94c0,3.81,.02,7.63,.02,11.45,4.46,.75,8.91,1.61,13.1,2.33,0-3.39,0-6.78,0-10.17-4.12-1.1-8.6-2.41-13.13-3.6Zm20.3-44.48c-.95,0-1.8,.47-2.46,1.52-.47,.73-1.17,1.82-2,3.17-.95,1.55-2.08,3.43-3.22,5.48-.27,.48-.54,.98-.81,1.48-.97,1.79-1.93,3.66-2.78,5.51-.2,.22-.39,.43-.58,.65-.19,.21-.38,.43-.58,.64-.39,.43-.78,.85-1.16,1.26-1.6,1.72-3.19,3.35-4.77,4.73-.37,.33-.74,.63-1.11,.93-.1,.08-.2,.16-.3,.24-.16,.13-.31,.24-.47,.36-.02,1.88-.03,3.76-.04,5.64,.19-.14,.38-.27,.56-.42,.45-.34,.9-.7,1.35-1.07,.21-.17,.42-.35,.62-.53,.21-.18,.42-.36,.62-.55,.41-.37,.82-.76,1.22-1.15,.53-.52,1.06-1.05,1.58-1.61-.06,.45-.09,.89-.09,1.3,0,1.35,.53,2.54,1.34,3.56,.09,.12,.19,.23,.3,.35,.09,.1,.18,.2,.27,.29,.09,.09,.19,.19,.29,.28,.07,.07,.13,.13,.2,.19,.15,.14,.31,.27,.47,.4,.07,.05,.13,.11,.2,.16,.09,.07,.18,.14,.27,.2,.06,.04,.12,.09,.18,.13,.13,.09,.26,.18,.39,.26,.35,.23,.71,.43,1.07,.61,.12,.06,.24,.13,.36,.18,.11,.05,.21,.1,.31,.14,.05,.02,.11,.05,.16,.07,.16,.07,.33,.14,.48,.2,.13,.05,.25,.1,.38,.14,.19,.07,.37,.13,.55,.19v-.74c0-1.91,0-3.83-.01-5.74,0-1.26,0-2.52,0-3.78,0-.44,0-.88,0-1.32-.01-3.42,.61-6.61,1.93-9.54,.09-.19,.18-.38,.27-.58,.49-.99,1.06-1.96,1.72-2.89,.37-.53,.77-1.05,1.2-1.55,2.12-2.51,4.54-4.43,7.25-5.75-.44-1.87-3.63-3.03-5.19-3.03Zm21.23,0c-.77,0-1.74,.32-2.85,.89,1.94-.02,3.88-.04,5.83-.04-.91-.53-1.93-.84-2.98-.84Zm-27.52,62.78c-2.37-.4-4.82-.84-7.32-1.29-2.21-.4-4.44-.81-6.66-1.19v.34c0,.16,0,.33,0,.49,.57,.09,1.13,.18,1.7,.28,2.43,.41,4.89,.85,7.26,1.28,2.02,.37,3.92,.71,5.81,1.04,.09,.02,.18,.03,.26,.04-.41-.27-.76-.6-1.06-.99Zm5.56,1.72c4.32,.64,7.56,.93,10.3,.93,2.3,0,4.51-.31,6.64-.93h-16.93Zm72.78,6.7c-.23-.07-.46-.14-.69-.22-.33-.11-.65-.22-.97-.34-.23-.08-.46-.17-.68-.26-.23-.09-.47-.19-.7-.29-.19-.08-.38-.16-.57-.25-.09-.04-.17-.08-.26-.13-.18-.08-.36-.17-.54-.26-.23-.11-.45-.23-.67-.34-.27-.14-.53-.29-.79-.44-.25-.15-.51-.3-.76-.46-.04-.02-.08-.05-.12-.07-.22-.13-.42-.27-.63-.41-.09-.05-.17-.11-.25-.17-.19-.13-.38-.27-.57-.41-.04-.02-.07-.05-.1-.07-.22-.16-.43-.33-.64-.49-.04-.03-.08-.06-.11-.09-.2-.15-.38-.31-.57-.48-.05-.04-.09-.07-.14-.11-.22-.19-.42-.38-.63-.57-.2-.18-.39-.37-.57-.56-.07-.07-.13-.14-.2-.21-.17-.17-.33-.35-.49-.53h0c-.49,.23-1.04,.4-1.66,.47-.24,.03-.5,.05-.76,.04-10.02-.1-20.04-.04-30.06-.04h-2.7c-4.71,3.22-9.95,4.85-15.67,4.85-3.46,0-7.59-.42-13.4-1.37-.78-.13-1.55-.26-2.33-.4-1.88-.32-3.78-.67-5.79-1.03l-.09-.02c-2.35-.43-4.77-.87-7.16-1.27-.13-.02-.26-.04-.39-.06,.43,1.45,1.08,2.83,1.93,4.14,3.52,5.42,8.54,8.24,15.03,8.26,10.17,.03,20.34,0,30.52,0s20.14,.02,30.22-.02c1.62,0,3.29-.15,4.85-.55,3.15-.8,5.89-2.38,8.03-4.53,.41-.4,.8-.83,1.16-1.28-.03,0-.06-.02-.09-.03Zm-3.88-5.92c1.86,1.08,3.94,1.93,6.16,2.5,.11-.22,.21-.45,.31-.67-2.24-.34-4.43-.96-6.47-1.82Z"/><path class="f" d="M143.94,40.65h-4.2c-.09-.26-.18-.44-.22-.62-.54-2.56-2.2-4.14-4.58-4.91-4.45-1.44-8.96-1.45-13.42-.01-2.74,.88-3.88,2.3-4.77,5.47-1.31,.06-2.66,.12-4.23,.19,.06-.65,.05-1.25,.18-1.81,.7-3.12,2.48-5.44,5.26-7.01,2.04-1.15,4.27-1.73,6.56-1.96,3.42-.34,6.84-.33,10.21,.52,1.85,.47,3.59,1.18,5.11,2.36,2.54,1.95,3.85,4.54,4.1,7.81Z"/><path class="f" d="M126.91,86.7c-3.72,0-7.44,.01-11.16,.02-.19,0-.38,0-.57,0h0c-.19,.14-.38,.28-.57,.43-.19,.14-.38,.29-.58,.45-.78,.62-1.59,1.3-2.41,2.02-.19,.17-.38,.33-.56,.51-.52,.46-1.04,.94-1.56,1.43-.15,.14-.29,.28-.44,.42-.41,.39-.82,.79-1.23,1.19-.28,.27-.55,.55-.83,.83-.25,.26-.51,.52-.76,.78-.31,.32-.61,.63-.91,.95-.3,.32-.6,.63-.89,.95-.74,.8-1.46,1.6-2.15,2.39-.38,.44-.76,.88-1.12,1.31-.17,.2-.34,.4-.5,.6-.29,.34-.56,.69-.83,1.02-.13,.16-.27,.33-.4,.5-.13,.17-.26,.33-.38,.49h0c-.52,.67-.99,1.32-1.41,1.92,.41-1.14,.85-2.29,1.3-3.42,.65-1.63,1.32-3.22,1.99-4.71,.07-.17,.15-.34,.23-.51,.15-.35,.31-.69,.46-1.02,.07-.17,.15-.33,.23-.5,.17-.36,.33-.72,.5-1.07,.13-.28,.27-.56,.4-.83,.13-.27,.26-.54,.39-.8,.13-.25,.25-.5,.37-.74,.24-.48,.47-.91,.68-1.31-2.03,1.33-3.78,3.02-5.17,4.97-.76,1.07-1.41,2.22-1.95,3.43-.1,.23-.2,.45-.29,.68-.78,1.97-1.26,4.09-1.38,6.32h0c-.02,.38-.03,.75-.03,1.13,0,.95,0,1.9,0,2.85h0c0,2.01,0,4.03,0,6.03v.96c.17-.36,.39-.79,.65-1.26,.09-.17,.2-.34,.3-.52,.16-.27,.33-.56,.51-.85h0c.12-.2,.24-.39,.37-.6,.13-.2,.26-.41,.4-.62,.1-.16,.21-.32,.32-.48,.11-.16,.22-.33,.33-.5,.67-1,1.43-2.08,2.24-3.2,.13-.18,.26-.36,.4-.54,.08-.11,.17-.23,.25-.35,.13-.18,.26-.35,.39-.53,.05-.07,.11-.15,.17-.23,.21-.28,.42-.56,.63-.85,.07-.09,.14-.19,.21-.28h0c1.16-1.54,2.37-3.08,3.59-4.57,.14-.18,.28-.35,.43-.52,1.82-2.22,3.64-4.28,5.26-5.92l.24-.23c.85-.85,1.64-1.59,2.35-2.15,.09-.07,.18-.14,.26-.2,.17-.13,.34-.25,.5-.36,.06-.04,.12-.08,.18-.12,.21-.14,.41-.25,.59-.34,.04-.02,.07-.04,.11-.05,.01,0,.02-.01,.04-.02,.05-.03,.1-.05,.15-.06,.08-.04,.16-.06,.24-.08,.05-.02,.11-.03,.16-.04,.06-.01,.12-.02,.18-.02,1.67,0-.85,4.27-3.56,9.03h10.68c2.14-4.06,4.06-8.01,4.06-9.69,0-1.26-.41-2.48-1.08-3.52Zm12.25,15.47c-.12-.02-.23-.03-.35-.04-1.53-.16-3.02-.05-4.5-.07-.07,0-.14,0-.21,0-1.07-.02-2.14-.02-3.21-.01-.41,0-.81,0-1.21,0h-17.65c-1.94,3.49-3.67,6.94-3.67,8.92,0,4.93,7.3,7.68,9.38,7.68,.02,0,.04,0,.07,0,.07,0,.14-.01,.21-.02,.04,0,.07-.02,.11-.02,.04,0,.08-.02,.12-.03,.08-.02,.16-.05,.24-.08,.08-.03,.17-.07,.26-.11h0c.1-.05,.2-.1,.31-.16,.05-.03,.11-.06,.16-.09,.05-.03,.11-.06,.17-.1,.09-.05,.19-.11,.28-.18,.18-.11,.36-.24,.56-.38,.1-.07,.2-.14,.29-.22,1.29-.98,2.84-2.44,4.51-4.2,.76-.8,1.55-1.66,2.35-2.57-.06,.13-.11,.26-.17,.38-1.07,2.46-2.96,6.58-5.33,10.68-.51,.88-1.04,1.75-1.59,2.61-.82,1.28-1.69,2.53-2.6,3.68-.15,.19-.3,.38-.45,.57-.15,.19-.31,.37-.46,.55-.13,.16-.26,.31-.4,.46-.08,.09-.16,.18-.24,.27-.16,.18-.32,.35-.49,.52-.16,.17-.33,.34-.49,.5-.13,.13-.26,.25-.39,.37-.12,.11-.23,.22-.35,.32-.24,.22-.49,.43-.74,.62-.07,.06-.15,.12-.22,.17-.18,.14-.36,.27-.54,.4-.07,.05-.14,.1-.21,.14-.21,.14-.42,.27-.63,.39-.07,.04-.15,.09-.22,.13-.1,.05-.2,.11-.3,.16-.12,.06-.24,.12-.36,.17-.18,.08-.37,.16-.55,.22-.08,.04-.17,.06-.26,.09-.14,.05-.28,.09-.42,.12-.76,.19-1.7,.28-2.75,.28-3.12,0-7.22-.84-11.86-2.03,0,3.32,0,6.64,0,9.96,4.52,.74,8.68,1.26,12.14,1.26,.24,0,.47,0,.7-.01,.18,0,.36-.02,.54-.03,.1,0,.2-.01,.31-.02,.14,0,.27-.02,.41-.04,.1,0,.2-.02,.29-.03,.05,0,.1,0,.15-.02,.11-.01,.21-.02,.31-.04,.23-.03,.45-.06,.68-.1,.19-.03,.38-.07,.57-.11,.14-.03,.28-.06,.42-.09,.14-.03,.28-.06,.42-.1,.14-.04,.28-.07,.42-.11,.13-.03,.25-.07,.37-.11,.18-.05,.35-.11,.52-.16,.37-.12,.73-.25,1.08-.39,.08-.03,.16-.06,.24-.1,.27-.11,.54-.22,.8-.35,.09-.04,.18-.09,.27-.13,.18-.09,.36-.18,.54-.27,.11-.05,.22-.11,.32-.17,.11-.06,.23-.12,.34-.19,.09-.05,.17-.09,.25-.14,.08-.05,.17-.1,.25-.15,.14-.08,.27-.16,.41-.25,.18-.11,.36-.23,.53-.35,.35-.24,.7-.49,1.04-.74,.17-.13,.34-.26,.51-.39,.67-.53,1.31-1.1,1.93-1.71,.16-.16,.32-.31,.47-.47,.19-.19,.38-.38,.56-.58,.25-.27,.51-.55,.75-.84,.24-.29,.49-.58,.73-.87,.12-.14,.24-.29,.35-.44,.19-.24,.37-.48,.55-.72,.18-.24,.36-.49,.54-.74,.18-.25,.35-.5,.52-.75,.17-.25,.34-.51,.51-.77,.49-.75,.97-1.53,1.43-2.31,.19-.33,.38-.66,.56-.99,.55-.98,1.07-1.98,1.57-2.98,.18-.37,.36-.74,.54-1.12,.14-.3,.29-.6,.43-.9l.02-.05c.16-.36,.32-.71,.49-1.07,.12-.26,.23-.51,.34-.77,.05-.11,.1-.23,.15-.34,.13-.29,.25-.58,.38-.88,.17-.4,.34-.81,.51-1.21,.5-1.2,.98-2.38,1.43-3.53,.34-.87,.71-1.77,1.09-2.71,.09-.23,.19-.47,.29-.7,.29-.71,.58-1.43,.88-2.17,.61-1.48,1.25-3.01,1.9-4.53,0-.81,0-1.65,0-2.58Zm21.79,25.62c-.04,.12-.06,.24-.09,.37-.02,.12-.05,.24-.07,.36-.02,.1-.04,.2-.05,.31t0,0c-.08,.54-.12,1.08-.13,1.51,0,.05,0,.1,0,.14,0,.24-.01,.44-.01,.58,0,1.35,.16,2.62,.45,3.79,0-2.26,0-4.52,0-6.77v-.64c-.04,.11-.07,.22-.11,.34Zm.1-15.63c0-1.45,0-2.91,0-4.37v-1.62c0-.29,0-.57-.02-.85h0c-.11-2.55-.7-4.99-1.82-7.26h0c-.23-.48-.48-.94-.76-1.4-.66-1.1-1.38-2.11-2.15-3.02-.85-1.01-1.77-1.91-2.75-2.7-.29,.36-.58,.72-.85,1.09,0,.01-.01,.02-.02,.03,0,0,0,.01,0,.02,0,0,0,0,0,.01,0,0,0,.01-.02,.02-.22,.29-.43,.6-.64,.9-.16,.23-.31,.45-.46,.69-.15,.23-.3,.46-.45,.7-.16,.27-.33,.53-.49,.8-.35,.6-.69,1.2-1,1.81-.07,.13-.14,.27-.2,.4-.07,.15-.15,.3-.22,.45-.15,.3-.29,.6-.42,.9-.07,.15-.13,.3-.2,.45-.06,.13-.12,.27-.17,.4-.06,.14-.11,.27-.16,.4-.13,.33-.25,.65-.37,.97v1.01h-.34c-.07,.24-.15,.48-.22,.72-.02,.08-.05,.17-.07,.25-.02,.08-.05,.16-.07,.25,0,0,0,0,0,.01,0,.02-.01,.05-.02,.07-.03,.1-.05,.19-.07,.29-.01,.04-.02,.07-.03,.11-.04,.14-.07,.29-.1,.43-.05,.23-.09,.45-.13,.67-.03,.17-.06,.34-.09,.51,0,.01,0,.02,0,.04,0,.04-.01,.09-.02,.13-.03,.18-.05,.36-.06,.54,0,.05-.01,.11-.02,.16,0,.02,0,.05,0,.07-.02,.14-.02,.28-.03,.42v.02s0,.07,0,.11c0,.03,0,.07,0,.1,0,.14-.01,.29-.01,.43,0,.09,0,.18,0,.28,0,.09,0,.19,0,.29,0,.09,0,.2,.01,.29,0,.09,.01,.19,.02,.29,0,.06,0,.12,.02,.18,.01,.15,.03,.3,.04,.45,.02,.14,.04,.28,.06,.42,.02,.12,.04,.24,.06,.37,.02,.12,.04,.25,.07,.38,.02,.12,.05,.23,.08,.35,.04,.16,.07,.31,.12,.47,.04,.14,.08,.27,.12,.41,.12,.38,.27,.77,.44,1.15,.04,.08,.07,.16,.11,.24,.04,.08,.08,.17,.13,.25,.04,.08,.09,.17,.13,.25,.04,.08,.09,.16,.14,.25,.05,.09,.11,.18,.16,.26,.09,.15,.2,.3,.3,.45,.05,.07,.11,.15,.16,.22,.11,.14,.23,.29,.35,.43,.1,.12,.21,.23,.32,.34,.09,.09,.18,.18,.27,.27,.12,.11,.24,.22,.36,.33,.06,.05,.13,.11,.19,.16,.07,.05,.13,.1,.2,.15,.11,.08,.22,.16,.33,.24,.15,.11,.31,.21,.47,.31,.14,.09,.29,.17,.43,.25,.13,.07,.26,.14,.4,.21,.11,.05,.23,.11,.34,.16,.67,.31,1.42,.56,2.25,.76,.15,.04,.3,.07,.45,.11,.16,.04,.31,.06,.47,.09,.09,.02,.18,.03,.27,.04,.13,.02,.26,.04,.4,.06,.16,.02,.32,.04,.48,.06,.09,0,.18,.02,.27,.03,.16,.02,.33,.03,.5,.04,.2,.02,.42,.03,.63,.04,.13,0,.25,.01,.38,.02,.04,0,.08,0,.13,0,.2,0,.41,0,.62,0,.6,0,1.19-.05,1.78-.14,0-2.12,0-4.24,0-6.36Zm-18.69-2.98c-.02-.2-.04-.4-.05-.6h-.08c-.22,.53-.45,1.08-.68,1.63h0c-.11,.28-.23,.56-.34,.84h0c-.7,1.72-1.44,3.52-2.19,5.41-2.73,6.89-5.87,14.09-10.39,19.93-3.43,4.44-7.3,7.6-11.55,9.45h4.68c3.23-1.87,6.21-4.57,8.93-8.08,4.48-5.8,7.62-12.97,10.33-19.84,.36-.89,.7-1.75,1.04-2.58h0c.36-.9,.71-1.76,1.05-2.59-.38-1.16-.62-2.37-.74-3.58Zm15.74,13.76c-.66-.03-1.3-.08-1.91-.15-1.81-.22-3.42-.63-4.84-1.2,1.28,.83,2.74,1.45,4.37,1.88,.53,.14,1.08,.26,1.65,.36,.25,.04,.49,.08,.74,.12,.33-.41,.69-.74,1.06-.99-.36,0-.72,0-1.07-.02Zm-.92,19.3c-.14-.29-.27-.59-.39-.89-.4-.96-.72-1.96-.98-2.98-.46-1.81-.69-3.73-.69-5.69,0-1.21,.08-2.94,.46-4.65v-.32l.07-.22c-.52-.11-1.03-.24-1.52-.39-3.82-1.12-6.9-3.18-9.21-6.18-.2-.26-.4-.53-.58-.8-2.75,6.9-5.96,14.06-10.57,20.03-1.68,2.17-3.45,4.06-5.32,5.68,9.65,0,19.29,0,28.94,0h.84c.38,0,.72-.02,1.01-.07-.81-1.11-1.5-2.29-2.07-3.52Zm-41.81-19.61c-.79-.19-1.65-.47-2.53-.83,.75,.45,1.53,.84,2.29,1.17,.22,.09,.43,.18,.64,.26,.1-.14,.2-.29,.3-.45-.23-.04-.47-.09-.71-.15Zm-2.75,3.53c-2.73-1.31-5.4-3.28-7.25-5.89-.16,.28-.29,.52-.4,.73-.54,2.44-1.92,4.41-3.87,5.65-1.33,.85-2.92,1.35-4.67,1.44,4.32,1.11,8.12,1.9,10.79,1.9,.98,0,1.52-.11,1.7-.15,1.08-.27,2.57-1.33,4.35-3.36-.22-.09-.45-.2-.67-.31Zm-8.55-15.19c0-.07,0-.15,0-.22-2.69,3.72-4.42,6.51-4.83,7.51-.36,2.31-1.78,3.9-3.87,4.47v1.43h.58c2.86,.01,4.85-1.66,5.27-4.38,.02-.04,.04-.09,.07-.16,.56-1.23,1.78-3.17,3.35-5.42-.36-.99-.57-2.07-.57-3.23Zm36.69-24.26c-.91,0-1.82,0-2.74-.01-.16,.29-.33,.58-.5,.88-.08,.14-.16,.29-.24,.43-.03,.05-.06,.11-.09,.17-.04,.07-.08,.14-.12,.22-.13,.25-.27,.51-.4,.76-.09,.17-.18,.34-.27,.52-.18,.35-.36,.7-.53,1.07-.04,.07-.07,.14-.1,.21-.13,.27-.26,.53-.39,.81-.15,.31-.3,.63-.45,.96-.08,.16-.15,.33-.23,.5-.31,.67-.61,1.34-.92,2.02-.27,.6-.53,1.19-.78,1.8-.12,.28-.24,.56-.36,.84h0c-.29,.68-.57,1.35-.85,2.02h9.47c.24-.54,.48-1.08,.72-1.61,.24-.53,.48-1.05,.72-1.57,.03-.06,.06-.13,.09-.19,.25-.54,.51-1.08,.75-1.6,.56-1.18,1.12-2.29,1.64-3.31,.11-.21,.22-.41,.32-.61,.3-.57,.6-1.1,.88-1.6,.16-.27,.31-.54,.47-.79,.06-.1,.12-.2,.18-.3,.14-.22,.24-.44,.31-.65-2.03-.62-4.23-.94-6.6-.95Zm-7.88-.02c-.18,0-.36,0-.54,0h-.65c.09,.26,.18,.52,.25,.78,.1,.35,.18,.7,.24,1.06,.28-.55,.55-1.1,.83-1.63h0c.04-.07,.07-.14,.11-.22h-.23Zm-20.83,15.36c-1.94,3.49-3.67,6.94-3.67,8.92,0,4.93,7.3,7.68,9.38,7.68,.02,0,.04,0,.07,0,.07,0,.14-.01,.21-.02,.04,0,.07-.02,.11-.02,.04,0,.08-.02,.12-.03,.08-.02,.16-.05,.24-.08,.08-.03,.17-.07,.26-.11h0c1.44-2.58,2.96-5.63,4.52-9.23,.09-.2,.17-.39,.26-.6,1.81-1.8,3.92-4.1,6.11-6.51h-17.61Z"/></g><path class="g" d="M62.3,58.74c-4.15-4.18-10.1-6.99-17.22-8.14-1.08-.17-2.1-.29-3.11-.38-1.52-.14-3.1-.21-4.69-.21C13.43,50.01,1.92,63.46,.27,71.93c-.82,4.2,.26,8.62,2.91,11.83,2.15,2.62,5.12,4.12,8.14,4.12,1.9,0,3.6-.92,4.55-2.47,.87-1.41,.97-3.14,.27-4.52-.29-.59-.34-.96-.22-1.61v-.04c.54-3.05,4.07-9.99,11.36-13.53-.27,.33-.52,.68-.77,1.06l-.06,.1-.06,.1c-.64,1.12-15.66,27.63-21.01,41.86-1.88,4.92-1.56,9.59,.89,13.14,2.04,2.96,6.49,6.48,16.13,6.48,2.61,0,5.19-.18,7.67-.55,.58-.08,1.15-.18,1.72-.28,.3-.05,.59-.11,.88-.17,.65-.13,1.29-.28,1.91-.43,2.16-.53,4.18-1.19,6.07-1.95,3.24-1.31,6.07-2.92,8.47-4.73,1.77-1.34,3.32-2.77,4.64-4.27,1.17-1.33,2.17-2.71,2.97-4.12,.56-.97,1.03-1.94,1.41-2.92h0c.85-2.16,1.26-4.3,1.24-6.34,0-.53-.04-1.05-.1-1.56h0c-.08-.72-.22-1.41-.4-2.07-.45-1.61-1.19-3.09-2.21-4.42-.43-.57-.91-1.1-1.44-1.61,1.37-.69,2.64-1.46,3.79-2.29,3.15-2.28,5.48-5.03,7.03-7.96,1.67-3.14,2.46-6.49,2.42-9.68-.05-5.29-2.24-10.38-6.18-14.35ZM24.06,111.08c.57-1.85,2.82-7.09,6.34-14.76l.04,.04c.89,.95,2.15,1.47,3.53,1.47,5.1,0,5.56,2.2,5.71,2.93,.77,3.73-2.91,10.23-8.65,12.71-.63,.27-1.27,.49-1.92,.65-.89,.23-1.81,.34-2.72,.34-1.75,0-2.42-.39-2.53-.54-.13-.17-.34-1.02,.21-2.83Zm24.86-38.39c-.53,6.52-6.72,14.09-13.92,14.09-.05,0-.11,0-.17,0,1.28-2.73,2.61-5.53,3.83-8.09,1.84-3.85,2.9-6.03,3.09-6.4l.02-.05,.04-.08c1.19-2.39,.93-4.96-.67-6.85-.64-.77-1.41-1.32-2.18-1.73,.71,.05,1.37,.13,1.97,.23,7.09,1.16,8.25,5.47,7.98,8.88Z"/><path class="e" d="M42.11,52.86c-.92-.14-1.87-.27-2.85-.35-1.38-.13-2.83-.19-4.34-.19-21.7,0-31.85,11.94-33.17,18.77-1.14,5.78,2.75,11.28,7.21,11.28,1.14,0,1.52-.95,1.32-1.33-.66-1.33-.85-2.56-.57-4.08,.95-5.4,8.44-18.95,25.02-18.95,.58,0,1.14,.02,1.68,.04,.99,.05,1.93,.15,2.81,.3,20.64,3.38,9.7,30.75-6.57,30.75-1.42,0-2.94,3.22-1.04,3.22,15.64,0,10.34,18.07-1.39,23.14-.81,.35-1.65,.64-2.51,.85-1.18,.3-2.41,.46-3.68,.46-6.26,0-7.49-3.79-6.07-8.44,.98-3.18,5.6-13.34,9.92-22.57,1.77-3.79,3.5-7.43,4.9-10.36,1.8-3.77,3.06-6.36,3.19-6.59,.54-1.08,.37-1.95-.17-2.58-.53-.63-1.42-1.05-2.36-1.25-.45-.1-.92-.15-1.35-.15-2.09,0-3.41,.57-4.64,2.47,0,0-15.45,27.2-20.76,41.32-3.03,7.96,1.04,14.31,13.36,14.31,3.08,0,5.98-.27,8.68-.77,.87-.16,1.73-.34,2.56-.55,22.47-5.55,29.77-26.88,11.51-31,25.75-4.64,26.25-33.4-.68-37.74Z"/><path class="g" d="M98.97,101.49c-.09-.42-.23-.83-.42-1.23-.35-.73-.86-1.36-1.47-1.85-.59-.47-1.27-.82-2.02-1.01-.47-.13-.97-.2-1.48-.2-.56,0-1.08,.08-1.55,.22,.35-1.16,.56-2.38,.61-3.66,.02-.23,.02-.46,.02-.7,0-.47-.02-.92-.07-1.37-.16-1.54-.6-2.96-1.28-4.23-.12-.23-.24-.45-.38-.66-.76-1.21-1.75-2.26-2.96-3.11-.77-.54-1.63-1.01-2.57-1.38-1.72-.68-3.69-1.03-5.85-1.03-2.6,0-5.23,.77-7.78,2.24-3.04,1.75-5.97,4.5-8.62,8.13-1.72,2.36-3.17,4.9-4.28,7.41-1.53,3.49-2.39,6.93-2.39,9.84,0,1.06,.08,2.08,.24,3.05,.38,2.34,1.22,4.41,2.46,6.15,.06,.09,.13,.18,.19,.26,1.25,1.66,2.86,3,4.81,3.97h0c1.38,.69,2.93,1.19,4.62,1.49,1.33,.24,2.78,.36,4.3,.36,.79,0,1.58-.06,2.38-.18h0c1.5-.23,3.02-.67,4.53-1.34,.66-.28,1.32-.61,1.98-.98,.08-.04,.16-.09,.24-.13,.34-.2,.69-.4,1.04-.62,.47-.29,.94-.61,1.41-.94,.33-.24,.66-.48,.99-.73,.26-.2,.52-.41,.78-.62,.13-.1,.25-.2,.38-.31,.71-.6,1.43-1.24,2.17-1.94,.72-.68,1.45-1.42,2.22-2.22,.63-.67,1.27-1.37,1.93-2.13,.72-.82,1.46-1.7,2.24-2.65h0c.74-.9,1.51-1.87,2.33-2.91,.83-1.05,1.3-2.27,1.37-3.49h0c.03-.51,0-1.01-.11-1.5Zm-24.64,6.47c.28,0,.57,.01,.87,.01,2.06,0,4.07-.26,5.94-.76-.35,.29-.69,.56-1.03,.8-.64,.47-1.25,.87-1.82,1.16-.92,.48-1.74,.73-2.43,.73-.8,0-1.17-.15-1.3-.21-.26-.13-.28-.72-.28-.89,0-.26,.02-.54,.05-.83Z"/><path class="g" d="M140.11,105.58c-.18,.32-.38,.62-.61,.91-.74,.95-1.49,1.89-2.22,2.8-1.59,1.96-3.14,3.8-4.58,5.42-3.6,4.06-5.99,6.23-7.65,7.46v.36l-2.31,1.04c-.85,.38-1.64,.58-2.42,.61-.06,0-.13,0-.19,0-.31,0-.65-.02-1.02-.07-.97-.13-2.12-.42-3.32-.87-.21-.08-.43-.17-.64-.26-.76-.33-1.54-.71-2.29-1.17-3.2-1.92-6.03-5.01-6.03-9.22,0-.52,.06-1.07,.17-1.64-.84,1.13-1.63,2.23-2.35,3.26-1.57,2.25-2.78,4.19-3.35,5.42-.03,.07-.05,.12-.07,.16-.42,2.72-2.41,4.39-5.27,4.39h-.58l-.47-.14c-.21-.06-.4-.11-.6-.18-.27-.09-.66-.22-1.15-.42-.72-.28-1.62-.7-2.58-1.26-.42-.25-.85-.52-1.27-.83-.97-.69-1.93-1.55-2.75-2.58-.04-.05-.07-.09-.11-.14-1.37-1.77-2.09-3.79-2.09-5.86,0-.42,.02-.85,.07-1.3,.02-.16,.04-.33,.06-.5,.27-2.14,1-4.66,2.24-7.67,.34-.82,.71-1.68,1.12-2.58,.83-1.79,1.8-3.72,2.9-5.74,.61-1.13,1.23-2.23,1.84-3.29,.99-1.72,1.95-3.31,2.81-4.69,.56-.9,1.07-1.71,1.53-2.41,1.33-2.1,3.43-3.31,5.75-3.31,1.5,0,3.86,.57,5.82,1.84,.75,.49,1.45,1.08,2,1.79,.55,.7,.97,1.5,1.19,2.42,.04,.19,.08,.4,.11,.62,1.16-1,2.3-1.93,3.41-2.76l1.04-.78h.04c1.08-.75,2.07-1.35,2.98-1.82l.84-.43h.07c1.36-.6,2.58-.89,3.73-.89,1.7,0,3.41,.48,4.95,1.38,.25,.14,.49,.3,.72,.46,.55,.38,1.07,.82,1.54,1.3,.53,.53,1,1.12,1.42,1.74l.04,.06c.1,.16,.2,.32,.29,.48,.04,.07,.09,.14,.13,.21h0c.79,1.47,1.23,3.06,1.27,4.68h0c0,.08,0,.16,0,.24,0,1.45-.52,3.27-1.85,6.18,.08-.04,.15-.09,.23-.12h0c.88-.46,1.79-.69,2.73-.69,1.41,0,2.75,.51,3.76,1.43,.42,.38,.76,.81,1.03,1.28,.24,.41,.42,.85,.54,1.3,.38,1.4,.2,2.97-.59,4.37Z"/><path class="d" d="M163.51,70.85c0,.26-.02,.52-.05,.77-.04,.25-.09,.51-.16,.75-.04,.13-.08,.25-.12,.37-.03,.07-.05,.14-.09,.21-.03,.07-.06,.13-.1,.2,0,.01,0,.02-.01,.03-.02,.04-.03,.08-.05,.12-.08,.17-.18,.33-.28,.49-.1,.16-.21,.32-.33,.49-.1,.15-.2,.3-.31,.46-.16,.22-.32,.46-.49,.7-.05,.08-.11,.16-.17,.24-.92,1.27-2.03,2.72-3.11,4.14-.19,.24-.38,.49-.56,.73h0c-.57,.76-1.13,1.5-1.57,2.1h-.01c-.35,.49-.63,.89-.79,1.14l-.06,.09c-.13,.18-.26,.36-.4,.52-.05,.05-.09,.1-.14,.15l-.11,.11s-.09,.08-.13,.12c-.32,.29-.68,.53-1.07,.73-.09,.05-.19,.09-.29,.13-.25,.11-.51,.2-.78,.26h0c-.2,.05-.41,.1-.62,.13-.16,.02-.34,.04-.51,.05-.11,0-.22,0-.34,0-2.52,0-6.17-1.48-7.92-3.95-.14-.2-.27-.42-.39-.63-.04-.07-.08-.14-.11-.22-.02-.05-.05-.09-.07-.14-.05-.11-.1-.22-.14-.33-.04-.1-.07-.2-.11-.29-.07-.21-.12-.42-.16-.63-.02-.07-.03-.13-.04-.2,0-.01,0-.02,0-.03-.01-.07-.02-.13-.03-.2-.01-.1-.02-.2-.03-.3,0-.11-.01-.23-.01-.34,0-.59,.1-1.18,.3-1.75,.09-.27,.44-1.26,.92-2.58,.04-.12,.09-.24,.13-.37,.07-.18,.14-.38,.21-.58,.07-.2,.15-.4,.22-.6,.1-.27,.2-.54,.31-.81,.07-.2,.15-.4,.23-.6,.06-.16,.13-.32,.19-.48,.06-.16,.13-.33,.19-.49,.06-.16,.13-.32,.19-.48,.06-.16,.13-.32,.19-.47,.06-.16,.13-.31,.19-.47,.12-.27,.23-.54,.34-.81,.05-.13,.11-.26,.17-.39,.17-.38,.33-.74,.49-1.08,.11-.22,.21-.43,.31-.63l.03-.06c1.29-2.39,3.69-3.76,6.58-3.76,2.28,0,4.79,.92,6.77,2.33,1.28,.91,2.34,2.02,2.98,3.22,.5,.93,.74,1.91,.74,2.87Z"/><path class="e" d="M157,70.04c-1.7,2.66-6.25,8.25-7.39,10.05-.19,.29-.57,.47-1.14,.47-1.99,0-5.69-1.9-5.02-3.79,.28-.85,2.65-7.58,4.07-10.33,.67-1.23,1.8-1.71,3.13-1.71,3.32,0,7.68,3.32,6.35,5.31Z"/><path class="g" d="M163.51,70.85c0,.26-.02,.52-.05,.77-.04,.25-.09,.51-.16,.75-.04,.13-.08,.25-.12,.37-.03,.07-.05,.14-.09,.21-.03,.07-.06,.13-.1,.2,0,.01,0,.02-.01,.03-.02,.04-.04,.07-.05,.11-.08,.17-.18,.34-.28,.5-.1,.16-.21,.32-.32,.49-.1,.15-.2,.3-.31,.46-.16,.22-.32,.46-.49,.7-.05,.08-.11,.16-.17,.24-.92,1.27-2.03,2.72-3.11,4.14-.19,.24-.38,.49-.56,.73h0c-.57,.76-1.13,1.5-1.57,2.1h-.01c-.35,.49-.63,.89-.79,1.14l-.06,.09c-.13,.18-.26,.36-.4,.52-.05,.05-.09,.1-.14,.15l-.11,.11s-.09,.08-.13,.12c-.32,.29-.68,.53-1.07,.73-.09,.05-.19,.09-.29,.13-.05,.03-.1,.05-.15,.07,.6,1.05,.88,2.21,.79,3.39-.04,.45-.13,.9-.26,1.35-.17,.54-.42,1.07-.72,1.56l-.02,.04s-.02,.03-.03,.05c0,0,0,0,0,.01-1.25,2.04-2.85,5.24-4.8,9.54-.05,.11-.1,.23-.15,.34-.17,.37-.34,.75-.51,1.14-.01,.03-.02,.05-.03,.07,0,0,0,.01,0,.02-.64,1.45-1.33,3.03-2.03,4.69-.03,.07-.06,.14-.09,.22h0c-.61,1.46-1.26,3-1.93,4.64-.34,.83-.69,1.7-1.05,2.59h0c-.34,.84-.69,1.7-1.04,2.58-2.72,6.87-5.85,14.04-10.33,19.84-2.71,3.51-5.69,6.2-8.93,8.08-1.67,.97-3.42,1.72-5.22,2.24-2.13,.62-4.34,.93-6.64,.93-2.74,0-5.98-.29-10.3-.93-.79-.11-1.61-.24-2.48-.38-.67-.11-1.34-.22-2.02-.34h0c-.09-.02-.18-.03-.26-.05-1.89-.33-3.79-.67-5.81-1.04-2.37-.43-4.83-.87-7.26-1.28-.56-.09-1.13-.19-1.7-.28-.19-.03-.38-.06-.57-.09-4.17-.66-7.53-1.07-10.55-1.3-1.7-.13-3.32-.19-4.83-.19-8.34,0-14.22,1.82-17.96,5.56-1.02,1.17-2.41,1.86-3.88,1.92h0c-.08,0-.15,0-.23,0-.99,0-1.94-.31-2.74-.91l-.52-.38-1.07-.79v-.76c-.28-.57-.49-1.21-.65-1.95-.31-1.42-.36-2.97-.36-3.77,0-4.45,1.35-8.11,3.58-11.02,3.36-4.37,8.7-7.06,14.42-8.19,.99-.2,2-.34,3.01-.45,1.16-.12,2.31-.18,3.46-.18,.97,0,1.98,.03,3.02,.1h0c1.76,.11,3.62,.32,5.64,.62,1.75,.27,3.63,.61,5.67,1.05h0c1.73,.37,3.58,.8,5.56,1.3,.56,.14,1.12,.29,1.68,.43,.22,.05,.43,.11,.65,.17,2.55,.67,5.08,1.38,7.53,2.06,1.96,.55,3.81,1.07,5.61,1.55,.75,.2,1.48,.4,2.19,.58,3.19,.82,7.79,1.91,10.88,1.91,1.03,0,1.61-.12,1.81-.16,.79-.2,2.54-1.01,5.16-4.22,.77-.94,1.62-2.1,2.54-3.5,.57-.87,1.16-1.83,1.78-2.9,1.65-2.84,3.08-5.76,4.17-8.15,.35-.78,.67-1.49,.95-2.13,0,0,.14-.31,.18-.41,.74-1.7,1.57-3.72,2.44-5.87,.33-.81,.67-1.64,1.02-2.48l.05-.11,.03-.07h0l.14-.33c.22-.52,.44-1.05,.65-1.59l.3-.73,.02-.02c.67-1.59,1.21-2.86,1.74-4.05,.59-1.32,1.15-2.55,1.69-3.68h0c.96-2.02,1.86-3.75,2.72-5.23,.02-.03,.03-.05,.05-.08,.38-.67,.71-1.2,1.02-1.68,.32-.5,.71-.97,1.16-1.38,.7-.63,1.77-1.35,3.3-1.71-.04-.07-.08-.14-.11-.22-.02-.05-.05-.09-.07-.14-.05-.11-.1-.22-.14-.33-.04-.1-.07-.2-.11-.29-.07-.21-.12-.42-.16-.63-.02-.07-.03-.13-.04-.2,0-.01,0-.02,0-.03-.01-.07-.02-.13-.03-.2-.01-.1-.02-.2-.03-.3,0-.11-.01-.23-.01-.34,0-.59,.1-1.18,.3-1.75,.09-.27,.44-1.26,.92-2.58,.04-.12,.09-.24,.13-.37,.07-.18,.14-.38,.21-.58,.07-.2,.15-.4,.22-.6,.05-.13,.1-.27,.15-.41,.05-.13,.1-.27,.16-.4,.07-.2,.15-.4,.23-.6,.06-.16,.13-.32,.19-.48,.06-.16,.13-.33,.19-.49,.06-.16,.13-.32,.19-.48,.06-.16,.13-.32,.19-.47,.06-.16,.13-.31,.19-.47,.12-.27,.23-.54,.34-.81,.05-.13,.11-.26,.17-.39,.17-.38,.33-.74,.49-1.08,.11-.22,.21-.43,.31-.63l.03-.06c1.29-2.39,3.69-3.76,6.58-3.76,2.28,0,4.79,.92,6.77,2.33,1.28,.91,2.34,2.02,2.98,3.22,.5,.93,.74,1.91,.74,2.87Z"/><path class="e" d="M146.25,85.04h0c-1.19-.93-2.98-1.45-4.03-1.45-1.1,0-2.03,.29-2.71,.9-.2,.18-.37,.38-.52,.62-.32,.51-.65,1.04-.97,1.6-1.44,2.49-2.86,5.46-4.23,8.54-.69,1.54-1.35,3.11-2,4.66,0,0,0,.02-.01,.02h0c-.29,.72-.58,1.42-.87,2.12-1.28,3.11-2.46,6.05-3.5,8.44-.06,.13-.11,.26-.17,.38-1.07,2.46-2.96,6.58-5.33,10.68-3.31,5.69-7.56,11.34-11.92,12.45-.76,.19-1.7,.28-2.75,.28-3.12,0-7.22-.84-11.86-2.03-.73-.19-1.47-.38-2.22-.59-4.12-1.1-8.6-2.41-13.13-3.6-.76-.2-1.52-.4-2.28-.59-3.66-.92-7.33-1.73-10.87-2.27-2.8-.43-5.51-.68-8.07-.68-9.66,0-20.56,4.74-20.56,15.92,0,.51,.03,1.84,.27,2.94,.15,.69,.38,1.3,.74,1.55h0c.12,.09,.26,.14,.42,.14,.38,0,.85-.19,1.23-.66,5.4-5.5,13.46-6.83,20.85-6.83,1.66,0,3.37,.07,5.12,.2,3.52,.26,7.19,.75,10.88,1.33,.77,.12,1.54,.25,2.31,.38,4.46,.75,8.91,1.61,13.1,2.33,.76,.13,1.5,.26,2.24,.38,4.52,.74,8.68,1.26,12.14,1.26,15.36,0,22.65-16.4,27.49-28.62,1.22-3.05,2.65-6.58,4.15-10.11,.69-1.63,1.4-3.26,2.1-4.84,2.06-4.62,4.1-8.87,5.78-11.59,.14-.22,.24-.44,.31-.65,.33-1.06-.22-1.95-1.1-2.63Z"/><path class="e" d="M150.65,64.73c-1.33,0-2.46,.47-3.13,1.71-1.42,2.75-3.79,9.48-4.07,10.33-.67,1.9,3.03,3.79,5.02,3.79,.57,0,.95-.19,1.14-.47,1.14-1.8,5.69-7.39,7.39-10.05,1.33-1.99-3.03-5.31-6.35-5.31Z"/><path class="g" d="M187.44,101.28c-.09-.34-.21-.68-.36-1.01-.91-1.89-2.81-3.06-4.97-3.06-.58,0-1.12,.09-1.61,.23,.35-1.02,.58-2.09,.67-3.18,.05-.61,.06-1.23,.02-1.84h0c-.04-.79-.16-1.59-.36-2.37-1.39-5.49-6.16-8.77-12.75-8.77-1.57,0-3.14,.28-4.71,.83-1.02,.35-2.03,.82-3.04,1.4h0c-1.98,1.14-3.91,2.7-5.78,4.67-.28,.3-.56,.61-.83,.91-.29,.33-.57,.66-.83,.99-2.69,3.3-4.94,7.26-6.33,11.14-.13,.36-.26,.75-.4,1.18-.65,2.06-1.03,3.97-1.11,5.71h0c-.01,.27-.02,.52-.02,.78,0,2.38,.42,4.59,1.23,6.54h0c.27,.65,.58,1.27,.93,1.86,.26,.43,.54,.85,.85,1.25,.93,1.21,2.04,2.23,3.32,3.05,0,0,0,0,.01,0,1.28,.83,2.74,1.45,4.37,1.88,.53,.14,1.08,.26,1.65,.36,.25,.04,.49,.08,.74,.12,1.1,.15,2.28,.23,3.51,.23,.78,0,1.58-.06,2.37-.18,.61-.09,1.22-.22,1.83-.38,.34-.09,.69-.2,1.04-.31,.99-.33,1.98-.75,2.98-1.26,.51-.26,1.01-.54,1.52-.85,1.43-.86,2.87-1.92,4.35-3.18,.34-.29,.67-.58,1.01-.89,.27-.25,.54-.5,.82-.76l.05-.05c.42-.4,.84-.81,1.26-1.24,.87-.89,1.76-1.84,2.66-2.86,.07-.07,.14-.15,.21-.23l.09-.11c.57-.65,1.15-1.33,1.75-2.06,.82-.99,1.68-2.07,2.63-3.29,0,0,.01-.01,.02-.02,1.23-1.55,1.66-3.47,1.21-5.2Zm-22.45,8.57c-.22,.04-.42,.05-.6,.05-.2,0-.38,0-.56-.03-.79-.09-1.03-.15-1.03-1.08,0-1.97,.81-4.62,2.23-7.28l.15-.29c.25-.47,.53-.94,.83-1.4,.02,.1,.04,.2,.07,.3,.67,2.47,3.51,4.56,6.25,4.62-.24,.24-.49,.48-.73,.72-2.76,2.66-4.93,4.09-6.61,4.38Z"/><path class="g" d="M203.92,94.54h0s-.24-.11-.83-.12c-.48,.07-3.42,1.36-3.42,5.09,0,1.5,.85,2.68,1.97,3.53,2.4-4.09,2.86-7.74,2.29-8.5Zm21.04,5.75c-.55-1.15-1.45-2.03-2.55-2.55h0c-.73-.35-1.54-.54-2.39-.54-.56,0-1.12,.08-1.66,.24-.13,.04-.26,.08-.38,.13,.02-.46,.04-.92,.03-1.36-.04-2.78-.67-5.36-1.9-7.57-.65-1.16-1.73-2.66-3.46-4-.43-.33-.89-.65-1.4-.96-2.3-1.37-5.46-2.4-9.79-2.4-6.13,0-12.04,2.63-16.94,7.38-1.17,1.13-2.28,2.38-3.32,3.75h0c-.56,.74-1.1,1.51-1.62,2.31-1.26,1.94-2.31,3.97-3.14,6.05-.27,.68-.51,1.35-.71,2.02h0c-.41,1.31-.7,2.58-.87,3.79l-.04,.28h0c-.08,.71-.13,1.39-.13,2.04,0,.26,0,.54,.02,.79h0s0,.04,0,.05c.02,.56,.07,1.12,.15,1.67h0l.04,.3c.25,1.69,.74,3.26,1.45,4.66,.13,.25,.26,.5,.4,.74,.4,.69,.85,1.32,1.33,1.89,.35,.42,.72,.81,1.12,1.17,.6,.55,1.24,1.05,1.93,1.48,2.28,1.43,5.1,2.26,8.42,2.47,.57,.04,1.15,.05,1.75,.05,.16,0,.31,0,.47,0,5.98-.13,11.86-2.71,16.72-7.32,3.08-.32,5.76-1.23,8.18-2.78,.61-.39,1.19-.81,1.77-1.28,.42-.34,.84-.71,1.25-1.1,1.68-1.6,3.13-3.43,4.43-5.18,.02-.02,.04-.05,.05-.07,1.43-1.84,1.74-4.19,.79-6.15Z"/><path class="g" d="M259.32,136.85c0,6.31-4.97,13.02-14.19,13.02-8.32,0-15.3-3.94-19.3-10.7-.07,.02-.13,.05-.19,.07-1.14,.43-2.28,.87-3.43,1.33-1.15,.45-2.31,.92-3.5,1.41-.64,.26-1.28,.52-1.93,.79-11.42,4.66-23.23,9.48-35.15,9.48-1.21,0-2.42-.08-3.61-.23-1.15-.14-2.28-.36-3.36-.64-2.22-.57-4.3-1.42-6.16-2.5-2.41-1.4-4.45-3.19-6-5.3-1.35-1.84-2.31-3.91-2.87-6.14-.38-1.49-.57-3.09-.57-4.74,0-.96,.07-2.67,.46-4.19v-.11l.12-.34,.11-.31c1.19-3.35,3.86-3.61,4.65-3.61,1.08,0,2.1,.34,3.05,1h0c.24,.17,.47,.36,.71,.58,0,0,.01,0,.02,.01,.08,.07,.15,.14,.23,.22l.1,.1c.21,.22,.42,.43,.64,.63,2.51,2.35,5.86,3.8,10.19,4.41,.68,.1,1.37,.18,2.07,.23,.96,.07,2.01,.11,3.1,.11,2.24,0,4.61-.13,7.03-.39,6.97-.73,14.12-2.42,21.03-4.05,3.2-.76,6.47-1.53,9.74-2.21,0-3.79,.61-7.94,1.83-12.36,.34-1.24,.85-2.66,1.48-4.24h0l.31-.74c.77-1.83,1.71-3.84,2.88-6.14,.38-.74,.77-1.5,1.19-2.28-.65,.85-1.34,1.75-2.04,2.67-1.43,1.84-2.62,3.36-3.76,4.77-.02,.02-.04,.05-.05,.07l-.08,.1c-1.64,1.91-3.45,2.31-4.68,2.31-1.72,0-3.32-.75-4.4-1.99-.34-.4-.63-.84-.86-1.32-.41-.88-.56-1.82-.48-2.75,.1-1.12,.55-2.22,1.34-3.14l.05-.06c.92-1.04,1.89-2.16,2.99-3.45,.4-.47,.81-.96,1.25-1.48,.19-.23,.38-.46,.57-.69-1.79-1.88-2.82-4.51-3.23-6.42-.41-1.64-.08-3.32,.9-4.61,.96-1.26,2.47-2.01,4.04-2.01,.33,0,.62,.04,.87,.09h.05l.13,.04c.08,.02,.15,.04,.22,.07,.45,.04,1.79,.12,5.29,.16,.85,.01,1.72,.02,2.62,.02h.07c.18,0,.37,0,.56,0h.06c4.08,0,8.47-.05,10.82-.08,.96-.01,1.63-.02,1.88-.02,2.46,0,6.69,1.4,8.41,4.52,1.08,1.97,.99,4.25-.26,6.23-2.13,3.42-8.81,17.35-10.89,25.6-.41,1.66-.7,3.31-.85,4.89,.15,0,.31,0,.46,0,5.52,0,10.18,1.46,13.48,4.21,3.1,2.58,4.88,6.28,4.88,10.13Z"/><path class="e" d="M217.65,99.51c-.66,0-1.42,.38-2.08,1.14-.67,.66-1.23,1.42-2.94,3.32-.28,.3-.58,.58-.9,.85-1.08,.89-2.35,1.54-3.74,1.9,6.25-10.14,5.49-23.13-8.91-23.13-8.02,0-14.59,5.48-18.59,11.66-1.15,1.76-2.08,3.58-2.78,5.35-.68,1.72-1.14,3.39-1.34,4.9h0c-.09,.63-.13,1.22-.13,1.78,0,.22,0,.45,.02,.69,.02,.49,.07,1.01,.15,1.55h0c.17,1.14,.49,2.34,1.07,3.49,.32,.64,.72,1.27,1.22,1.85,1.83,2.16,4.96,3.79,10.24,3.79,.12,0,.24,0,.36,0,5.83-.12,11.09-3.02,15.08-7.2,4.61-.18,7.63-1.73,10.24-4.21,1.41-1.34,2.71-2.96,4.07-4.79,1.14-1.43,.29-2.94-1.04-2.94Zm-25.97,12.7c-4.74,0-5.5-3.22-5.5-5.02,0-2.66,.95-5.59,2.37-8.44,.47,5.78,3.88,9.57,8.34,11.47-1.71,1.23-3.51,1.99-5.21,1.99Zm8.91-5.78c-3.98-1.23-7.21-4.36-7.21-8.53,0-5.97,4.84-9,7.3-9,7.87,0,5.31,10.61-.09,17.53Z"/><path class="e" d="M238.6,124.82c-1.52,0-3.03,.09-4.46,.19-.19-3.13,.19-6.54,1.04-9.95,2.18-8.62,9.01-22.93,11.38-26.73,1.8-2.84-2.84-4.74-4.84-4.74-.85,0-7.01,.1-12.7,.1-.23,0-.46,0-.69,0-.91,0-1.81,0-2.66-.02-3.22-.04-5.8-.13-6.22-.27-.09,0-.19-.09-.29-.09-.76,0-1.42,.76-1.14,1.8,.38,1.8,1.9,5.78,4.64,5.78h1.14c-1.16,1.41-2.5,3.03-3.93,4.75-1.37,1.63-2.83,3.35-4.31,5.02-1.05,1.23,0,2.75,1.42,2.75,.57,0,1.14-.28,1.7-.94,1.29-1.61,2.56-3.23,3.76-4.78,1.64-2.13,3.14-4.12,4.38-5.75,.31-.4,.59-.78,.86-1.13,.52,0,1.07,0,1.64-.01,2.1-.03,4.44-.11,6.61-.18-1.86,3.1-4.08,7-6.04,10.84-1.03,2.02-1.98,4.01-2.76,5.88h0c-.69,1.64-1.25,3.17-1.63,4.51-1.52,5.5-1.99,10.33-1.52,14.5-11.33,2.11-22.84,5.76-34.45,6.98-2.48,.27-4.96,.42-7.45,.42-1.16,0-2.3-.04-3.41-.13-.78-.06-1.55-.15-2.3-.26-5.15-.73-9.7-2.61-13.12-6.23l-.02-.02c-.47-.47-.85-.66-1.23-.66-.45,0-.75,.42-.96,1.01h0c-.42,1.17-.46,3-.46,3.63,0,1.35,.16,2.62,.45,3.79,.45,1.8,1.22,3.39,2.24,4.78,2.87,3.93,7.71,6.22,12.86,6.87,1.03,.13,2.07,.2,3.11,.2,14.21,0,28.98-7.62,42.62-12.74,1.07-.4,2.12-.79,3.17-1.15,.13-.05,.25-.09,.38-.13,3.03,7.68,9.66,11.66,17.34,11.66,13.75,0,14.98-19.53-4.17-19.53Zm4.83,11.94c-4.36,0-7.11-2.66-8.44-6.73,2.28-.38,4.45-.66,6.63-.66,8.06,0,6.83,7.39,1.8,7.39Z"/><path class="e" d="M179.74,99.51c-.65,0-1.3,.36-2.04,1.09l-.05,.05c-.46,.51-.92,1.01-1.37,1.52-1.45,1.59-2.9,3.14-4.34,4.52-2.92,2.8-5.81,4.92-8.67,5.42-.42,.07-.83,.11-1.25,.11-.34,0-.67-.02-.97-.05-3.87-.41-4.53-3.3-4.53-4.97,0-2.85,1.09-6.13,2.69-9.12h0c.41-.79,.87-1.55,1.34-2.28,2.54-3.92,5.76-6.9,8.01-6.9,3.5,0,1.7,6.25-.76,7.86-1.14,.67,.85,2.47,2.28,2.47,.29,0,.57-.1,.76-.19,5.78-3.13,6.54-15.45-5.12-15.45-3.79,0-7.53,2.33-10.68,5.67-.51,.54-1,1.1-1.48,1.69-2.48,3.05-4.48,6.65-5.69,10.02-.13,.34-.24,.68-.34,1.01-.61,1.92-.95,3.74-.95,5.3,0,4.17,1.61,11.37,12.7,11.37,.6,0,1.19-.05,1.78-.14,.75-.11,1.49-.29,2.22-.54,3.2-1.06,6.27-3.28,9.22-6.08l.02-.02c1.27-1.21,2.52-2.53,3.74-3.92,.05-.05,.09-.1,.14-.16h0c1.51-1.72,2.98-3.54,4.39-5.36,1.14-1.43,.38-2.94-1.04-2.94Z"/><path class="e" d="M91.22,99.51c-.67,0-1.33,.38-2.09,1.14-.03,.04-.06,.07-.09,.1-2.38,2.64-4.74,5.23-7.09,7.28-.63,.55-1.26,1.06-1.88,1.52-.78,.58-1.56,1.08-2.33,1.48-1.42,.74-2.84,1.17-4.24,1.17-1.31,0-2.31-.25-3.08-.64-2.02-1.03-2.42-3.08-2.42-4.38,0-1.61,.38-3.41,.95-5.12,1.23,.28,2.56,.38,3.88,.38,2.58,0,5.16-.49,7.35-1.51,3.61-1.67,6.2-4.77,6.2-9.48,0-2.92-1.43-5.8-4.78-7.12-1.21-.48-2.67-.75-4.41-.75-9.76,0-19.15,15.45-19.15,23.7,0,3.67,1.25,9.68,9.09,11.07,1.07,.19,2.27,.3,3.61,.3,2.39,0,4.72-.74,6.99-2.01,.77-.43,1.54-.91,2.29-1.45,.64-.46,1.28-.96,1.92-1.49,1.38-1.15,2.73-2.45,4.05-3.84,2.17-2.29,4.26-4.85,6.26-7.42,1.14-1.43,.38-2.94-1.04-2.94Zm-11.18-10.61c.36,0,.67,.07,.93,.19,.75,.35,1.06,1.17,1.06,2.08,0,1.76-.61,3.14-1.61,4.18h0c-1.78,1.86-4.8,2.64-7.78,2.64-.66,0-1.23,0-1.9-.09,2.66-4.93,6.63-9,9.29-9Z"/><path class="e" d="M134.13,99.92c-.28-.25-.66-.4-1.11-.4-.39,0-.78,.13-1.2,.4-.01,0-.02,.01-.04,.02h0c-.27,.18-.55,.42-.85,.72-.43,.47-.85,.94-1.28,1.41-2.19,2.41-4.3,4.71-6.11,6.51-2.2,2.19-3.93,3.64-4.75,3.64-.38,0-.57-.19-.57-.66,0-1.08,2.23-5.14,4.56-9.49,.38-.71,.76-1.43,1.14-2.15,2.14-4.06,4.06-8.01,4.06-9.69,0-1.26-.41-2.48-1.08-3.52-.61-.93-1.44-1.72-2.38-2.27-.91-.53-1.93-.84-2.98-.84-.77,0-1.74,.32-2.85,.89h0c-1.06,.54-2.25,1.32-3.51,2.26h0c-6,4.46-13.67,12.69-17.51,18.19,2.08-5.78,4.86-11.76,6.53-14.91,.38-.72,.71-1.29,.96-1.68,.39-.61,.48-1.19,.36-1.7-.44-1.87-3.63-3.03-5.19-3.03-.95,0-1.8,.47-2.46,1.52-1.14,1.77-3.62,5.69-6.03,10.13-.97,1.79-1.93,3.66-2.78,5.51-1.53,3.31-2.72,6.56-3.04,9.12-.06,.45-.09,.89-.09,1.3,0,1.35,.53,2.54,1.34,3.56,1.52,1.91,4.03,3.22,5.9,3.8,.15,.05,.29,.09,.43,.13,.95,0,1.33-.29,1.42-1.23,.04-.25,.16-.6,.36-1.04,2.58-5.61,17.83-25.49,21.44-25.49,1.67,0-.85,4.27-3.56,9.03-.4,.71-.81,1.43-1.21,2.15-1.94,3.49-3.67,6.94-3.67,8.92,0,4.93,7.3,7.68,9.38,7.68,.29,0,.62-.09,1.01-.27h0c1.97-.9,5.16-3.97,8.64-7.89,2.18-2.46,4.47-5.24,6.66-8.05,.1-.13,.19-.25,.26-.38,.48-.85,.33-1.68-.2-2.15Z"/><circle class="f" cx="105.89" cy="165.41" r="5.5"/><circle class="f" cx="150.68" cy="165.41" r="5.5"/></g></g></svg>