<?xml version="1.0" encoding="UTF-8"?><svg xmlns="http://www.w3.org/2000/svg" viewBox="0 0 257.16 201.55"><defs><style>.d{fill:#d2222d;}.e{fill:#fff;}.f{fill:#ffd500;}.g{fill:#fede00;}</style></defs><g id="a"/><g id="b"><g id="c"><path class="e" d="M217.99,138.22c-.36,.86-.73,1.72-1.11,2.57,1.17-.48,2.33-.94,3.47-1.39,.34-.82,.67-1.64,.99-2.47-1.1,.42-2.21,.85-3.34,1.3Zm-4.8,9.94c-16.74,30.27-49.01,50.81-85.98,50.81-34.42,0-64.76-17.8-82.29-44.68-.87,.28-1.77,.45-2.68,.5-.05,0-.1,0-.14,0,3.93,6.17,8.56,11.95,13.86,17.24,19.04,19.03,44.34,29.51,71.26,29.51s52.23-10.48,71.26-29.51c7.58-7.58,13.8-16.15,18.54-25.43-1.27,.52-2.54,1.04-3.82,1.55Zm-14.72-118.65C179.44,10.48,154.13,0,127.21,0S74.99,10.48,55.95,29.51c-4.66,4.66-8.8,9.69-12.4,15.02,.65,.07,1.31,.16,1.99,.27,.31,.05,.61,.1,.91,.16C64.19,19.37,93.78,2.57,127.21,2.57c45.29,0,83.51,30.81,94.81,72.57,.5,.02,1.34,.05,2.71,.08-4.45-17.14-13.41-32.85-26.26-45.71ZM38.19,142.21c.15,.69,.38,1.29,.73,1.54-.25-.51-.49-1.02-.73-1.54Z"/><g><path class="e" d="M59.47,160.58l2.88-2.43-3.57,.58-.42-.5,1.13-3.36-2.82,2.38-.88-1.04,4.81-4.05,.77,.92-1.47,4.31,4.48-.74,.77,.91-4.79,4.06-.88-1.04Z"/><path class="e" d="M65.52,164.93l-2.07-2.06-1.34,.56-1.06-1.05,6.41-2.48,1.02,1.01-2.43,6.44-1.08-1.08,.55-1.35Zm.45-1.11l.99-2.41-2.4,1,1.41,1.4Z"/><path class="e" d="M70.88,163.2l1.1,.95-3.33,3.86,2.39,2.06-.77,.9-3.49-3.01,4.1-4.76Z"/><path class="e" d="M75.7,173.61l-.7,.93-3.89-2.93,3.78-5.02,3.79,2.86-.7,.93-2.64-1.99-.82,1.09,2.33,1.75-.68,.9-2.33-1.75-.88,1.16,2.73,2.06Z"/><path class="e" d="M80.07,171.81l-1.68-1.1,.65-.99,4.58,2.99-.65,.99-1.68-1.1-2.79,4.27-1.22-.79,2.79-4.27Z"/><path class="e" d="M85.08,179.2l-2.55-1.42-1.14,.9-1.3-.73,5.51-4.12,1.25,.7-.62,6.85-1.33-.74,.17-1.45Zm.14-1.19l.31-2.59-2.04,1.61,1.74,.97Z"/><path class="e" d="M87.72,181.96c-.36-.32-.63-.63-.79-.95l.91-.78c.16,.29,.38,.57,.67,.84,.29,.26,.6,.48,.93,.63,.37,.17,.68,.25,.91,.22,.23-.03,.39-.13,.48-.32,.06-.14,.06-.27,0-.41s-.17-.27-.31-.41-.34-.3-.59-.49c-.39-.31-.69-.57-.92-.81-.23-.23-.39-.51-.48-.83-.09-.32-.05-.67,.13-1.05,.15-.33,.38-.59,.69-.77,.3-.19,.67-.27,1.11-.26,.43,.01,.91,.14,1.43,.38,.36,.17,.7,.38,1,.63,.31,.25,.55,.51,.74,.8l-.87,.81c-.39-.54-.84-.94-1.37-1.18-.37-.17-.67-.24-.9-.2s-.39,.15-.48,.35c-.09,.2-.06,.39,.1,.58,.16,.19,.43,.43,.8,.72,.39,.31,.69,.57,.92,.81,.23,.23,.39,.51,.48,.82,.09,.32,.05,.66-.12,1.04-.15,.33-.38,.58-.69,.76-.31,.18-.68,.27-1.12,.26s-.92-.14-1.44-.38c-.45-.21-.86-.47-1.22-.79Z"/><path class="e" d="M95.64,183.63c-.13-.28-.14-.57-.02-.88s.31-.52,.59-.64,.57-.13,.86-.03c.29,.11,.5,.3,.63,.58,.13,.28,.14,.57,.03,.87s-.31,.52-.59,.65-.57,.14-.86,.03c-.29-.11-.5-.3-.63-.58Z"/><path class="e" d="M106.74,186.06c.13,.31,.14,.65,.04,1.03-.15,.53-.46,.88-.95,1.06-.49,.17-1.13,.15-1.92-.06l-3.13-.86,1.66-6.06,2.96,.81c.74,.2,1.27,.5,1.59,.89,.32,.39,.41,.83,.28,1.31-.08,.29-.22,.54-.43,.73s-.45,.32-.74,.38c.32,.21,.54,.46,.66,.77Zm-1.77,.98c.22-.07,.37-.23,.44-.49,.14-.5-.17-.86-.91-1.06l-1.64-.45-.41,1.5,1.64,.45c.37,.1,.66,.12,.89,.05Zm-1.44-4.44l-.39,1.43,1.39,.38c.35,.09,.62,.11,.84,.03,.21-.07,.35-.23,.42-.46,.06-.24,.02-.44-.12-.61-.15-.17-.39-.3-.74-.39l-1.39-.38Z"/><path class="e" d="M109.06,188.99c-.46-.37-.8-.83-1-1.37s-.25-1.11-.14-1.72c.11-.61,.36-1.12,.74-1.56,.38-.43,.85-.74,1.42-.92s1.17-.21,1.81-.09c.64,.12,1.19,.36,1.65,.73s.79,.83,1,1.37c.2,.54,.25,1.11,.14,1.72-.11,.61-.36,1.12-.74,1.56-.38,.43-.86,.74-1.42,.92-.56,.18-1.17,.21-1.81,.1-.64-.12-1.19-.36-1.66-.73Zm2.92-.55c.33-.11,.6-.3,.82-.57,.22-.27,.37-.59,.44-.98,.07-.38,.05-.74-.06-1.07-.11-.33-.3-.61-.56-.83-.26-.22-.58-.37-.94-.43-.37-.07-.71-.04-1.04,.07s-.6,.3-.82,.57c-.22,.27-.37,.59-.44,.98-.07,.38-.05,.74,.06,1.07,.11,.33,.3,.61,.56,.83,.26,.22,.58,.37,.94,.43s.71,.04,1.04-.07Z"/><path class="e" d="M116.19,184.14l1.45,.16-.54,5.07,3.13,.33-.13,1.18-4.58-.49,.67-6.25Z"/><path class="e" d="M121.76,190.87c-.46-.15-.82-.35-1.09-.57l.54-1.07c.26,.21,.57,.38,.94,.52,.37,.14,.73,.21,1.1,.23,.41,.02,.72-.03,.92-.14s.31-.27,.32-.48c0-.15-.05-.28-.16-.38s-.26-.19-.44-.26-.42-.14-.73-.23c-.47-.13-.86-.26-1.16-.39-.3-.13-.55-.32-.76-.58-.21-.26-.3-.6-.28-1.02,.02-.37,.13-.69,.34-.98,.21-.29,.52-.51,.92-.67,.4-.16,.89-.22,1.47-.2,.4,.02,.79,.08,1.17,.19s.71,.26,.99,.46l-.5,1.08c-.57-.35-1.14-.54-1.72-.57-.41-.02-.71,.04-.91,.16-.2,.12-.3,.29-.31,.51s.1,.38,.32,.49,.56,.23,1.01,.35c.47,.13,.86,.26,1.16,.39s.55,.32,.76,.57c.21,.25,.3,.59,.28,1.01-.02,.36-.13,.68-.34,.97-.21,.29-.52,.51-.93,.67-.41,.16-.9,.22-1.47,.2-.5-.02-.97-.11-1.43-.26Z"/><path class="e" d="M128.43,190.81c-.53-.26-.95-.64-1.27-1.12-.31-.48-.48-1.03-.5-1.65-.02-.62,.11-1.17,.39-1.68,.28-.5,.68-.9,1.19-1.2,.51-.3,1.1-.46,1.75-.48s1.24,.1,1.77,.36c.53,.26,.95,.64,1.27,1.12s.48,1.03,.5,1.65c.02,.62-.11,1.18-.39,1.68-.28,.5-.68,.9-1.19,1.2s-1.09,.46-1.74,.48c-.65,.02-1.24-.1-1.78-.36Zm2.73-1.16c.29-.18,.52-.43,.68-.74s.23-.66,.22-1.05c-.01-.39-.11-.73-.29-1.03-.18-.3-.42-.53-.73-.69s-.64-.24-1.01-.22c-.37,.01-.7,.11-1,.29-.29,.18-.52,.42-.68,.74s-.23,.66-.22,1.05c.01,.39,.11,.73,.29,1.03,.18,.3,.42,.53,.73,.69,.3,.16,.64,.24,1.01,.22,.37-.01,.7-.11,1-.29Z"/><path class="e" d="M135.63,190.64c-.48-.08-.87-.22-1.17-.4l.37-1.14c.29,.17,.62,.29,1.01,.37,.38,.08,.76,.1,1.13,.06,.41-.04,.71-.14,.89-.28,.18-.14,.26-.32,.24-.52-.02-.15-.09-.27-.21-.35-.13-.08-.28-.15-.47-.19s-.44-.08-.76-.12c-.49-.06-.89-.13-1.21-.21-.32-.08-.6-.23-.84-.46-.24-.23-.39-.55-.44-.96-.04-.36,.02-.7,.19-1.02,.16-.32,.43-.58,.81-.8,.38-.22,.85-.35,1.42-.42,.4-.04,.79-.04,1.18,.01,.39,.05,.74,.15,1.04,.3l-.33,1.15c-.61-.26-1.21-.37-1.78-.3-.4,.04-.7,.14-.88,.29-.18,.15-.26,.33-.23,.55,.02,.21,.15,.36,.39,.44,.23,.08,.59,.14,1.06,.2,.49,.06,.89,.13,1.21,.21,.32,.08,.6,.23,.84,.45,.24,.22,.39,.54,.43,.96,.04,.36-.03,.69-.19,1.01-.17,.32-.44,.58-.82,.8-.38,.22-.85,.36-1.43,.42-.49,.05-.98,.04-1.45-.04Z"/><path class="e" d="M143.28,187.96c-.26-.17-.41-.42-.48-.74s0-.6,.17-.85c.17-.25,.41-.41,.72-.47,.31-.06,.59,0,.84,.17,.26,.17,.41,.41,.47,.73s0,.6-.17,.86-.41,.41-.72,.47c-.31,.06-.59,0-.84-.17Z"/><path class="e" d="M155.03,186.78l-1.08-3.61-.89,3.5-.63,.19-2.62-2.38,1.05,3.54-1.31,.39-1.79-6.02,1.15-.34,3.36,3.07,1.11-4.4,1.14-.34,1.8,6.02-1.31,.39Z"/><path class="e" d="M159.19,184.97c-.59-.06-1.12-.27-1.57-.62-.46-.35-.8-.81-1.03-1.38-.23-.57-.3-1.14-.21-1.71,.09-.57,.33-1.08,.71-1.54,.38-.46,.87-.81,1.48-1.05,.6-.24,1.2-.33,1.79-.27s1.11,.27,1.57,.62c.46,.35,.81,.81,1.04,1.38,.23,.57,.3,1.14,.21,1.71-.09,.57-.33,1.08-.71,1.54-.38,.46-.87,.8-1.47,1.05-.6,.24-1.2,.33-1.79,.27Zm2.17-2.03c.21-.27,.34-.58,.39-.92,.04-.35,0-.7-.15-1.06-.15-.36-.35-.65-.63-.87-.27-.22-.58-.35-.92-.4-.34-.05-.68,0-1.03,.14s-.62,.34-.84,.61c-.21,.27-.34,.58-.39,.92-.04,.35,0,.7,.15,1.06,.15,.36,.35,.65,.63,.87,.27,.22,.58,.35,.92,.4,.34,.05,.68,0,1.03-.14s.62-.34,.84-.61Z"/><path class="e" d="M169,180.91l-1.87-1.02-.06,.03-1.13,.57,.79,1.56-1.3,.65-2.82-5.62,2.43-1.22c.5-.25,.97-.38,1.42-.4,.45-.02,.85,.08,1.2,.28,.35,.21,.63,.52,.84,.93s.29,.83,.24,1.23c-.05,.4-.22,.78-.51,1.12l2.17,1.17-1.4,.7Zm-2.49-4.14c-.29-.07-.63,0-1.02,.19l-1.06,.53,.98,1.96,1.06-.53c.39-.2,.64-.43,.76-.7,.12-.27,.1-.56-.06-.88-.16-.32-.38-.51-.67-.57Z"/><path class="e" d="M174.98,177.48l-1.94-.88-.06,.04-1.08,.65,.9,1.5-1.25,.75-3.24-5.38,2.33-1.4c.48-.29,.94-.46,1.39-.51,.45-.05,.85,.01,1.22,.19s.67,.47,.91,.87c.24,.4,.35,.8,.33,1.21-.02,.41-.16,.79-.42,1.16l2.25,1-1.34,.81Zm-2.8-3.94c-.29-.04-.62,.05-1,.27l-1.02,.61,1.13,1.88,1.02-.61c.37-.23,.61-.48,.71-.76,.1-.28,.05-.57-.12-.87-.18-.3-.42-.48-.71-.52Z"/><path class="e" d="M180.04,172.41l-2.37,1.69,.33,1.42-1.21,.87-1.37-6.74,1.17-.83,5.94,3.48-1.24,.89-1.24-.77Zm-1.01-.63l-2.21-1.38,.59,2.54,1.62-1.16Z"/><path class="e" d="M179.24,166.83l1.12-.93,3.25,3.93,2.43-2.01,.76,.91-3.55,2.93-4-4.84Z"/><path class="e" d="M190.31,163.84l.8,.85-3.54,3.34-4.31-4.57,3.45-3.26,.8,.85-2.4,2.27,.94,.99,2.12-2,.78,.82-2.12,2,1,1.06,2.49-2.35Z"/><path class="e" d="M192.47,163.12c-.41,.25-.79,.4-1.14,.46l-.47-1.11c.33-.06,.66-.19,1-.38,.34-.19,.64-.42,.89-.7,.28-.3,.44-.57,.49-.8,.04-.23,0-.41-.16-.55-.11-.1-.24-.14-.39-.12-.15,.02-.31,.07-.48,.17-.17,.09-.38,.23-.65,.41-.41,.27-.76,.49-1.05,.63-.29,.15-.6,.21-.94,.21-.33-.01-.65-.16-.96-.44-.27-.25-.44-.54-.53-.89-.08-.35-.05-.72,.09-1.13s.41-.83,.8-1.25c.27-.29,.57-.55,.9-.77,.33-.22,.66-.37,.99-.46l.51,1.08c-.64,.2-1.15,.52-1.54,.94-.28,.3-.43,.56-.47,.8-.04,.23,.03,.42,.18,.57s.35,.17,.58,.08c.23-.09,.54-.28,.93-.54,.41-.27,.76-.48,1.05-.63,.29-.15,.6-.22,.93-.21,.33,0,.65,.15,.95,.44,.26,.24,.44,.54,.52,.89,.08,.35,.05,.73-.09,1.14-.15,.41-.41,.83-.8,1.25-.34,.36-.71,.67-1.13,.92Z"/></g><g><path class="e" d="M74.07,35.52l-2.46-2.85,.62,3.56-.5,.43-3.37-1.1,2.4,2.8-1.04,.89-4.09-4.77,.91-.78,4.33,1.43-.79-4.47,.91-.78,4.11,4.75-1.03,.89Z"/><path class="e" d="M78.78,30.32l-2.37,1.69,.33,1.42-1.21,.87-1.37-6.74,1.17-.83,5.94,3.48-1.24,.89-1.24-.77Zm-1.01-.63l-2.21-1.38,.59,2.54,1.62-1.16Z"/><path class="e" d="M78.48,24.59l1.24-.76,2.66,4.35,2.69-1.64,.62,1.01-3.93,2.4-3.27-5.36Z"/><path class="e" d="M90.08,23.92l.54,1.03-4.31,2.25-2.91-5.57,4.21-2.2,.54,1.03-2.93,1.53,.63,1.21,2.59-1.35,.52,1-2.59,1.35,.67,1.29,3.03-1.58Z"/><path class="e" d="M90.73,19.33l-1.84,.81-.48-1.08,5.01-2.2,.48,1.08-1.84,.81,2.05,4.67-1.33,.58-2.05-4.67Z"/><path class="e" d="M99.71,19.81l-2.75,.99-.07,1.46-1.4,.5,.51-6.86,1.35-.48,4.77,4.96-1.44,.51-.98-1.08Zm-.8-.88l-1.75-1.93-.13,2.6,1.88-.67Z"/><path class="e" d="M103.22,20.01c-.48,0-.89-.07-1.22-.21l.18-1.19c.31,.12,.66,.19,1.05,.2,.39,.02,.76-.03,1.12-.12,.4-.11,.68-.25,.83-.42,.16-.17,.21-.35,.15-.55-.04-.14-.13-.25-.27-.31-.14-.06-.3-.1-.5-.11-.19,0-.45,0-.77,0-.49,.02-.9,.01-1.22-.01-.32-.03-.63-.13-.9-.32s-.47-.48-.58-.88c-.1-.35-.09-.7,.02-1.04,.11-.34,.34-.64,.67-.92,.34-.27,.78-.49,1.34-.64,.39-.11,.78-.17,1.17-.18,.39-.01,.75,.03,1.08,.13l-.14,1.18c-.65-.16-1.25-.17-1.81-.01-.39,.11-.66,.25-.82,.43-.15,.18-.2,.37-.14,.58,.06,.21,.21,.33,.45,.37s.6,.05,1.07,.02c.49-.02,.9-.01,1.22,.01,.32,.03,.62,.13,.9,.31s.47,.47,.58,.87c.1,.35,.09,.69-.03,1.03-.11,.34-.34,.65-.68,.92-.34,.27-.79,.49-1.34,.64-.48,.13-.96,.2-1.44,.19Z"/><path class="e" d="M110.29,16.61c-.26-.17-.41-.42-.47-.74-.06-.32,0-.6,.17-.85,.17-.25,.41-.41,.72-.47,.31-.06,.59,0,.84,.17,.25,.17,.41,.41,.47,.73,.06,.32,0,.6-.17,.86-.17,.26-.41,.41-.72,.47s-.59,0-.84-.17Z"/><path class="e" d="M121.23,14.11c.23,.25,.36,.56,.4,.95,.05,.55-.12,.99-.51,1.33-.4,.34-1,.55-1.82,.63l-3.23,.32-.62-6.25,3.05-.31c.76-.08,1.36,.01,1.8,.26,.44,.25,.68,.63,.73,1.13,.03,.3-.02,.58-.14,.83s-.31,.46-.56,.62c.37,.08,.67,.24,.9,.48Zm-4.24-2.08l.15,1.47,1.44-.14c.36-.04,.62-.12,.79-.27,.17-.14,.25-.34,.22-.58s-.14-.42-.33-.52c-.2-.1-.47-.14-.83-.1l-1.44,.14Zm2.94,3.63c.18-.14,.26-.35,.23-.61-.05-.52-.46-.74-1.23-.66l-1.69,.17,.15,1.54,1.69-.17c.38-.04,.66-.13,.84-.27Z"/><path class="e" d="M124.05,16.37c-.53-.27-.94-.65-1.25-1.14-.3-.49-.46-1.04-.47-1.66,0-.62,.13-1.17,.42-1.67s.69-.89,1.21-1.18c.52-.29,1.1-.44,1.76-.45,.65-.01,1.24,.12,1.77,.39,.52,.27,.94,.65,1.25,1.14,.31,.49,.47,1.04,.48,1.66,0,.62-.13,1.17-.42,1.67-.29,.5-.69,.89-1.21,1.18-.52,.29-1.1,.44-1.75,.45-.65,.01-1.24-.12-1.77-.39Zm2.75-1.12c.3-.18,.53-.42,.69-.73,.17-.31,.25-.66,.24-1.04,0-.39-.1-.73-.27-1.04-.18-.3-.41-.54-.72-.7-.3-.17-.64-.25-1.01-.24-.37,0-.7,.1-1,.27s-.53,.42-.69,.72-.25,.66-.24,1.04c0,.39,.1,.74,.27,1.04,.18,.3,.41,.54,.72,.7,.3,.17,.64,.25,1.01,.24s.7-.1,1-.27Z"/><path class="e" d="M130.6,10.41l1.45,.08-.3,5.09,3.15,.18-.07,1.18-4.6-.27,.37-6.27Z"/><path class="e" d="M136.13,17.01c-.44-.19-.79-.41-1.04-.66l.62-1.03c.24,.23,.54,.43,.9,.59s.71,.27,1.08,.31c.41,.05,.72,.03,.93-.07s.33-.25,.35-.45c.02-.15-.02-.28-.13-.39-.1-.11-.24-.21-.42-.29-.17-.08-.41-.18-.71-.29-.46-.17-.84-.33-1.13-.48-.29-.15-.53-.36-.71-.64-.19-.28-.25-.62-.2-1.04,.04-.36,.18-.68,.42-.95,.23-.27,.56-.47,.97-.59,.42-.12,.91-.15,1.48-.08,.4,.05,.78,.14,1.15,.29,.37,.14,.68,.32,.95,.53l-.58,1.04c-.54-.4-1.09-.63-1.67-.7-.4-.05-.71-.02-.92,.09-.21,.11-.33,.27-.35,.48s.07,.39,.28,.52c.21,.13,.54,.28,.98,.43,.46,.17,.84,.33,1.13,.48s.53,.36,.71,.63c.19,.27,.25,.61,.2,1.03-.04,.36-.18,.67-.42,.94-.24,.27-.56,.47-.98,.59-.42,.12-.91,.15-1.48,.08-.49-.06-.96-.19-1.4-.38Z"/><path class="e" d="M142.37,17.67c-.46-.38-.78-.84-.97-1.38-.19-.54-.23-1.12-.1-1.72,.12-.6,.38-1.12,.77-1.54,.39-.42,.87-.72,1.44-.89,.57-.17,1.17-.19,1.81-.06,.64,.13,1.19,.38,1.64,.76,.45,.38,.78,.84,.97,1.38,.19,.54,.23,1.12,.11,1.72-.12,.6-.38,1.12-.77,1.54-.39,.42-.87,.72-1.44,.89-.57,.17-1.17,.19-1.81,.06s-1.19-.38-1.64-.76Zm2.93-.5c.33-.11,.6-.29,.83-.56,.23-.26,.38-.59,.46-.97,.08-.38,.06-.74-.04-1.07-.11-.33-.29-.61-.55-.84s-.57-.38-.93-.45c-.36-.07-.71-.06-1.04,.05-.33,.11-.6,.29-.83,.56-.23,.27-.38,.59-.46,.97-.08,.38-.06,.74,.04,1.07s.29,.61,.55,.84,.57,.38,.93,.45c.36,.07,.71,.06,1.04-.05Z"/><path class="e" d="M148.99,19.38c-.41-.26-.72-.53-.93-.81l.78-.92c.2,.26,.47,.5,.79,.72s.66,.38,1.02,.48c.4,.11,.71,.14,.93,.08s.36-.19,.42-.39c.04-.14,.02-.28-.07-.41s-.21-.24-.37-.35c-.16-.11-.38-.24-.66-.39-.43-.24-.77-.46-1.04-.65-.26-.19-.46-.44-.6-.74-.14-.3-.15-.65-.04-1.06,.1-.35,.29-.64,.56-.87,.27-.23,.62-.37,1.05-.43s.92,0,1.47,.15c.39,.11,.75,.26,1.09,.46,.34,.2,.63,.42,.85,.67l-.73,.94c-.47-.48-.98-.79-1.54-.95-.39-.11-.7-.13-.92-.06s-.36,.21-.42,.42c-.06,.21,0,.39,.19,.55s.49,.36,.9,.58c.43,.24,.77,.46,1.04,.65s.46,.44,.61,.73c.14,.3,.16,.64,.04,1.05-.1,.34-.29,.63-.56,.86-.27,.23-.63,.37-1.06,.43s-.93,0-1.48-.15c-.48-.14-.92-.33-1.33-.59Z"/><path class="e" d="M156.78,20.17c-.13-.28-.13-.57-.02-.88,.11-.3,.31-.52,.59-.64,.28-.12,.57-.13,.86-.02,.29,.11,.5,.3,.63,.58,.13,.28,.14,.57,.02,.87-.11,.3-.31,.52-.59,.64-.28,.13-.57,.14-.86,.03-.29-.11-.5-.31-.63-.59Z"/><path class="e" d="M166.44,26.3l1.66-3.38-3.03,1.96-.59-.29-.31-3.53-1.64,3.31-1.22-.61,2.79-5.63,1.08,.53,.38,4.54,3.81-2.47,1.07,.53-2.77,5.64-1.22-.61Z"/><path class="e" d="M170.1,28c-.3-.51-.44-1.06-.43-1.63,0-.58,.17-1.13,.5-1.65,.32-.52,.74-.92,1.25-1.18,.51-.26,1.06-.38,1.66-.34s1.17,.23,1.72,.57c.55,.34,.98,.77,1.27,1.29,.29,.51,.44,1.06,.43,1.64,0,.58-.17,1.13-.49,1.65-.32,.52-.74,.92-1.26,1.18-.51,.26-1.07,.38-1.66,.34-.59-.04-1.16-.22-1.72-.57-.55-.34-.98-.77-1.28-1.29Zm2.92,.55c.34,.01,.67-.07,.97-.24,.31-.17,.56-.42,.77-.75,.21-.33,.31-.67,.33-1.02,.02-.35-.06-.67-.22-.98-.17-.3-.4-.55-.72-.75s-.65-.3-.99-.31c-.34-.01-.67,.07-.97,.24-.31,.17-.56,.42-.77,.75s-.31,.67-.33,1.02c-.02,.35,.06,.67,.22,.98,.16,.3,.4,.55,.72,.75,.31,.2,.65,.3,.99,.31Z"/><path class="e" d="M178.33,33.94l.07-2.13-.06-.04-1.02-.75-1.04,1.41-1.17-.86,3.73-5.05,2.19,1.62c.45,.33,.78,.69,1,1.09,.22,.39,.32,.79,.29,1.2-.02,.41-.18,.8-.45,1.17s-.61,.63-.99,.77c-.38,.14-.79,.16-1.23,.06l-.07,2.46-1.26-.93Zm2.57-4.09c-.07-.29-.28-.56-.63-.82l-.95-.71-1.3,1.76,.95,.7c.35,.26,.67,.38,.97,.36,.3-.02,.55-.17,.75-.45,.21-.28,.28-.57,.21-.86Z"/><path class="e" d="M183.32,38.07l.23-2.12-.05-.05-.96-.83-1.15,1.32-1.1-.95,4.11-4.75,2.06,1.78c.42,.36,.73,.75,.91,1.16,.19,.41,.26,.81,.2,1.22-.06,.4-.24,.78-.54,1.13-.31,.35-.65,.58-1.04,.69-.39,.11-.8,.1-1.23-.04l-.26,2.45-1.18-1.02Zm2.87-3.88c-.05-.29-.24-.58-.57-.87l-.9-.77-1.43,1.66,.9,.77c.33,.29,.64,.43,.94,.43s.56-.12,.79-.39c.23-.27,.32-.55,.27-.84Z"/><path class="e" d="M189.03,41.73l-2.05-2.07-1.35,.55-1.05-1.06,6.44-2.42,1.01,1.02-2.49,6.41-1.07-1.08,.57-1.34Zm.46-1.1l1.01-2.4-2.41,.98,1.4,1.42Z"/><path class="e" d="M194.63,40.5l.95,1.1-3.87,3.32,2.05,2.39-.9,.77-3-3.5,4.77-4.09Z"/><path class="e" d="M197.14,51.85l-.93,.7-2.91-3.9,5.03-3.76,2.84,3.8-.93,.7-1.98-2.65-1.09,.82,1.75,2.34-.91,.68-1.75-2.34-1.16,.87,2.05,2.74Z"/><path class="e" d="M197.2,53.89c-.14-.46-.19-.87-.17-1.22l1.19-.18c-.02,.33,.02,.69,.12,1.07,.1,.38,.25,.72,.45,1.03,.22,.35,.44,.57,.65,.67,.21,.1,.4,.09,.57-.02,.13-.08,.2-.2,.22-.35,.02-.15,0-.32-.04-.51-.05-.19-.13-.43-.24-.73-.16-.46-.28-.85-.35-1.17-.07-.32-.06-.64,.03-.96,.09-.32,.31-.59,.67-.82,.31-.2,.64-.29,.99-.29,.36,0,.71,.13,1.08,.37s.7,.6,1.01,1.08c.22,.34,.39,.69,.52,1.07,.13,.37,.19,.73,.2,1.07l-1.17,.22c-.04-.67-.22-1.24-.53-1.73-.22-.34-.44-.56-.66-.65-.22-.09-.41-.08-.6,.04-.18,.12-.25,.3-.22,.54,.03,.25,.13,.59,.3,1.03,.16,.46,.28,.85,.35,1.17,.07,.32,.06,.64-.03,.95-.09,.32-.31,.59-.66,.82-.3,.2-.63,.29-.99,.28-.36,0-.72-.13-1.08-.38s-.7-.61-1.01-1.09c-.27-.42-.47-.86-.61-1.32Z"/></g><g><path class="f" d="M80.93,83.64c-.24,1.57-.45,3.14-.63,4.71-.23,2.07-.41,4.13-.54,6.21h0c-.12,1.84-.19,3.69-.24,5.54,3.58-1.66,6.15-4.73,6.15-9.41,0-2.9-1.42-5.75-4.74-7.06Zm60.1-.75c-1.1,0-2.02,.28-2.68,.89,.79,.01,1.58,.02,2.37,.03,1.48,.02,2.92,.2,4.31,.51-1.18-.92-2.96-1.44-4-1.44Zm8.37-18.7c-1.32,0-2.44,.47-3.1,1.69-1.41,2.73-3.76,9.4-4.04,10.24-.66,1.88,3.01,3.76,4.98,3.76,.56,0,.94-.19,1.13-.47,1.13-1.79,5.64-7.33,7.33-9.97,1.32-1.97-3.01-5.26-6.3-5.26Zm1.08,21.57c-.12,.13-.24,.26-.37,.4,.13,.07,.26,.14,.4,.21,0-.2,0-.4-.03-.61Zm12.34-8.61c.03,.15,.08,.3,.12,.45,.14-.19,.28-.37,.4-.56-.17,.03-.35,.07-.52,.11Zm6.63-9.73c-1.74-5.06-4-9.86-7.32-14.1-5.5-7.02-12.67-10.73-21.65-10.74-8.92-.02-17.84,0-26.77,0-3.12,0-6.16,.49-9.1,1.53-5.81,2.06-10.21,5.91-13.67,10.9-3.24,4.67-5.38,9.86-7,15.27-.66,2.21-1.24,4.44-1.74,6.68,1.39,.21,2.7,.56,3.93,1.04,2.53,.99,4.66,2.56,6.26,4.52,.17-.26,.33-.51,.48-.75,2-3.16,5.36-5.06,8.97-5.06,3.14,0,7.53,1.42,10.31,4.49l1.85-1.38h.15c.82-.54,1.6-.99,2.37-1.38l1.67-.86h.25c1.55-.59,3.02-.88,4.46-.88,2.37,0,4.75,.66,6.87,1.9,1.44,.83,2.75,1.94,3.85,3.24,.01-.02,.03-.04,.04-.06,.49-.77,1.09-1.49,1.79-2.13,.42-.38,.86-.72,1.33-1.03-.06-1.17,.11-2.35,.51-3.48,.26-.77,2.72-7.86,4.47-11.24l.06-.12c1.76-3.27,4.97-5.35,8.73-5.71-3.41-3-7.43-4.6-12.06-4.66-7.55-.08-15.1-.09-22.65,0-5.75,.07-10.46,2.5-14.2,6.83-3.44,4-5.52,8.7-7,13.7-.44,1.5-.8,3.01-1.24,4.67-.76-.17-1.34-.31-2.05-.47,.18-.85,.33-1.63,.52-2.4,1.16-4.59,2.83-8.97,5.34-13.02,1.64-2.65,3.59-5.03,6.03-6.99,3.64-2.94,7.81-4.5,12.47-4.54,7.65-.07,15.3-.1,22.96,0,6.01,.08,10.99,2.57,15.01,6.94,4.59,.67,9.17,3.63,11.19,7.41,1.71,3.19,1.59,6.83-.3,9.72-.34,.52-.75,1.12-1.2,1.75,1.11-.22,2.23-.33,3.35-.33,1.95,0,3.8,.25,5.5,.72-.71-3.38-1.6-6.73-2.73-10.02Zm-8.03-.02c-.64-1.19-1.69-2.29-2.96-3.19,.38,.45,.7,.92,.96,1.41,.56,1.04,.82,2.14,.78,3.21,.49,1.22,.93,2.47,1.34,3.73,.01,.03,.02,.07,.03,.1h0s.04-.07,.05-.11c0,0,.01-.02,.01-.03,.03-.07,.07-.14,.1-.2,.03-.07,.06-.14,.09-.21,.04-.12,.09-.24,.12-.37,.07-.24,.13-.49,.16-.75,.03-.25,.05-.51,.05-.77,0-.95-.24-1.93-.74-2.85Zm-2.32,4.65c-1.02,1.55-2.64,3.66-4.21,5.72-1.17,1.53-2.49,3.25-2.9,3.92l-.05,.09c-.52,.78-1.23,1.39-2.07,1.8,.21,.43,.37,.87,.48,1.32,.03,.14,.06,.28,.08,.41,.03,.15,.05,.3,.06,.45,.18-.19,.36-.39,.55-.57h0c1.21-1.25,2.46-2.33,3.75-3.23h.01c.44-.61,.99-1.34,1.56-2.09h0c.18-.24,.37-.49,.56-.73,1.08-1.41,2.17-2.85,3.09-4.1-.27-1-.57-1.99-.9-2.97Zm-30.58,10.37c.35,.41,.67,.84,.96,1.29h.57c-.47-.48-.98-.91-1.53-1.29Zm-7.97,.46c-.77,0-1.73,.31-2.83,.88,1.93-.02,3.85-.03,5.78-.04-.9-.53-1.92-.83-2.95-.83Zm-12.95-.46c.21,.28,.4,.57,.57,.88,.2,.37,.37,.75,.49,1.14,.28-.07,.56-.13,.84-.19,.02-.02,.05-.04,.07-.06-.55-.7-1.23-1.29-1.98-1.77Zm-8.1,.46c-.94,0-1.79,.47-2.44,1.51-.47,.72-1.16,1.81-1.98,3.15-.94,1.54-2.06,3.41-3.19,5.44-.05,1.27-.26,2.48-.61,3.63,.47-.13,.99-.21,1.54-.21,.5,0,1,.07,1.47,.19,.09-.19,.17-.38,.27-.57,.49-.99,1.05-1.94,1.7-2.87,.37-.52,.76-1.04,1.19-1.54,2.1-2.49,4.5-4.4,7.19-5.7-.44-1.86-3.6-3.01-5.15-3.01Zm-7.65,34.46c.19,.07,.37,.13,.55,.19v-.73c-.18,.19-.37,.37-.55,.55Zm.42,4.59l-.54-.14c-.63-.17-1.26-.38-1.89-.63,.95,.56,1.85,.97,2.56,1.25v-.48h-.13Zm-2.08-35.86c-.75-1.2-1.74-2.24-2.93-3.09,1.06,1.27,1.79,2.73,2.23,4.27,.09,.31,.16,.61,.22,.92,.29-.49,.57-.97,.86-1.45-.12-.23-.24-.44-.38-.66Zm2.08,35.86l-.54-.14c-.63-.17-1.26-.38-1.89-.63,.95,.56,1.85,.97,2.56,1.25v-.48h-.13Zm-8.92-5.33c-.64,.51-1.3,1-1.96,1.45-.66,.45-1.33,.88-2.01,1.26v.68c0,.55,0,1.1,0,1.64,.66-.28,1.31-.6,1.96-.97,.08-.04,.16-.09,.23-.13,.34-.19,.68-.4,1.03-.62,.46-.29,.93-.6,1.4-.94,.33-.23,.66-.48,.98-.73-.59-.51-1.14-1.06-1.63-1.65Zm78.59,4.64v.2c.12-.03,.25-.06,.38-.1-.12-.04-.25-.07-.38-.1Zm12.57,10.92c-.15-.02-.29-.05-.44-.07-.34-.06-.68-.12-1.01-.19-.24-.05-.47-.1-.7-.16-.38-.09-.75-.18-1.12-.28-.19-.05-.37-.11-.56-.16-.22-.07-.43-.14-.65-.21-.16-.05-.33-.11-.49-.17-.16-.06-.32-.12-.49-.18-.18-.07-.36-.14-.54-.22-.16-.07-.32-.14-.49-.21-.14-.06-.29-.13-.43-.2-.41-.19-.81-.4-1.2-.62-.1-.05-.21-.11-.31-.18-.12-.07-.23-.13-.34-.2-.17-.1-.35-.21-.51-.32-.17-.11-.34-.23-.5-.34-.17-.12-.34-.24-.5-.37-.15-.11-.3-.23-.45-.35-.02-.02-.05-.03-.07-.05-.31-.26-.62-.52-.92-.8-.09-.09-.19-.17-.28-.26-.19-.18-.38-.37-.57-.57v.91c0,3.84,0,7.68,.02,11.52,2.85,3.9,7.65,6.17,12.76,6.81,.15-.92,.23-1.88,.23-2.85,0-3.41,0-6.81,0-10.21-.15-.02-.29-.04-.44-.07Zm-.54-15.5c-.4-.46-.77-.97-1.11-1.51-1.6,1.43-3.23,2.69-4.93,3.73-.55,.33-1.11,.65-1.67,.94h0c-1.28,.66-2.59,1.18-3.94,1.54,.76,.24,1.48,.65,2.16,1.23,.34-.09,.69-.19,1.03-.31,.98-.33,1.97-.74,2.95-1.25,.5-.26,1.01-.54,1.51-.85,1.42-.85,2.85-1.91,4.31-3.16-.1-.12-.21-.24-.31-.36Zm-7.91,7.43c.23,.2,.46,.38,.7,.57-.23-.21-.46-.4-.7-.57Zm-86.68,2.92c0,3.78,.02,7.57,.02,11.35,4.43,.75,8.83,1.59,12.99,2.31,0-3.36,0-6.72,0-10.09-4.09-1.1-8.52-2.39-13.02-3.57Zm20.13-44.11c-.94,0-1.79,.47-2.44,1.51-.47,.72-1.16,1.81-1.98,3.15-.94,1.54-2.06,3.41-3.19,5.44-.27,.48-.54,.97-.81,1.46-.96,1.77-1.91,3.63-2.76,5.47-.19,.21-.38,.43-.58,.64-.19,.21-.38,.42-.57,.63-.38,.42-.77,.84-1.15,1.25-1.58,1.71-3.16,3.32-4.73,4.69-.36,.32-.73,.63-1.1,.92-.1,.08-.2,.16-.3,.24-.16,.12-.31,.24-.47,.35-.02,1.86-.03,3.73-.04,5.6,.19-.14,.37-.27,.56-.41,.45-.34,.9-.7,1.34-1.06,.21-.17,.41-.35,.62-.53,.21-.18,.41-.36,.62-.55,.41-.37,.81-.75,1.21-1.14,.53-.51,1.05-1.04,1.57-1.59-.06,.45-.09,.88-.09,1.29,0,1.34,.52,2.52,1.33,3.53,.09,.12,.19,.23,.3,.35,.09,.1,.17,.19,.27,.29,.09,.09,.19,.19,.28,.28,.07,.07,.13,.12,.2,.19,.15,.14,.31,.27,.47,.39,.07,.05,.13,.11,.2,.16,.09,.07,.18,.14,.27,.2,.06,.04,.12,.09,.18,.12,.13,.09,.26,.17,.39,.26,.35,.23,.7,.43,1.06,.61,.12,.06,.24,.12,.36,.18,.1,.05,.21,.1,.31,.14,.05,.02,.11,.05,.16,.07,.16,.07,.32,.14,.48,.2,.13,.05,.25,.1,.38,.14,.19,.07,.37,.13,.55,.19v-.73c0-1.9,0-3.8-.01-5.7,0-1.25,0-2.5,0-3.75,0-.43,0-.87,0-1.31-.01-3.39,.6-6.56,1.92-9.46,.09-.19,.17-.38,.27-.57,.49-.99,1.05-1.94,1.7-2.87,.37-.52,.76-1.04,1.19-1.54,2.1-2.49,4.5-4.4,7.19-5.7-.44-1.86-3.6-3.01-5.15-3.01Zm21.05,0c-.77,0-1.73,.31-2.83,.88,1.93-.02,3.85-.03,5.78-.04-.9-.53-1.92-.83-2.95-.83Zm-27.29,62.25c-2.35-.39-4.78-.83-7.25-1.28-2.19-.4-4.4-.8-6.61-1.18v.34c0,.16,0,.32,0,.48,.56,.09,1.12,.18,1.68,.28,2.41,.41,4.85,.85,7.2,1.27,2,.37,3.89,.71,5.76,1.03,.09,.02,.17,.03,.26,.04-.4-.26-.76-.6-1.05-.98Zm5.51,1.7c4.28,.64,7.5,.92,10.21,.92,2.28,0,4.47-.31,6.58-.92h-16.79Zm72.17,6.65c-.23-.07-.45-.14-.68-.21-.32-.11-.64-.22-.96-.34-.23-.08-.45-.17-.68-.26-.23-.09-.47-.19-.69-.29-.19-.08-.38-.16-.56-.25-.09-.04-.17-.08-.26-.12-.18-.08-.36-.17-.53-.26-.23-.11-.45-.23-.66-.34-.26-.14-.52-.29-.78-.43-.25-.15-.5-.3-.75-.46-.04-.02-.08-.05-.12-.07-.21-.13-.42-.27-.63-.41-.09-.05-.17-.11-.25-.17-.19-.13-.38-.26-.57-.4-.03-.02-.07-.05-.1-.07-.22-.16-.43-.32-.64-.49-.04-.03-.08-.06-.11-.09-.19-.15-.38-.31-.57-.47-.05-.03-.09-.07-.14-.11-.21-.19-.42-.37-.62-.57-.19-.18-.38-.37-.57-.55-.07-.07-.13-.14-.2-.21-.17-.17-.33-.35-.49-.52h0c-.48,.23-1.03,.4-1.64,.46-.24,.03-.49,.05-.75,.04-9.93-.1-19.87-.03-29.81-.03h-2.68c-4.67,3.2-9.87,4.81-15.54,4.81-3.43,0-7.53-.42-13.29-1.36-.77-.13-1.54-.26-2.31-.39-1.86-.32-3.74-.66-5.74-1.03l-.09-.02c-2.33-.42-4.73-.86-7.1-1.26-.13-.02-.26-.04-.38-.06,.43,1.43,1.07,2.81,1.91,4.1,3.49,5.37,8.47,8.17,14.9,8.19,10.09,.03,20.17,0,30.26,0s19.98,.02,29.97-.02c1.61,0,3.26-.15,4.81-.54,3.13-.79,5.84-2.37,7.97-4.49,.41-.4,.79-.82,1.15-1.27-.03,0-.06-.02-.09-.03Zm-3.85-5.87c1.85,1.07,3.91,1.91,6.11,2.48,.1-.22,.21-.44,.3-.67-2.22-.34-4.39-.95-6.42-1.81Z"/><path class="f" d="M142.74,40.31h-4.17c-.09-.26-.18-.43-.22-.62-.53-2.54-2.19-4.1-4.54-4.87-4.42-1.43-8.89-1.44-13.3-.01-2.72,.88-3.85,2.28-4.73,5.42-1.3,.06-2.64,.12-4.19,.19,.06-.65,.05-1.24,.18-1.8,.69-3.09,2.46-5.4,5.22-6.95,2.02-1.14,4.23-1.72,6.51-1.95,3.39-.34,6.79-.33,10.12,.51,1.83,.46,3.56,1.17,5.07,2.34,2.52,1.94,3.82,4.5,4.06,7.74Z"/><path class="f" d="M125.86,85.98c-3.69,0-7.38,.01-11.07,.02-.19,0-.38,0-.56,0h0c-.19,.14-.37,.28-.56,.43-.19,.14-.38,.29-.57,.45-.78,.62-1.58,1.29-2.39,2-.19,.17-.37,.33-.56,.5-.52,.46-1.03,.93-1.55,1.42-.15,.14-.29,.28-.43,.41-.41,.38-.81,.78-1.22,1.18-.28,.27-.55,.54-.82,.82-.25,.26-.5,.51-.75,.77-.31,.31-.61,.63-.9,.94-.3,.31-.59,.63-.89,.94-.73,.8-1.45,1.59-2.13,2.37-.38,.44-.75,.87-1.11,1.3-.17,.2-.33,.4-.5,.6-.28,.34-.56,.68-.82,1.01-.13,.16-.26,.33-.39,.49-.13,.17-.26,.33-.38,.49h0c-.51,.67-.98,1.3-1.4,1.91,.41-1.13,.84-2.27,1.29-3.39,.64-1.61,1.31-3.2,1.97-4.68,.07-.17,.15-.34,.23-.5,.15-.35,.3-.68,.46-1.01,.07-.17,.15-.33,.23-.49,.17-.36,.33-.71,.49-1.06,.13-.28,.26-.56,.4-.82,.13-.27,.26-.54,.38-.79,.12-.25,.24-.5,.37-.73,.24-.47,.47-.9,.67-1.3-2.01,1.32-3.74,2.99-5.12,4.93-.75,1.06-1.4,2.2-1.93,3.41-.1,.23-.19,.45-.28,.68-.78,1.95-1.25,4.06-1.37,6.26h0c-.02,.37-.03,.75-.03,1.12,0,.94,0,1.88,0,2.82h0c0,2,0,3.99,0,5.98v.95c.17-.36,.38-.78,.65-1.25,.09-.17,.19-.34,.3-.52,.16-.27,.33-.55,.51-.84h0c.12-.19,.24-.39,.37-.59,.13-.2,.26-.41,.4-.62,.1-.16,.21-.31,.31-.48,.1-.16,.21-.33,.33-.49,.67-.99,1.41-2.07,2.22-3.18,.13-.18,.26-.36,.39-.54,.08-.11,.17-.23,.25-.35,.12-.17,.26-.35,.39-.53,.05-.07,.11-.15,.17-.23,.21-.28,.42-.56,.63-.84,.07-.09,.14-.19,.21-.28h0c1.15-1.52,2.35-3.06,3.56-4.53,.14-.17,.28-.35,.43-.52,1.81-2.2,3.61-4.24,5.21-5.87l.23-.23c.85-.85,1.63-1.57,2.33-2.13,.09-.07,.17-.14,.26-.2,.17-.13,.33-.25,.49-.36,.06-.04,.12-.08,.17-.12,.21-.14,.4-.25,.58-.34,.04-.02,.07-.04,.11-.05,.01,0,.02-.01,.03-.02,.05-.03,.1-.05,.15-.06,.08-.03,.16-.06,.24-.08,.05-.02,.11-.03,.16-.03,.06-.01,.12-.02,.17-.02,1.66,0-.84,4.23-3.53,8.95h10.59c2.12-4.03,4.03-7.94,4.03-9.61,0-1.25-.4-2.46-1.08-3.49Zm12.15,15.34c-.12-.02-.23-.03-.35-.03-1.51-.16-2.99-.05-4.46-.07-.07,0-.14,0-.21,0-1.06-.02-2.12-.02-3.18-.01-.4,0-.8,0-1.2,0h-17.5c-1.93,3.46-3.64,6.89-3.64,8.85,0,4.89,7.23,7.61,9.3,7.61,.02,0,.04,0,.07,0,.07,0,.14-.01,.21-.02,.04,0,.07-.02,.11-.02,.04,0,.08-.02,.12-.03,.08-.02,.16-.05,.24-.08,.08-.03,.17-.07,.26-.1h0c.1-.05,.2-.1,.31-.16,.05-.03,.1-.06,.16-.09,.05-.03,.11-.06,.17-.1,.09-.05,.19-.11,.28-.17,.18-.11,.36-.24,.55-.38,.1-.07,.19-.14,.29-.22,1.28-.97,2.81-2.42,4.47-4.16,.75-.79,1.54-1.65,2.33-2.54-.06,.13-.11,.26-.17,.38-1.06,2.44-2.93,6.53-5.29,10.59-.5,.87-1.03,1.74-1.58,2.59-.82,1.27-1.68,2.51-2.57,3.65-.15,.19-.3,.38-.45,.56-.15,.19-.3,.37-.45,.55-.13,.16-.26,.31-.4,.45-.08,.09-.16,.18-.24,.26-.16,.17-.32,.35-.48,.51-.16,.17-.32,.33-.49,.49-.13,.13-.26,.25-.38,.37-.12,.11-.23,.22-.35,.32-.24,.22-.49,.42-.73,.61-.07,.06-.15,.12-.22,.17-.18,.14-.36,.27-.54,.39-.07,.05-.14,.1-.21,.14-.21,.14-.42,.27-.63,.39-.07,.04-.15,.09-.22,.12-.1,.05-.19,.1-.3,.16-.12,.06-.24,.12-.36,.17-.18,.08-.37,.16-.55,.22-.08,.03-.17,.06-.26,.09-.14,.05-.28,.09-.42,.12-.75,.19-1.69,.28-2.73,.28-3.1,0-7.16-.84-11.76-2.02,0,3.29,0,6.59,0,9.88,4.49,.73,8.61,1.25,12.04,1.25,.23,0,.47,0,.7-.01,.18,0,.36-.02,.54-.03,.1,0,.2-.01,.3-.02,.14,0,.27-.02,.4-.03,.1,0,.19-.02,.29-.03,.05,0,.1,0,.15-.02,.1-.01,.21-.02,.31-.04,.23-.03,.45-.06,.67-.1,.19-.03,.38-.07,.56-.1,.14-.03,.28-.06,.42-.09,.14-.03,.28-.06,.42-.1,.14-.03,.28-.07,.41-.11,.12-.03,.24-.07,.37-.1,.17-.05,.35-.1,.52-.16,.37-.12,.73-.24,1.08-.38,.08-.03,.16-.06,.24-.1,.27-.11,.54-.22,.8-.35,.09-.04,.18-.09,.27-.13,.18-.09,.36-.17,.54-.27,.11-.05,.21-.11,.32-.17,.11-.06,.23-.12,.33-.19,.09-.05,.17-.09,.25-.14,.08-.05,.17-.1,.25-.15,.14-.08,.27-.16,.4-.25,.18-.11,.36-.23,.53-.35,.35-.24,.7-.48,1.03-.74,.17-.12,.34-.26,.5-.39,.66-.53,1.3-1.1,1.91-1.7,.16-.16,.31-.31,.47-.47,.19-.19,.37-.38,.56-.58,.25-.27,.5-.55,.75-.83,.24-.28,.49-.57,.72-.87,.12-.14,.23-.29,.35-.44,.19-.24,.37-.47,.55-.71,.18-.24,.36-.49,.54-.73,.17-.24,.35-.49,.52-.75,.17-.25,.34-.5,.51-.76,.49-.75,.96-1.51,1.42-2.29,.19-.33,.38-.66,.56-.99,.54-.97,1.06-1.96,1.56-2.96,.18-.37,.36-.74,.54-1.11,.14-.3,.28-.6,.42-.9l.02-.05c.16-.35,.32-.7,.48-1.06,.12-.26,.23-.51,.34-.77,.05-.11,.1-.23,.15-.34,.13-.29,.25-.58,.38-.87,.17-.4,.34-.8,.5-1.2,.5-1.19,.97-2.37,1.42-3.5,.34-.86,.7-1.76,1.08-2.68,.09-.23,.19-.46,.28-.7,.28-.7,.58-1.42,.88-2.15,.61-1.47,1.24-2.98,1.88-4.5,0-.81,0-1.63,0-2.56Zm21.6,25.41c-.03,.12-.06,.24-.09,.37-.02,.12-.05,.23-.07,.35-.02,.1-.03,.2-.05,.31h0c-.08,.54-.12,1.08-.13,1.51,0,.05,0,.1,0,.14,0,.24-.01,.43-.01,.57,0,1.34,.16,2.59,.45,3.76,0-2.24,0-4.48,0-6.71v-.64c-.04,.11-.07,.22-.1,.34Zm.1-15.5c0-1.44,0-2.89,0-4.33v-1.6c0-.28,0-.56-.02-.84h0c-.1-2.53-.7-4.95-1.8-7.2h0c-.23-.47-.48-.93-.75-1.39-.66-1.09-1.37-2.09-2.13-3-.85-1.01-1.76-1.9-2.73-2.68-.29,.35-.57,.71-.85,1.08,0,.01-.01,.02-.02,.03,0,0,0,.01,0,.02h0s0,.02-.02,.03c-.21,.29-.43,.59-.64,.89-.16,.23-.31,.45-.46,.68-.15,.23-.3,.46-.45,.69-.16,.26-.33,.53-.49,.8-.35,.59-.68,1.19-.99,1.79-.07,.13-.14,.26-.2,.4-.07,.15-.15,.3-.22,.44-.15,.3-.28,.59-.42,.89-.07,.15-.13,.3-.19,.44-.06,.13-.12,.27-.17,.4-.06,.14-.11,.27-.16,.4-.13,.32-.25,.64-.37,.96v1.01h-.34c-.07,.24-.15,.47-.21,.71-.02,.08-.05,.17-.07,.25-.02,.08-.05,.16-.07,.24,0,0,0,0,0,.01,0,.02-.01,.05-.02,.07-.03,.1-.05,.19-.07,.28-.01,.03-.02,.07-.03,.1-.03,.14-.07,.28-.1,.42-.05,.23-.09,.45-.13,.67-.03,.17-.06,.34-.09,.51,0,.01,0,.02,0,.03,0,.04-.01,.09-.02,.13-.03,.18-.05,.36-.06,.53,0,.05-.01,.1-.02,.16,0,.02,0,.05,0,.07-.02,.14-.02,.28-.03,.41v.02s0,.07,0,.11c0,.03,0,.07,0,.1,0,.14-.01,.29-.01,.43,0,.09,0,.18,0,.28,0,.09,0,.19,0,.29,0,.09,0,.19,.01,.29,0,.09,.01,.19,.02,.29,0,.06,0,.12,.02,.17,.01,.15,.03,.3,.04,.45,.02,.14,.03,.28,.06,.42,.02,.12,.03,.24,.06,.37,.02,.12,.04,.24,.07,.37,.02,.12,.05,.23,.08,.35,.03,.16,.07,.31,.12,.47,.04,.14,.08,.27,.12,.4,.12,.38,.26,.77,.43,1.14,.04,.08,.07,.16,.11,.24,.04,.08,.08,.17,.12,.25,.04,.08,.09,.17,.13,.25,.04,.08,.09,.16,.14,.24,.05,.09,.1,.17,.16,.26,.09,.15,.19,.3,.3,.44,.05,.07,.11,.15,.16,.22,.11,.14,.23,.29,.35,.43,.1,.12,.21,.23,.31,.34,.09,.09,.18,.18,.27,.27,.12,.11,.24,.22,.36,.32,.06,.05,.12,.11,.19,.16,.07,.05,.13,.1,.19,.15,.11,.08,.22,.16,.33,.24,.15,.1,.31,.21,.47,.31,.14,.09,.28,.17,.43,.25,.13,.07,.26,.14,.4,.21,.11,.05,.23,.11,.34,.16,.67,.3,1.41,.56,2.23,.76,.15,.03,.3,.07,.45,.1,.16,.03,.31,.06,.47,.09,.09,.02,.18,.03,.27,.04,.13,.02,.26,.04,.39,.06,.16,.02,.31,.04,.48,.06,.09,0,.18,.02,.27,.03,.16,.02,.33,.03,.49,.04,.2,.02,.41,.03,.62,.04,.12,0,.25,.01,.38,.02,.04,0,.08,0,.12,0,.2,0,.41,0,.61,0,.59,0,1.18-.05,1.77-.14,0-2.1,0-4.2,0-6.31Zm-18.53-2.96c-.02-.2-.04-.4-.05-.59h-.08c-.22,.53-.45,1.07-.68,1.62h0c-.11,.28-.23,.56-.34,.83h0c-.7,1.7-1.43,3.49-2.17,5.37-2.7,6.83-5.83,13.97-10.3,19.77-3.4,4.4-7.23,7.53-11.46,9.37h4.64c3.21-1.86,6.16-4.53,8.85-8.01,4.44-5.76,7.55-12.86,10.25-19.67,.35-.88,.7-1.73,1.03-2.56h0c.36-.89,.71-1.74,1.04-2.57-.37-1.15-.61-2.35-.73-3.55Zm15.61,13.65c-.66-.03-1.29-.08-1.9-.15-1.79-.21-3.39-.62-4.8-1.19,1.27,.82,2.71,1.44,4.33,1.87,.53,.14,1.08,.26,1.64,.36,.24,.04,.49,.08,.74,.12,.33-.41,.68-.73,1.05-.98-.36,0-.71,0-1.06-.02Zm-.92,19.14c-.14-.29-.26-.58-.38-.88-.39-.96-.71-1.94-.97-2.96-.45-1.8-.68-3.7-.68-5.65,0-1.2,.08-2.92,.45-4.61v-.32l.07-.21c-.52-.11-1.02-.24-1.51-.38-3.79-1.11-6.85-3.15-9.14-6.13-.2-.26-.39-.52-.57-.79-2.73,6.84-5.91,13.95-10.49,19.87-1.66,2.15-3.42,4.03-5.27,5.63,9.57,0,19.13,0,28.7,0h.83c.38,0,.71-.02,1-.07-.8-1.1-1.48-2.27-2.05-3.5Zm-41.46-19.44c-.79-.19-1.64-.46-2.5-.82,.75,.45,1.51,.83,2.27,1.16,.21,.09,.43,.17,.64,.26,.1-.14,.2-.29,.3-.44-.23-.04-.46-.09-.7-.15Zm-2.73,3.5c-2.71-1.3-5.36-3.25-7.19-5.84-.16,.28-.29,.52-.39,.72-.53,2.42-1.91,4.37-3.83,5.6-1.32,.84-2.89,1.34-4.63,1.43,4.28,1.1,8.05,1.88,10.7,1.88,.97,0,1.51-.1,1.69-.15,1.07-.27,2.55-1.32,4.31-3.33-.22-.09-.44-.19-.66-.3Zm-8.48-15.06c0-.07,0-.15,0-.22-2.66,3.69-4.38,6.45-4.79,7.45-.36,2.29-1.76,3.87-3.84,4.43v1.42h.57c2.84,.01,4.81-1.65,5.23-4.35,.02-.04,.04-.09,.07-.16,.56-1.22,1.77-3.15,3.32-5.37-.36-.98-.57-2.05-.57-3.2Zm36.38-24.06c-.9,0-1.81,0-2.71-.01-.16,.28-.33,.58-.49,.87-.08,.14-.16,.28-.23,.43-.03,.05-.06,.11-.09,.17-.04,.07-.08,.14-.12,.22-.13,.25-.26,.5-.4,.76-.09,.17-.18,.34-.26,.52-.18,.35-.35,.7-.53,1.06-.03,.07-.07,.14-.1,.21-.13,.26-.26,.53-.39,.8-.15,.31-.3,.63-.44,.95-.08,.16-.15,.33-.23,.5-.31,.66-.61,1.33-.91,2.01-.26,.59-.52,1.18-.78,1.78-.12,.28-.24,.56-.36,.83h0c-.28,.67-.56,1.34-.84,2.01h9.39c.24-.54,.48-1.07,.72-1.6,.24-.53,.48-1.04,.71-1.56,.03-.06,.06-.13,.09-.19,.25-.54,.5-1.07,.75-1.59,.56-1.17,1.11-2.27,1.63-3.28,.11-.21,.21-.41,.32-.61,.3-.56,.59-1.09,.87-1.59,.16-.27,.31-.54,.46-.78,.06-.1,.12-.2,.18-.3,.14-.22,.24-.44,.31-.65-2.01-.62-4.2-.93-6.54-.94Zm-7.82-.02c-.18,0-.36,0-.54,0h-.65c.09,.26,.18,.51,.25,.78,.1,.35,.17,.7,.23,1.05,.28-.55,.55-1.09,.83-1.61h0c.03-.07,.07-.14,.11-.21h-.23Zm-20.65,15.23c-1.93,3.46-3.64,6.89-3.64,8.85,0,4.89,7.23,7.61,9.3,7.61,.02,0,.04,0,.07,0,.07,0,.14-.01,.21-.02,.04,0,.07-.02,.11-.02,.04,0,.08-.02,.12-.03,.08-.02,.16-.05,.24-.08,.08-.03,.17-.07,.26-.1h0c1.43-2.56,2.93-5.58,4.49-9.15,.09-.19,.17-.39,.26-.59,1.79-1.79,3.89-4.07,6.06-6.45h-17.46Z"/></g><path class="g" d="M61.78,58.25c-4.12-4.14-10.02-6.94-17.07-8.07-1.07-.17-2.09-.29-3.08-.38-1.51-.14-3.07-.21-4.65-.21C13.32,49.59,1.9,62.94,.27,71.34c-.82,4.16,.26,8.55,2.88,11.74,2.13,2.59,5.08,4.08,8.07,4.08,1.88,0,3.57-.92,4.52-2.45,.86-1.39,.96-3.12,.27-4.48-.29-.58-.34-.96-.22-1.6v-.04c.54-3.03,4.03-9.9,11.27-13.42-.26,.32-.52,.67-.77,1.05l-.06,.1-.06,.1c-.63,1.11-15.53,27.4-20.83,41.51-1.86,4.88-1.55,9.51,.88,13.03,2.02,2.93,6.43,6.43,16,6.43,2.59,0,5.14-.18,7.61-.55,.57-.08,1.14-.17,1.7-.28,.3-.05,.59-.11,.88-.17,.64-.13,1.28-.28,1.89-.43,2.14-.53,4.15-1.18,6.02-1.94,3.21-1.3,6.02-2.9,8.4-4.69,1.76-1.32,3.3-2.75,4.6-4.24,1.17-1.32,2.15-2.69,2.95-4.08,.56-.96,1.02-1.93,1.4-2.89h0c.84-2.14,1.25-4.26,1.23-6.28,0-.53-.04-1.04-.1-1.55h0c-.08-.71-.21-1.39-.4-2.05-.45-1.6-1.18-3.07-2.19-4.38-.43-.56-.9-1.1-1.43-1.6,1.36-.68,2.62-1.45,3.76-2.27,3.12-2.26,5.43-4.99,6.97-7.9,1.65-3.11,2.43-6.43,2.4-9.6-.05-5.24-2.23-10.3-6.13-14.23ZM23.86,110.16c.57-1.84,2.8-7.03,6.29-14.63l.03,.03c.89,.94,2.13,1.46,3.5,1.46,5.06,0,5.51,2.18,5.66,2.9,.76,3.7-2.89,10.14-8.57,12.6-.63,.27-1.26,.49-1.9,.64-.89,.23-1.79,.34-2.7,.34-1.73,0-2.4-.39-2.51-.54-.13-.17-.34-1.01,.21-2.8Zm24.66-38.07c-.53,6.46-6.67,13.97-13.8,13.97-.05,0-.11,0-.17,0,1.27-2.7,2.59-5.48,3.8-8.02,1.83-3.82,2.88-5.98,3.07-6.35l.02-.05,.04-.08c1.18-2.37,.92-4.92-.67-6.79-.64-.76-1.4-1.31-2.16-1.71,.7,.05,1.36,.12,1.96,.23,7.03,1.15,8.18,5.42,7.91,8.8Z"/><path class="e" d="M41.76,52.42c-.91-.14-1.85-.26-2.83-.35-1.37-.12-2.8-.19-4.3-.19-21.52,0-31.58,11.84-32.9,18.61-1.13,5.73,2.73,11.18,7.15,11.18,1.13,0,1.5-.94,1.31-1.32-.66-1.32-.84-2.54-.56-4.04,.94-5.36,8.37-18.8,24.81-18.8,.57,0,1.13,.02,1.67,.04,.99,.05,1.91,.15,2.78,.3,20.47,3.35,9.62,30.49-6.52,30.49-1.41,0-2.91,3.2-1.03,3.2,15.51,0,10.26,17.92-1.38,22.95-.8,.35-1.63,.63-2.49,.84-1.17,.3-2.39,.45-3.65,.45-6.21,0-7.43-3.76-6.02-8.37,.97-3.15,5.55-13.23,9.84-22.38,1.76-3.76,3.47-7.37,4.85-10.27,1.79-3.74,3.03-6.31,3.16-6.54,.54-1.08,.37-1.93-.17-2.56-.52-.63-1.41-1.04-2.34-1.24-.45-.1-.91-.15-1.34-.15-2.07,0-3.38,.57-4.61,2.45,0,0-15.32,26.97-20.58,40.98-3.01,7.9,1.03,14.19,13.25,14.19,3.05,0,5.93-.27,8.61-.77,.87-.16,1.71-.34,2.54-.55,22.28-5.5,29.53-26.66,11.41-30.74,25.53-4.6,26.03-33.13-.68-37.43Z"/><path class="g" d="M98.14,100.65c-.09-.42-.23-.82-.41-1.22-.35-.73-.85-1.35-1.46-1.84-.58-.47-1.26-.81-2-1.01-.47-.13-.96-.19-1.47-.19-.56,0-1.07,.08-1.54,.21,.35-1.15,.56-2.36,.61-3.63,.02-.23,.02-.46,.02-.69,0-.46-.02-.92-.07-1.36-.16-1.52-.59-2.93-1.27-4.19-.12-.23-.24-.44-.38-.66-.75-1.2-1.74-2.24-2.93-3.09-.76-.54-1.62-1-2.55-1.37-1.71-.68-3.66-1.02-5.8-1.02-2.58,0-5.18,.76-7.71,2.22-3.01,1.73-5.92,4.46-8.55,8.06-1.71,2.34-3.15,4.85-4.24,7.35-1.51,3.46-2.37,6.87-2.37,9.76,0,1.05,.08,2.06,.24,3.02,.38,2.32,1.21,4.38,2.43,6.1,.06,.09,.12,.17,.19,.26,1.24,1.64,2.84,2.97,4.77,3.94h0c1.37,.68,2.9,1.18,4.59,1.48,1.32,.24,2.75,.36,4.26,.36,.78,0,1.57-.06,2.36-.18h0c1.49-.23,2.99-.67,4.49-1.32,.66-.28,1.31-.6,1.96-.97,.08-.04,.16-.09,.23-.13,.34-.19,.68-.4,1.03-.62,.46-.29,.93-.6,1.4-.94,.33-.23,.66-.48,.98-.73,.26-.2,.52-.4,.77-.61,.12-.1,.25-.2,.37-.3,.71-.59,1.42-1.23,2.16-1.92,.71-.68,1.44-1.41,2.2-2.21,.63-.66,1.26-1.36,1.92-2.11,.71-.81,1.45-1.68,2.22-2.63h0c.74-.9,1.5-1.85,2.31-2.89,.82-1.04,1.29-2.25,1.36-3.46h0c.03-.5,0-1-.11-1.49Zm-24.43,6.42c.28,0,.57,.01,.86,.01,2.05,0,4.04-.26,5.89-.76-.35,.29-.69,.55-1.02,.8-.64,.47-1.24,.86-1.8,1.15-.92,.48-1.72,.72-2.41,.72-.79,0-1.17-.15-1.29-.21-.26-.13-.28-.71-.28-.89,0-.26,.02-.54,.05-.83Z"/><path class="g" d="M138.94,104.7c-.17,.31-.38,.62-.61,.9-.74,.94-1.48,1.87-2.21,2.77-1.57,1.95-3.11,3.77-4.54,5.37-3.57,4.03-5.94,6.18-7.59,7.4v.36l-2.29,1.03c-.84,.38-1.63,.57-2.4,.6-.06,0-.13,0-.19,0-.31,0-.65-.02-1.01-.07-.96-.12-2.1-.41-3.29-.87-.21-.08-.42-.17-.64-.26-.76-.32-1.53-.71-2.27-1.16-3.18-1.91-5.98-4.97-5.98-9.14,0-.52,.06-1.06,.17-1.63-.83,1.12-1.62,2.21-2.33,3.23-1.55,2.23-2.76,4.16-3.32,5.37-.03,.07-.05,.12-.07,.16-.42,2.7-2.39,4.36-5.23,4.36h-.57l-.47-.14c-.21-.06-.4-.11-.59-.18-.26-.09-.66-.22-1.14-.41-.71-.28-1.61-.69-2.56-1.25-.41-.25-.84-.52-1.26-.82-.96-.69-1.91-1.53-2.73-2.56-.04-.05-.07-.09-.1-.14-1.36-1.75-2.07-3.76-2.07-5.81,0-.41,.02-.85,.07-1.29,.02-.16,.03-.33,.06-.5,.26-2.12,.99-4.63,2.22-7.61,.33-.82,.71-1.67,1.11-2.56,.82-1.77,1.79-3.69,2.88-5.7,.61-1.12,1.22-2.21,1.83-3.26,.98-1.7,1.93-3.28,2.78-4.65,.56-.89,1.06-1.69,1.51-2.39,1.32-2.08,3.4-3.29,5.7-3.29,1.48,0,3.83,.56,5.77,1.83,.75,.49,1.43,1.07,1.98,1.77,.55,.69,.96,1.49,1.18,2.4,.04,.19,.08,.4,.11,.62,1.15-.99,2.28-1.92,3.38-2.73l1.03-.77h.04c1.07-.75,2.05-1.34,2.96-1.81l.83-.43h.07c1.35-.59,2.56-.88,3.7-.88,1.69,0,3.38,.47,4.91,1.37,.24,.14,.49,.3,.72,.46,.55,.38,1.06,.81,1.53,1.29,.52,.52,.99,1.11,1.41,1.73l.03,.06c.1,.16,.2,.31,.29,.47,.04,.07,.09,.14,.12,.21h0c.79,1.46,1.22,3.04,1.26,4.64h0c0,.08,0,.16,0,.24,0,1.44-.52,3.24-1.84,6.13,.08-.04,.15-.09,.23-.12h0c.87-.45,1.77-.68,2.7-.68,1.4,0,2.73,.5,3.72,1.42,.41,.37,.75,.8,1.02,1.27,.24,.4,.42,.84,.53,1.29,.37,1.39,.19,2.94-.58,4.33Z"/><path class="d" d="M162.15,70.26c0,.26-.02,.51-.05,.77-.03,.25-.09,.5-.16,.75-.04,.12-.08,.24-.12,.37-.03,.07-.05,.14-.09,.21-.03,.07-.06,.13-.1,.2,0,.01,0,.02-.01,.03-.02,.04-.03,.08-.05,.12-.08,.17-.17,.33-.28,.49-.1,.16-.21,.31-.32,.49-.1,.15-.2,.3-.31,.45-.16,.22-.32,.45-.49,.69-.05,.08-.11,.16-.17,.24-.91,1.26-2.01,2.7-3.09,4.1-.19,.24-.37,.49-.56,.73h0c-.57,.76-1.12,1.48-1.56,2.08h-.01c-.35,.49-.63,.88-.79,1.13l-.06,.09c-.12,.18-.26,.36-.4,.52l-.14,.15-.11,.11s-.09,.08-.13,.12c-.32,.29-.68,.53-1.06,.72-.09,.05-.19,.09-.28,.13-.25,.11-.51,.19-.78,.26h0c-.2,.05-.4,.1-.61,.12-.16,.02-.33,.04-.5,.05-.11,0-.22,0-.33,0-2.5,0-6.12-1.46-7.85-3.91-.14-.2-.27-.41-.39-.62-.04-.07-.08-.14-.11-.22-.02-.05-.05-.09-.07-.14-.05-.1-.1-.21-.14-.32-.04-.1-.07-.19-.11-.29-.07-.21-.12-.42-.16-.63-.02-.07-.03-.13-.04-.2,0-.01,0-.02,0-.03-.01-.07-.02-.13-.03-.19-.01-.1-.02-.2-.03-.3,0-.11-.01-.23-.01-.34,0-.59,.1-1.17,.3-1.73,.09-.26,.43-1.25,.91-2.56,.04-.12,.09-.24,.13-.37,.07-.18,.14-.38,.21-.57,.07-.19,.15-.39,.22-.6,.1-.26,.2-.54,.31-.81,.07-.2,.15-.4,.23-.59,.06-.16,.12-.32,.19-.48,.06-.16,.12-.32,.19-.48,.06-.16,.12-.32,.19-.48,.06-.16,.12-.31,.19-.47,.06-.16,.13-.31,.19-.47,.12-.27,.23-.54,.34-.8,.05-.13,.11-.26,.17-.38,.17-.38,.33-.74,.49-1.07,.1-.22,.21-.43,.31-.62l.03-.06c1.28-2.37,3.66-3.73,6.52-3.73,2.26,0,4.75,.91,6.72,2.31,1.27,.9,2.32,2,2.96,3.19,.49,.92,.74,1.9,.74,2.85Z"/><path class="e" d="M155.69,69.45c-1.69,2.63-6.2,8.18-7.33,9.97-.19,.28-.57,.47-1.13,.47-1.97,0-5.64-1.88-4.98-3.76,.28-.85,2.63-7.52,4.04-10.24,.66-1.22,1.79-1.69,3.1-1.69,3.29,0,7.61,3.29,6.3,5.26Z"/><path class="g" d="M162.15,70.26c0,.26-.02,.51-.05,.77-.03,.25-.09,.5-.16,.75-.04,.12-.08,.24-.12,.37-.03,.07-.05,.14-.09,.21-.03,.07-.06,.13-.1,.2,0,.01,0,.02-.01,.03-.02,.04-.04,.07-.05,.11-.08,.17-.17,.33-.28,.49-.1,.16-.21,.32-.32,.49-.1,.15-.2,.3-.31,.45-.16,.22-.32,.45-.49,.69-.05,.08-.11,.16-.17,.24-.91,1.26-2.01,2.7-3.09,4.1-.19,.24-.37,.49-.56,.73h0c-.57,.76-1.12,1.48-1.56,2.08h-.01c-.35,.49-.63,.88-.79,1.13l-.06,.09c-.12,.18-.26,.36-.4,.52l-.14,.15-.11,.11s-.09,.08-.13,.12c-.32,.29-.68,.53-1.06,.72-.09,.05-.19,.09-.28,.13-.05,.03-.1,.05-.15,.07,.6,1.04,.87,2.19,.78,3.36-.03,.45-.12,.89-.26,1.34-.17,.54-.41,1.06-.72,1.55l-.02,.03s-.02,.03-.03,.05h0c-1.24,2.03-2.83,5.21-4.76,9.47-.05,.11-.1,.23-.15,.34-.17,.37-.33,.74-.5,1.13-.01,.03-.02,.05-.03,.07v.02c-.64,1.44-1.32,3.01-2.02,4.65-.03,.07-.06,.14-.09,.22h0c-.61,1.45-1.25,2.97-1.91,4.6-.34,.83-.69,1.68-1.04,2.57h0c-.34,.83-.68,1.68-1.03,2.56-2.7,6.81-5.81,13.92-10.25,19.67-2.69,3.48-5.65,6.15-8.85,8.01-1.66,.96-3.39,1.7-5.18,2.22-2.11,.62-4.3,.92-6.58,.92-2.71,0-5.93-.29-10.21-.92-.78-.11-1.6-.24-2.45-.38-.66-.11-1.33-.22-2-.34h0c-.09-.02-.17-.03-.26-.05-1.87-.32-3.76-.66-5.76-1.03-2.35-.43-4.79-.87-7.2-1.27-.56-.09-1.12-.19-1.68-.28-.19-.03-.38-.06-.57-.09-4.14-.66-7.46-1.06-10.46-1.29-1.68-.12-3.29-.19-4.79-.19-8.27,0-14.1,1.8-17.81,5.51-1.01,1.16-2.39,1.84-3.85,1.91h0c-.08,0-.15,0-.23,0-.98,0-1.92-.31-2.72-.9l-.52-.38-1.06-.78v-.76c-.28-.56-.49-1.2-.64-1.93-.31-1.41-.35-2.95-.35-3.74,0-4.41,1.34-8.04,3.55-10.92,3.33-4.34,8.63-7,14.3-8.12,.99-.19,1.98-.34,2.99-.45,1.15-.12,2.29-.18,3.43-.18,.96,0,1.96,.03,2.99,.1h0c1.74,.11,3.59,.31,5.59,.62,1.74,.26,3.6,.61,5.62,1.04h0c1.72,.37,3.55,.79,5.51,1.29,.56,.14,1.11,.28,1.66,.43,.21,.05,.43,.11,.64,.17,2.53,.66,5.04,1.37,7.47,2.04,1.94,.54,3.77,1.06,5.57,1.53,.74,.2,1.46,.39,2.17,.57,3.16,.81,7.73,1.89,10.79,1.89,1.02,0,1.59-.12,1.79-.16,.78-.2,2.52-1,5.11-4.18,.76-.94,1.6-2.08,2.52-3.47,.56-.86,1.15-1.81,1.77-2.87,1.63-2.82,3.06-5.72,4.14-8.08,.35-.77,.67-1.48,.94-2.12,0,0,.14-.31,.18-.41,.73-1.69,1.55-3.69,2.42-5.82,.33-.8,.66-1.62,1.01-2.46l.05-.11,.03-.07h0l.14-.33c.22-.52,.43-1.04,.65-1.58l.3-.73,.02-.02c.66-1.58,1.2-2.83,1.73-4.01,.58-1.31,1.14-2.52,1.68-3.65h0c.96-2,1.85-3.72,2.7-5.19,.02-.03,.03-.05,.05-.08,.38-.66,.7-1.19,1.01-1.67,.31-.49,.71-.96,1.15-1.37,.69-.63,1.76-1.34,3.27-1.69-.04-.07-.08-.14-.11-.22-.02-.05-.05-.09-.07-.14-.05-.1-.1-.21-.14-.32-.04-.1-.07-.19-.11-.29-.07-.21-.12-.42-.16-.63-.02-.07-.03-.13-.04-.2,0-.01,0-.02,0-.03-.01-.07-.02-.13-.03-.19-.01-.1-.02-.2-.03-.3,0-.11-.01-.23-.01-.34,0-.59,.1-1.17,.3-1.73,.09-.26,.43-1.25,.91-2.56,.04-.12,.09-.24,.13-.37,.07-.18,.14-.38,.21-.57,.07-.19,.15-.39,.22-.6,.05-.13,.1-.27,.15-.41,.05-.13,.1-.26,.16-.4,.07-.2,.15-.4,.23-.59,.06-.16,.12-.32,.19-.48,.06-.16,.12-.32,.19-.48,.06-.16,.12-.32,.19-.48,.06-.16,.12-.31,.19-.47,.06-.16,.13-.31,.19-.47,.12-.27,.23-.54,.34-.8,.05-.13,.11-.26,.17-.38,.17-.38,.33-.74,.49-1.07,.1-.22,.21-.43,.31-.62l.03-.06c1.28-2.37,3.66-3.73,6.52-3.73,2.26,0,4.75,.91,6.72,2.31,1.27,.9,2.32,2,2.96,3.19,.49,.92,.74,1.9,.74,2.85Z"/><path class="e" d="M145.03,84.33h0c-1.18-.92-2.96-1.44-4-1.44-1.1,0-2.02,.28-2.68,.89-.19,.18-.37,.38-.51,.61-.32,.5-.64,1.03-.96,1.59-1.43,2.47-2.83,5.41-4.19,8.47-.68,1.53-1.34,3.08-1.98,4.62v.02h-.02c-.29,.71-.58,1.41-.87,2.1-1.27,3.08-2.44,6-3.47,8.37-.06,.13-.11,.26-.17,.38-1.06,2.44-2.93,6.53-5.29,10.59-3.28,5.65-7.5,11.25-11.82,12.34-.75,.19-1.69,.28-2.73,.28-3.1,0-7.16-.84-11.76-2.02-.72-.19-1.46-.38-2.21-.58-4.09-1.1-8.52-2.39-13.02-3.57-.75-.2-1.51-.39-2.26-.58-3.63-.91-7.27-1.72-10.78-2.25-2.78-.42-5.47-.68-8-.68-9.58,0-20.39,4.7-20.39,15.79,0,.51,.03,1.83,.26,2.92,.15,.69,.38,1.29,.73,1.54h0c.12,.09,.26,.14,.41,.14,.37,0,.84-.19,1.22-.66,5.36-5.45,13.35-6.77,20.68-6.77,1.65,0,3.34,.07,5.08,.2,3.5,.26,7.13,.74,10.78,1.32,.76,.12,1.53,.24,2.29,.37,4.43,.75,8.83,1.59,12.99,2.31,.75,.13,1.49,.26,2.22,.38,4.49,.73,8.61,1.25,12.04,1.25,15.23,0,22.46-16.26,27.26-28.38,1.21-3.02,2.63-6.52,4.12-10.03,.69-1.62,1.39-3.23,2.08-4.8,2.04-4.58,4.07-8.79,5.73-11.49,.14-.22,.24-.44,.31-.65,.33-1.05-.22-1.94-1.1-2.61Z"/><path class="e" d="M149.39,64.19c-1.32,0-2.44,.47-3.1,1.69-1.41,2.73-3.76,9.4-4.04,10.24-.66,1.88,3.01,3.76,4.98,3.76,.56,0,.94-.19,1.13-.47,1.13-1.79,5.64-7.33,7.33-9.97,1.32-1.97-3.01-5.26-6.3-5.26Z"/><path class="g" d="M185.87,100.43c-.09-.34-.21-.68-.36-1-.9-1.87-2.79-3.04-4.93-3.04-.58,0-1.11,.09-1.6,.23,.35-1.01,.57-2.07,.66-3.15,.05-.61,.06-1.22,.02-1.83h0c-.04-.79-.16-1.57-.36-2.35-1.38-5.45-6.1-8.7-12.64-8.7-1.55,0-3.12,.28-4.67,.82-1.01,.35-2.02,.82-3.01,1.39h0c-1.96,1.13-3.88,2.68-5.73,4.63-.28,.3-.56,.6-.82,.9-.29,.33-.56,.66-.83,.99-2.66,3.27-4.9,7.2-6.28,11.04-.13,.36-.26,.74-.4,1.17-.64,2.04-1.02,3.94-1.1,5.66h0c-.01,.27-.02,.52-.02,.77,0,2.36,.42,4.55,1.22,6.48h0c.26,.65,.57,1.26,.92,1.84,.26,.43,.54,.84,.84,1.23,.92,1.2,2.02,2.21,3.3,3.03h.01c1.27,.82,2.71,1.44,4.33,1.87,.53,.14,1.08,.26,1.64,.36,.24,.04,.49,.08,.74,.12,1.1,.15,2.26,.23,3.48,.23,.78,0,1.57-.06,2.35-.18,.6-.09,1.21-.22,1.82-.38,.34-.09,.69-.19,1.03-.31,.98-.33,1.97-.74,2.95-1.25,.5-.26,1.01-.54,1.51-.85,1.42-.85,2.85-1.91,4.31-3.16,.33-.28,.67-.58,1-.89,.27-.24,.54-.49,.81-.75l.05-.05c.41-.39,.83-.8,1.25-1.23,.87-.88,1.75-1.83,2.63-2.83,.07-.07,.14-.15,.21-.23l.09-.11c.56-.64,1.14-1.32,1.74-2.05,.81-.98,1.67-2.05,2.61-3.26,0,0,.01-.01,.02-.02,1.22-1.54,1.64-3.44,1.2-5.16Zm-22.27,8.5c-.22,.03-.41,.05-.6,.05-.2,0-.37,0-.55-.03-.79-.09-1.02-.15-1.02-1.07,0-1.95,.81-4.58,2.21-7.22l.15-.28c.25-.46,.52-.93,.82-1.39,.02,.1,.04,.2,.07,.3,.66,2.45,3.48,4.52,6.19,4.58-.24,.24-.48,.48-.73,.71-2.74,2.63-4.89,4.05-6.55,4.34Z"/><path class="f" d="M202.22,93.76h0s-.24-.11-.82-.12c-.48,.07-3.39,1.35-3.39,5.04,0,1.48,.84,2.66,1.95,3.5,2.38-4.05,2.83-7.67,2.27-8.43Zm20.86,5.7c-.55-1.14-1.44-2.01-2.53-2.53h0c-.72-.35-1.53-.53-2.37-.53-.56,0-1.11,.08-1.65,.24-.13,.03-.26,.08-.38,.12,.02-.45,.03-.91,.03-1.35-.03-2.76-.66-5.32-1.88-7.51-.64-1.15-1.72-2.64-3.43-3.97-.42-.33-.89-.65-1.39-.95-2.28-1.36-5.42-2.38-9.71-2.38-6.08,0-11.94,2.61-16.8,7.32-1.16,1.12-2.26,2.37-3.29,3.72h0c-.56,.73-1.09,1.5-1.6,2.29-1.25,1.92-2.3,3.94-3.11,6-.26,.68-.5,1.34-.71,2h0c-.4,1.3-.7,2.56-.86,3.76l-.04,.28h0c-.08,.7-.13,1.37-.13,2.02,0,.26,0,.53,.02,.78h0s0,.03,0,.05c.02,.56,.07,1.11,.15,1.66h0l.04,.3c.25,1.67,.73,3.23,1.43,4.62,.12,.25,.26,.5,.4,.74,.39,.68,.84,1.31,1.32,1.87,.35,.41,.72,.8,1.11,1.16,.59,.55,1.23,1.04,1.92,1.47,2.26,1.42,5.06,2.24,8.35,2.45,.56,.03,1.14,.05,1.73,.05,.16,0,.31,0,.46,0,5.93-.12,11.76-2.69,16.58-7.25,3.06-.32,5.71-1.22,8.12-2.76,.6-.38,1.18-.81,1.76-1.27,.42-.34,.83-.71,1.24-1.09,1.67-1.59,3.1-3.4,4.39-5.14,.02-.02,.04-.05,.05-.07,1.42-1.82,1.72-4.15,.79-6.1Z"/><path class="d" d="M168.43,121.03c-.99,.51-1.97,.93-2.95,1.25-.34,.11-.69,.22-1.03,.31-.61,.16-1.22,.29-1.82,.38-.79,.12-1.58,.18-2.35,.18-1.22,0-2.38-.08-3.48-.23-.25-.03-.49-.07-.74-.12,.08-.11,.16-.22,.24-.32,.07-.09,.15-.19,.23-.28,.09-.1,.17-.19,.26-.29,.09-.1,.18-.19,.28-.28,.06-.06,.12-.12,.19-.18,.08-.07,.16-.15,.24-.22,.07-.06,.15-.12,.22-.18,.04-.03,.07-.06,.11-.09,.07-.05,.14-.11,.21-.16,.09-.07,.18-.13,.26-.18,.1-.07,.21-.14,.33-.21,.13-.08,.26-.15,.39-.22,.13-.07,.26-.13,.39-.19h.02c.13-.07,.26-.12,.39-.18h0c.13-.05,.26-.1,.4-.15,0,0,.02,0,.02,0,.13-.05,.26-.09,.39-.12,.14-.04,.27-.08,.41-.11,.13-.03,.26-.06,.39-.08,.08-.02,.17-.03,.25-.05,.07-.01,.13-.02,.2-.03,.21-.03,.41-.05,.61-.06,.07,0,.13,0,.19,0,.11,0,.22,0,.33,0,.12,0,.23,0,.35,0,.09,0,.17,0,.25,.02,.17,0,.34,.02,.51,.05,.08,0,.16,.02,.23,.03,.1,.02,.21,.03,.32,.05,.13,.02,.26,.05,.38,.08,0,0,.02,0,.02,0,.26,.06,.51,.14,.77,.22,.13,.05,.26,.09,.39,.14h0c.38,.15,.76,.32,1.13,.53,.1,.05,.2,.11,.3,.17,.21,.12,.41,.26,.61,.4l.17,.12Z"/><path class="d" d="M168.43,121.03c-.99,.51-1.97,.93-2.95,1.25-.34,.11-.69,.22-1.03,.31-.61,.16-1.22,.29-1.82,.38-.79,.12-1.58,.18-2.35,.18-1.22,0-2.38-.08-3.48-.23-.25-.03-.49-.07-.74-.12,.08-.11,.16-.22,.24-.32,.07-.09,.15-.19,.23-.28,.09-.1,.17-.19,.26-.29,.09-.1,.18-.19,.28-.28,.06-.06,.12-.12,.19-.18,.08-.07,.16-.15,.24-.22,.07-.06,.15-.12,.22-.18,.04-.03,.07-.06,.11-.09,.07-.05,.14-.11,.21-.16,.09-.07,.18-.13,.26-.18,.1-.07,.21-.14,.33-.21,.13-.08,.26-.15,.39-.22,.13-.07,.26-.13,.39-.19h.02c.13-.07,.26-.12,.39-.18h0c.13-.05,.26-.1,.4-.15,0,0,.02,0,.02,0,.13-.05,.26-.09,.39-.12,.14-.04,.27-.08,.41-.11,.13-.03,.26-.06,.39-.08,.08-.02,.17-.03,.25-.05,.07-.01,.13-.02,.2-.03,.21-.03,.41-.05,.61-.06,.07,0,.13,0,.19,0,.11,0,.22,0,.33,0,.12,0,.23,0,.35,0,.09,0,.17,0,.25,.02,.17,0,.34,.02,.51,.05,.08,0,.16,.02,.23,.03,.1,.02,.21,.03,.32,.05,.13,.02,.26,.05,.38,.08,0,0,.02,0,.02,0,.26,.06,.51,.14,.77,.22,.13,.05,.26,.09,.39,.14h0c.38,.15,.76,.32,1.13,.53,.1,.05,.2,.11,.3,.17,.21,.12,.41,.26,.61,.4l.17,.12Z"/><path class="g" d="M169.94,120.18c-.5,.31-1.01,.59-1.51,.85-.99,.51-1.97,.93-2.95,1.25-.34,.11-.69,.22-1.03,.31-.61,.16-1.22,.29-1.82,.38-.79,.12-1.58,.18-2.35,.18-1.22,0-2.38-.08-3.48-.23-.25-.03-.49-.07-.74-.12-.56-.1-1.11-.22-1.64-.36,.15-.24,.3-.46,.47-.68,2.19-2.98,5.43-4.11,8.12-4.11,1.7,0,3.36,.42,4.89,1.22,.43,.22,.85,.48,1.25,.76l.28,.19,.05,.04c.09,.07,.19,.14,.28,.22l.19,.09Z"/><path class="g" d="M257.16,135.71c0,6.26-4.93,12.91-14.07,12.91-8.25,0-15.17-3.9-19.14-10.61-.07,.02-.13,.05-.19,.07-1.13,.42-2.26,.86-3.4,1.32-1.14,.45-2.3,.92-3.47,1.39-.63,.26-1.27,.52-1.92,.78-11.32,4.62-23.04,9.4-34.85,9.4-1.2,0-2.4-.08-3.58-.23-1.14-.14-2.26-.36-3.34-.64-2.21-.57-4.26-1.41-6.11-2.48-2.39-1.39-4.42-3.17-5.95-5.25-1.34-1.83-2.3-3.88-2.85-6.09-.37-1.48-.57-3.06-.57-4.7,0-.96,.07-2.65,.45-4.16v-.11l.12-.34,.11-.3c1.18-3.32,3.83-3.58,4.61-3.58,1.07,0,2.08,.33,3.02,.99h0c.24,.17,.47,.36,.7,.57,0,0,.01,0,.02,.01,.08,.07,.15,.14,.23,.22l.1,.1c.21,.22,.42,.43,.63,.63,2.49,2.33,5.81,3.77,10.1,4.38,.68,.1,1.36,.17,2.05,.23,.96,.07,2,.11,3.07,.11,2.22,0,4.57-.13,6.97-.39,6.91-.73,14-2.4,20.85-4.02,3.17-.75,6.42-1.52,9.66-2.19,0-3.76,.61-7.87,1.81-12.26,.34-1.23,.84-2.64,1.47-4.21h0l.31-.73c.76-1.81,1.69-3.81,2.85-6.09,.37-.73,.77-1.49,1.18-2.26-.64,.85-1.32,1.74-2.03,2.65-1.42,1.83-2.6,3.33-3.72,4.73-.02,.02-.04,.05-.05,.07l-.08,.1c-1.62,1.89-3.42,2.29-4.64,2.29-1.7,0-3.29-.74-4.37-1.98-.34-.39-.63-.83-.85-1.31-.4-.87-.56-1.81-.47-2.72,.1-1.11,.55-2.2,1.32-3.11l.05-.06c.91-1.03,1.88-2.14,2.97-3.42,.4-.47,.81-.96,1.24-1.47,.19-.23,.38-.45,.57-.68-1.77-1.87-2.79-4.47-3.21-6.37-.4-1.63-.08-3.29,.9-4.57,.95-1.25,2.45-1.99,4.01-1.99,.32,0,.61,.04,.86,.09h.05l.12,.04c.08,.02,.15,.04,.22,.07,.44,.04,1.78,.12,5.24,.16,.84,.01,1.71,.02,2.59,.02h.07c.18,0,.37,0,.56,0h.06c4.04,0,8.4-.05,10.73-.08,.96-.01,1.62-.02,1.86-.02,2.44,0,6.64,1.39,8.34,4.48,1.08,1.96,.98,4.21-.26,6.17-2.12,3.39-8.73,17.21-10.8,25.38-.41,1.65-.69,3.28-.84,4.85,.15,0,.31,0,.46,0,5.47,0,10.09,1.44,13.37,4.17,3.08,2.56,4.84,6.23,4.84,10.04Z"/><path class="e" d="M215.84,98.68c-.66,0-1.41,.38-2.07,1.13-.66,.66-1.22,1.41-2.92,3.29-.28,.3-.57,.58-.89,.84-1.07,.88-2.33,1.52-3.71,1.89,6.2-10.06,5.45-22.94-8.83-22.94-7.95,0-14.47,5.44-18.43,11.57-1.14,1.75-2.06,3.55-2.76,5.3-.67,1.7-1.13,3.36-1.33,4.86h0c-.09,.63-.13,1.21-.13,1.77,0,.22,0,.45,.02,.68,.02,.49,.07,1.01,.15,1.54h0c.17,1.13,.49,2.32,1.06,3.46,.32,.64,.71,1.26,1.21,1.84,1.81,2.14,4.92,3.76,10.16,3.76,.12,0,.24,0,.36,0,5.78-.12,11-2.99,14.96-7.14,4.57-.18,7.57-1.71,10.15-4.17,1.4-1.33,2.69-2.94,4.04-4.75,1.13-1.41,.28-2.92-1.03-2.92Zm-25.75,12.59c-4.7,0-5.45-3.2-5.45-4.98,0-2.63,.94-5.55,2.35-8.36,.47,5.73,3.85,9.49,8.27,11.37-1.69,1.22-3.48,1.97-5.17,1.97Zm8.83-5.73c-3.95-1.22-7.15-4.32-7.15-8.46,0-5.92,4.8-8.93,7.24-8.93,7.8,0,5.26,10.52-.09,17.39Z"/><path class="e" d="M236.61,123.78c-1.51,0-3.01,.09-4.42,.19-.19-3.1,.19-6.49,1.03-9.87,2.16-8.55,8.93-22.74,11.28-26.5,1.78-2.82-2.82-4.7-4.8-4.7-.85,0-6.96,.1-12.59,.1-.23,0-.46,0-.68,0-.9,0-1.79,0-2.64-.02-3.2-.03-5.75-.12-6.17-.26-.09,0-.19-.09-.28-.09-.75,0-1.41,.75-1.13,1.79,.38,1.78,1.88,5.73,4.61,5.73h1.13c-1.15,1.39-2.48,3.01-3.9,4.71-1.36,1.62-2.81,3.32-4.28,4.97-1.04,1.22,0,2.72,1.41,2.72,.56,0,1.13-.28,1.69-.94,1.28-1.6,2.54-3.2,3.73-4.74,1.63-2.11,3.12-4.09,4.35-5.7,.3-.4,.59-.77,.85-1.12,.52,0,1.06,0,1.62-.01,2.09-.03,4.41-.1,6.56-.18-1.85,3.08-4.05,6.94-5.99,10.75-1.02,2-1.96,3.98-2.74,5.83h0c-.68,1.62-1.24,3.14-1.61,4.47-1.5,5.45-1.97,10.25-1.5,14.38-11.23,2.09-22.65,5.72-34.16,6.92-2.46,.26-4.92,.41-7.39,.41-1.15,0-2.28-.04-3.39-.12-.77-.06-1.53-.15-2.28-.26-5.11-.73-9.62-2.59-13.01-6.18l-.02-.02c-.47-.47-.85-.66-1.22-.66-.44,0-.75,.42-.96,1h0c-.41,1.16-.45,2.97-.45,3.6,0,1.34,.16,2.59,.45,3.76,.45,1.78,1.21,3.36,2.22,4.74,2.85,3.9,7.65,6.17,12.76,6.81,1.02,.13,2.05,.2,3.09,.2,14.09,0,28.74-7.55,42.26-12.64,1.06-.4,2.1-.78,3.14-1.14,.12-.05,.25-.09,.37-.13,3.01,7.61,9.58,11.56,17.2,11.56,13.63,0,14.85-19.36-4.13-19.36Zm4.79,11.84c-4.32,0-7.05-2.63-8.37-6.68,2.26-.38,4.42-.66,6.58-.66,7.99,0,6.77,7.33,1.79,7.33Z"/><path class="e" d="M178.25,98.68c-.64,0-1.29,.36-2.02,1.08l-.05,.05c-.45,.5-.91,1.01-1.36,1.5-1.44,1.58-2.88,3.11-4.31,4.48-2.89,2.78-5.76,4.88-8.59,5.37-.42,.07-.83,.11-1.24,.11-.34,0-.66-.02-.96-.05-3.84-.41-4.49-3.27-4.49-4.93,0-2.82,1.08-6.08,2.66-9.04h0c.41-.78,.86-1.53,1.33-2.26,2.52-3.89,5.72-6.84,7.95-6.84,3.48,0,1.69,6.2-.75,7.8-1.13,.66,.85,2.45,2.26,2.45,.28,0,.56-.1,.75-.19,5.73-3.1,6.49-15.32-5.08-15.32-3.76,0-7.47,2.31-10.59,5.62-.5,.54-.99,1.1-1.46,1.68-2.46,3.02-4.44,6.59-5.65,9.93-.12,.34-.24,.68-.34,1.01-.61,1.91-.94,3.71-.94,5.26,0,4.14,1.6,11.28,12.59,11.28,.59,0,1.18-.05,1.77-.14,.74-.11,1.48-.29,2.21-.53,3.17-1.05,6.22-3.25,9.14-6.03l.02-.02c1.26-1.2,2.5-2.51,3.71-3.89,.05-.05,.09-.1,.14-.16h0c1.5-1.71,2.95-3.51,4.36-5.32,1.13-1.41,.38-2.92-1.03-2.92Z"/><path class="e" d="M90.47,98.68c-.66,0-1.32,.38-2.07,1.13-.03,.03-.06,.07-.09,.1-2.36,2.61-4.7,5.18-7.03,7.22-.62,.54-1.25,1.05-1.87,1.51-.77,.57-1.55,1.07-2.31,1.47-1.41,.74-2.81,1.17-4.21,1.17-1.3,0-2.29-.24-3.05-.63-2-1.02-2.4-3.06-2.4-4.35,0-1.6,.38-3.39,.94-5.08,1.22,.28,2.54,.38,3.85,.38,2.56,0,5.11-.49,7.29-1.5,3.58-1.66,6.15-4.73,6.15-9.41,0-2.9-1.42-5.75-4.74-7.06-1.2-.47-2.65-.75-4.37-.75-9.68,0-18.99,15.32-18.99,23.5,0,3.64,1.23,9.6,9.02,10.98,1.06,.19,2.25,.3,3.58,.3,2.37,0,4.68-.73,6.93-1.99,.77-.42,1.52-.9,2.28-1.44,.64-.46,1.27-.95,1.9-1.48,1.37-1.14,2.7-2.43,4.02-3.81,2.15-2.28,4.23-4.81,6.21-7.36,1.13-1.41,.38-2.92-1.03-2.92Zm-11.09-10.52c.36,0,.67,.07,.92,.19,.74,.35,1.05,1.16,1.05,2.07,0,1.75-.6,3.11-1.59,4.14h0c-1.76,1.85-4.76,2.62-7.71,2.62-.66,0-1.22,0-1.88-.09,2.63-4.89,6.58-8.93,9.21-8.93Z"/><path class="e" d="M133.01,99.08c-.28-.25-.65-.4-1.1-.4-.39,0-.78,.13-1.19,.4-.01,0-.02,.01-.03,.02h0c-.27,.18-.54,.42-.84,.71-.42,.47-.85,.94-1.27,1.4-2.17,2.39-4.27,4.67-6.06,6.45-2.18,2.17-3.9,3.61-4.71,3.61-.38,0-.56-.19-.56-.66,0-1.08,2.21-5.1,4.52-9.41,.38-.7,.76-1.42,1.13-2.13,2.12-4.03,4.03-7.94,4.03-9.61,0-1.25-.4-2.46-1.08-3.49-.61-.92-1.43-1.71-2.36-2.25-.9-.53-1.92-.83-2.95-.83-.77,0-1.73,.31-2.83,.88h0c-1.05,.54-2.23,1.31-3.48,2.24h0c-5.95,4.43-13.56,12.58-17.37,18.03,2.07-5.74,4.82-11.66,6.48-14.78,.38-.71,.7-1.28,.95-1.67,.39-.61,.47-1.18,.35-1.69-.44-1.86-3.6-3.01-5.15-3.01-.94,0-1.79,.47-2.44,1.51-1.13,1.75-3.59,5.64-5.98,10.05-.96,1.77-1.91,3.63-2.76,5.47-1.51,3.29-2.7,6.5-3.01,9.04-.06,.45-.09,.88-.09,1.29,0,1.34,.52,2.52,1.33,3.53,1.51,1.9,4,3.19,5.85,3.77,.15,.05,.29,.09,.43,.13,.94,0,1.32-.28,1.41-1.22,.03-.24,.16-.6,.36-1.03,2.56-5.57,17.69-25.28,21.26-25.28,1.66,0-.84,4.23-3.53,8.95-.4,.7-.8,1.41-1.2,2.13-1.93,3.46-3.64,6.89-3.64,8.85,0,4.89,7.23,7.61,9.3,7.61,.28,0,.62-.09,1-.26h0c1.95-.89,5.11-3.93,8.57-7.83,2.16-2.43,4.43-5.2,6.6-7.98,.1-.12,.19-.25,.26-.38,.48-.84,.33-1.67-.19-2.14Z"/><circle class="f" cx="105" cy="164.03" r="5.45"/><circle class="f" cx="149.42" cy="164.03" r="5.45"/></g></g></svg>