<?xml version="1.0" encoding="UTF-8"?><svg xmlns="http://www.w3.org/2000/svg" viewBox="0 0 1782 988.1"><defs><style>.d{fill:#fff;}.e{fill:#fede00;}.f{fill:#021746;}</style></defs><g id="a"/><g id="b"><g id="c"><path class="d" d="M128.8,148.4l-.2-84-41.2,69.2h-14.6L31.8,66.2v82.2H1.4V8.4H28.2l52.4,87L132.2,8.4h26.6l.4,140h-30.4Z"/><path class="d" d="M272,51.1c8.9,7.9,13.4,19.9,13.4,35.9v61.4h-29.2v-13.4c-5.9,10-16.8,15-32.8,15-8.3,0-15.4-1.4-21.5-4.2s-10.7-6.7-13.9-11.6c-3.2-4.9-4.8-10.5-4.8-16.8,0-10,3.8-17.9,11.3-23.6s19.2-8.6,34.9-8.6h24.8c0-6.8-2.1-12-6.2-15.7-4.1-3.7-10.3-5.5-18.6-5.5-5.7,0-11.4,.9-16.9,2.7-5.5,1.8-10.2,4.2-14.1,7.3l-11.2-21.8c5.9-4.1,12.9-7.3,21.1-9.6,8.2-2.3,16.6-3.4,25.3-3.4,16.7,0,29.5,4,38.4,11.9Zm-26.6,74.2c4.1-2.5,7.1-6.1,8.8-10.9v-11h-21.4c-12.8,0-19.2,4.2-19.2,12.6,0,4,1.6,7.2,4.7,9.5,3.1,2.3,7.4,3.5,12.9,3.5s10.1-1.2,14.2-3.7Z"/><path class="d" d="M313.6,0h31.2V148.4h-31.2V0Z"/><path class="d" d="M478.6,103.4h-81.4c1.5,6.7,4.9,11.9,10.4,15.8s12.3,5.8,20.4,5.8c5.6,0,10.6-.8,14.9-2.5s8.4-4.3,12.1-7.9l16.6,18c-10.1,11.6-24.9,17.4-44.4,17.4-12.1,0-22.9-2.4-32.2-7.1-9.3-4.7-16.5-11.3-21.6-19.7s-7.6-17.9-7.6-28.6,2.5-20,7.5-28.5,11.9-15.1,20.6-19.8,18.5-7.1,29.3-7.1,20.1,2.3,28.6,6.8,15.2,11,20.1,19.5,7.3,18.3,7.3,29.5c0,.4-.2,3.2-.6,8.4h0Zm-73-34.6c-4.8,4-7.7,9.5-8.8,16.4h53c-1.1-6.8-4-12.2-8.8-16.3s-10.7-6.1-17.6-6.1-13,2-17.8,6h0Z"/><path class="d" d="M569.4,143.2c-3.1,2.3-6.8,4-11.3,5.1s-9.1,1.7-14.1,1.7c-12.8,0-22.7-3.3-29.7-9.8s-10.5-16.1-10.5-28.8v-44.2h-16.6v-24h16.6V17h31.2v26.2h26.8v24h-26.8v43.8c0,4.5,1.2,8,3.5,10.5s5.6,3.7,9.9,3.7c4.9,0,9.1-1.3,12.6-4l8.4,22h0Z"/><path class="d" d="M668.8,51.1c9,7.9,13.4,19.9,13.4,35.9v61.4h-29.2v-13.4c-5.9,10-16.8,15-32.8,15-8.3,0-15.4-1.4-21.5-4.2s-10.7-6.7-13.9-11.6c-3.2-4.9-4.8-10.5-4.8-16.8,0-10,3.8-17.9,11.3-23.6s19.2-8.6,34.9-8.6h24.8c0-6.8-2.1-12-6.2-15.7s-10.3-5.5-18.6-5.5c-5.7,0-11.4,.9-16.9,2.7-5.5,1.8-10.2,4.2-14.1,7.3l-11.2-21.8c5.9-4.1,12.9-7.3,21.1-9.6,8.2-2.3,16.6-3.4,25.3-3.4,16.7,0,29.5,4,38.4,11.9Zm-26.6,74.2c4.1-2.5,7.1-6.1,8.8-10.9v-11h-21.4c-12.8,0-19.2,4.2-19.2,12.6,0,4,1.6,7.2,4.7,9.5s7.4,3.5,12.9,3.5,10.1-1.2,14.2-3.7Z"/><path class="d" d="M720.4,146.7c-8.5-2.2-15.3-5-20.4-8.3l10.4-22.4c4.8,3.1,10.6,5.6,17.4,7.5,6.8,1.9,13.5,2.9,20,2.9,13.2,0,19.8-3.3,19.8-9.8,0-3.1-1.8-5.3-5.4-6.6-3.6-1.3-9.1-2.5-16.6-3.4-8.8-1.3-16.1-2.9-21.8-4.6s-10.7-4.8-14.9-9.2c-4.2-4.4-6.3-10.7-6.3-18.8,0-6.8,2-12.8,5.9-18.1s9.7-9.4,17.2-12.3,16.4-4.4,26.7-4.4c7.6,0,15.2,.8,22.7,2.5s13.8,4,18.7,6.9l-10.4,22.2c-9.5-5.3-19.8-8-31-8-6.7,0-11.7,.9-15,2.8s-5,4.3-5,7.2c0,3.3,1.8,5.7,5.4,7,3.6,1.3,9.3,2.6,17.2,3.8,8.8,1.5,16,3,21.6,4.7s10.5,4.7,14.6,9.1,6.2,10.5,6.2,18.4c0,6.7-2,12.6-6,17.8s-9.8,9.2-17.5,12.1c-7.7,2.9-16.8,4.3-27.3,4.3-8.9,0-17.6-1.1-26.2-3.3h0Z"/><path class="d" d="M842.4,116.5c3.6,3.5,5.4,8.2,5.4,13.9,0,2.7-.3,5.3-1,8s-2.1,6.7-4.4,12l-11.4,28.8h-19.8l8.8-31.8c-3.3-1.3-6-3.5-7.9-6.5s-2.9-6.5-2.9-10.5c0-5.7,1.8-10.4,5.5-13.9s8.3-5.3,13.9-5.3,10.2,1.8,13.8,5.3h0Z"/><path class="d" d="M121.6,273.1c4.5,5.9,6.8,13.2,6.8,21.9,0,12.3-4.8,21.7-14.3,28.3-9.5,6.6-23.4,9.9-41.7,9.9H0V193.2H68.4c17.1,0,30.2,3.3,39.3,9.8s13.7,15.4,13.7,26.6c0,6.8-1.6,12.9-4.9,18.2s-7.8,9.5-13.7,12.6c8,2.5,14.3,6.8,18.8,12.7Zm-89.4-55.5v33h32.2c8,0,14.1-1.4,18.2-4.2s6.2-6.9,6.2-12.4-2.1-9.6-6.2-12.3-10.2-4.1-18.2-4.1H32.2Zm57.1,87c4.3-2.8,6.5-7.1,6.5-13,0-11.6-8.6-17.4-25.8-17.4H32.2v34.6h37.8c8.5,0,15-1.4,19.3-4.2Z"/><path class="d" d="M171.5,327.7c-9-4.7-16-11.3-21.1-19.7-5.1-8.4-7.6-17.9-7.6-28.6s2.5-20.2,7.6-28.6,12.1-15,21.1-19.7,19.2-7.1,30.5-7.1,21.5,2.4,30.4,7.1c8.9,4.7,15.9,11.3,21,19.7s7.6,17.9,7.6,28.6-2.5,20.2-7.6,28.6-12.1,15-21,19.7-19.1,7.1-30.4,7.1-21.5-2.4-30.5-7.1Zm50.2-26.6c5.1-5.4,7.7-12.6,7.7-21.7s-2.6-16.3-7.7-21.7c-5.1-5.4-11.7-8.1-19.7-8.1s-14.6,2.7-19.8,8.1c-5.2,5.4-7.8,12.6-7.8,21.7s2.6,16.3,7.8,21.7,11.8,8.1,19.8,8.1,14.6-2.7,19.7-8.1Z"/><path class="d" d="M279.8,184.8h31.2l2,148.4h-31.2l-2-148.4h0Z"/><path class="d" d="M352,331.5c-8.5-2.2-15.3-5-20.4-8.3l10.4-22.4c4.8,3.1,10.6,5.6,17.4,7.5s13.5,2.9,20,2.9c13.2,0,19.8-3.3,19.8-9.8,0-3.1-1.8-5.3-5.4-6.6-3.6-1.3-9.1-2.5-16.6-3.4-8.8-1.3-16.1-2.9-21.8-4.6-5.7-1.7-10.7-4.8-14.9-9.2-4.2-4.4-6.3-10.7-6.3-18.8,0-6.8,2-12.8,5.9-18.1s9.7-9.4,17.2-12.3c7.5-2.9,16.4-4.4,26.7-4.4,7.6,0,15.2,.8,22.7,2.5s13.8,4,18.7,6.9l-10.4,22.2c-9.5-5.3-19.8-8-31-8-6.7,0-11.7,.9-15,2.8-3.3,1.9-5,4.3-5,7.2,0,3.3,1.8,5.7,5.4,7s9.3,2.6,17.2,3.8c8.8,1.5,16,3,21.6,4.7s10.5,4.7,14.6,9.1,6.2,10.5,6.2,18.4c0,6.7-2,12.6-6,17.8-4,5.2-9.8,9.2-17.5,12.1s-16.8,4.3-27.3,4.3c-8.9,0-17.7-1.1-26.2-3.3h0Z"/><path class="d" d="M468.9,327.7c-9-4.7-16-11.3-21.1-19.7-5.1-8.4-7.6-17.9-7.6-28.6s2.5-20.2,7.6-28.6,12.1-15,21.1-19.7,19.2-7.1,30.5-7.1,21.5,2.4,30.4,7.1c8.9,4.7,15.9,11.3,21,19.7s7.6,17.9,7.6,28.6-2.5,20.2-7.6,28.6-12.1,15-21,19.7-19.1,7.1-30.4,7.1-21.5-2.4-30.5-7.1Zm50.2-26.6c5.1-5.4,7.7-12.6,7.7-21.7s-2.6-16.3-7.7-21.7c-5.1-5.4-11.7-8.1-19.7-8.1s-14.6,2.7-19.8,8.1c-5.2,5.4-7.8,12.6-7.8,21.7s2.6,16.3,7.8,21.7,11.8,8.1,19.8,8.1,14.6-2.7,19.7-8.1Z"/><path class="d" d="M589.2,331.5c-8.5-2.2-15.3-5-20.4-8.3l10.4-22.4c4.8,3.1,10.6,5.6,17.4,7.5,6.8,1.9,13.5,2.9,20,2.9,13.2,0,19.8-3.3,19.8-9.8,0-3.1-1.8-5.3-5.4-6.6-3.6-1.3-9.1-2.5-16.6-3.4-8.8-1.3-16.1-2.9-21.8-4.6s-10.7-4.8-14.9-9.2c-4.2-4.4-6.3-10.7-6.3-18.8,0-6.8,2-12.8,5.9-18.1s9.7-9.4,17.2-12.3c7.5-2.9,16.4-4.4,26.7-4.4,7.6,0,15.2,.8,22.7,2.5s13.8,4,18.7,6.9l-10.4,22.2c-9.5-5.3-19.8-8-31-8-6.7,0-11.7,.9-15,2.8-3.3,1.9-5,4.3-5,7.2,0,3.3,1.8,5.7,5.4,7,3.6,1.3,9.3,2.6,17.2,3.8,8.8,1.5,16,3,21.6,4.7s10.5,4.7,14.6,9.1,6.2,10.5,6.2,18.4c0,6.7-2,12.6-6,17.8-4,5.2-9.8,9.2-17.5,12.1s-16.8,4.3-27.3,4.3c-8.9,0-17.7-1.1-26.2-3.3h0Z"/><path class="d" d="M868.1,220.6l-48.6,114.2c-4.9,12.4-11,21.1-18.3,26.2s-16,7.6-26.3,7.6c-5.6,0-11.1-.9-16.6-2.6s-9.9-4.1-13.4-7.2l11.4-22.2c2.4,2.1,5.2,3.8,8.3,5s6.2,1.8,9.3,1.8c4.3,0,7.7-1,10.4-3.1s5.1-5.5,7.2-10.3l.4-1-46.6-108.4h32.2l30.2,73,30.4-73h30Z"/><path class="d" d="M1047.8,333.2l-.2-84-41.2,69.2h-14.6l-41-67.4v82.2h-30.4V193.2h26.8l52.4,87,51.6-87h26.6l.4,140h-30.4Z"/><path class="d" d="M1129.9,327.7c-9-4.7-16-11.3-21.1-19.7-5.1-8.4-7.6-17.9-7.6-28.6s2.5-20.2,7.6-28.6,12.1-15,21.1-19.7,19.2-7.1,30.5-7.1,21.5,2.4,30.4,7.1c8.9,4.7,15.9,11.3,21,19.7s7.6,17.9,7.6,28.6-2.5,20.2-7.6,28.6-12.1,15-21,19.7-19.1,7.1-30.4,7.1-21.5-2.4-30.5-7.1Zm50.2-26.6c5.1-5.4,7.7-12.6,7.7-21.7s-2.6-16.3-7.7-21.7c-5.1-5.4-11.7-8.1-19.7-8.1s-14.6,2.7-19.8,8.1c-5.2,5.4-7.8,12.6-7.8,21.7s2.6,16.3,7.8,21.7,11.8,8.1,19.8,8.1,14.6-2.7,19.7-8.1Z"/><path class="d" d="M1285.1,228c6.3-2.7,13.6-4,21.9-4v28.8c-3.5-.3-5.8-.4-7-.4-8.9,0-15.9,2.5-21,7.5-5.1,5-7.6,12.5-7.6,22.5v50.8h-31.2v-107.6h29.8v14.2c3.7-5.2,8.8-9.1,15.1-11.8h0Z"/><path class="d" d="M1406.8,235.9c8.9,7.9,13.4,19.9,13.4,35.9v61.4h-29.2v-13.4c-5.9,10-16.8,15-32.8,15-8.3,0-15.4-1.4-21.5-4.2-6.1-2.8-10.7-6.7-13.9-11.6-3.2-4.9-4.8-10.5-4.8-16.8,0-10,3.8-17.9,11.3-23.6s19.2-8.6,34.9-8.6h24.8c0-6.8-2.1-12-6.2-15.7s-10.3-5.5-18.6-5.5c-5.7,0-11.4,.9-16.9,2.7s-10.2,4.2-14.1,7.3l-11.2-21.8c5.9-4.1,12.9-7.3,21.1-9.6s16.6-3.4,25.3-3.4c16.7,0,29.5,4,38.4,11.9h0Zm-26.6,74.2c4.1-2.5,7.1-6.1,8.8-10.9v-11h-21.4c-12.8,0-19.2,4.2-19.2,12.6,0,4,1.6,7.2,4.7,9.5s7.4,3.5,12.9,3.5,10.1-1.2,14.2-3.7Z"/><path class="d" d="M1448.4,184.8h31.2v148.4h-31.2V184.8Z"/><path class="d" d="M1508.6,184.8h31.2v148.4h-31.2V184.8Z"/><path class="d" d="M1673.6,288.2h-81.4c1.5,6.7,4.9,11.9,10.4,15.8s12.3,5.8,20.4,5.8c5.6,0,10.6-.8,14.9-2.5s8.4-4.3,12.1-7.9l16.6,18c-10.1,11.6-24.9,17.4-44.4,17.4-12.1,0-22.9-2.4-32.2-7.1s-16.5-11.3-21.6-19.7c-5.1-8.4-7.6-17.9-7.6-28.6s2.5-20,7.5-28.5,11.9-15.1,20.6-19.8,18.5-7.1,29.3-7.1,20.1,2.3,28.6,6.8,15.2,11,20.1,19.5,7.3,18.3,7.3,29.5c0,.4-.2,3.2-.6,8.4h0Zm-73-34.6c-4.8,4-7.7,9.5-8.8,16.4h53c-1.1-6.8-4-12.2-8.8-16.3-4.8-4.1-10.7-6.1-17.6-6.1s-13,2-17.8,6h0Z"/><path class="d" d="M1705,331.5c-8.5-2.2-15.3-5-20.4-8.3l10.4-22.4c4.8,3.1,10.6,5.6,17.4,7.5s13.5,2.9,20,2.9c13.2,0,19.8-3.3,19.8-9.8,0-3.1-1.8-5.3-5.4-6.6-3.6-1.3-9.1-2.5-16.6-3.4-8.8-1.3-16.1-2.9-21.8-4.6-5.7-1.7-10.7-4.8-14.9-9.2-4.2-4.4-6.3-10.7-6.3-18.8,0-6.8,2-12.8,5.9-18.1s9.7-9.4,17.2-12.3c7.5-2.9,16.4-4.4,26.7-4.4,7.6,0,15.2,.8,22.7,2.5s13.8,4,18.7,6.9l-10.4,22.2c-9.5-5.3-19.8-8-31-8-6.7,0-11.7,.9-15,2.8-3.3,1.9-5,4.3-5,7.2,0,3.3,1.8,5.7,5.4,7s9.3,2.6,17.2,3.8c8.8,1.5,16,3,21.6,4.7s10.5,4.7,14.6,9.1,6.2,10.5,6.2,18.4c0,6.7-2,12.6-6,17.8-4,5.2-9.8,9.2-17.5,12.1s-16.8,4.3-27.3,4.3c-8.9,0-17.7-1.1-26.2-3.3h0Z"/><path class="e" d="M179.9,439.6c0,3.6-49.3,36.2-65.6,43-22.6,9-43.9,4.5-49.8-11.8-2.3-5.9-4.5-5-22.6,7.2-20.8,14-24.4,14.9-33.9,9.5-11.8-7.2-4.5-32.6,14.9-48.9,11.8-10,29-11.8,37.6-3.6,5,4.5,7.2,2.3,24.9-23.1,17.7-26.2,68.3-84.6,73.3-84.6,1.4,0,4.5,1.4,7.2,3.2,3.2,2.3-1.4,9.5-20.4,31.2-45.3,52.5-72,96.9-67,110.4,4.5,12.2,26.2,5.9,67.9-19.9,25.8-15.8,33.5-18.1,33.5-12.6h0Zm-127.6,.9c-5-4.1-7.2-3.2-19,9-14,15.4-20.8,30.3-10.9,24.9,3.2-1.8,12.2-9,20.8-16.3,13.2-11.8,14.1-13.6,9.1-17.6h0Z"/><path class="e" d="M269.1,451.8c0,10.4-52.5,32.6-76.9,32.6-9.1,0-17.2-1.8-20.4-5.4-10.4-10.4-5.9-31.7,11.3-49.8,14-14.9,31.2-10.4,31.2,9,0,9-15.8,24-26.2,24.4-13.6,0-15.4,11.3-2.3,11.3,12.2,0,56.1-14.5,66.5-21.7,9.5-6.8,16.8-7.2,16.8-.4h0Zm-73.8-5.9c2.7-4.1,5.4-8.6,5.4-10.4,0-4.1-10,4.1-14,11.8-5,9,1.8,8.1,8.6-1.4Z"/><path class="e" d="M452.8,469c-18.6,9-19,9-27.6,3.6-5-3.2-10-9-10.9-12.2-.9-4.1-2.3-6.3-3.2-6.3s-9.5,5-19,11.3c-21.7,14.9-34.4,15.4-42.1,3.6-7.2-10.9-2.7-23.1,13.6-38.9,16.3-15.8,30.8-17.2,48.9-3.6,12.7,9.5,14.5,12.2,14.5,24,0,7.7,.9,13.6,1.8,13.6s10.9-4.5,21.7-10c12.2-6.8,21.3-9,24.4-7.2,6.9,4.4,.5,10.7-22.1,22.1h0Zm-56.1-39.4c-4.5,0-24,17.2-28.1,24.4-5,9-.9,8.1,17.6-5.9,15-10.8,19.1-18.5,10.5-18.5h0Z"/><path class="e" d="M543.8,464.5c-17.7,12.2-38.5,25.8-46.2,29.9-17.2,8.1-36.2,9.5-42.1,1.8-7.7-8.6-1.8-31.7,18.1-71.5s51.1-82.8,63.8-88.2c4.5-2.3,8.6-1.8,10.9,.9,2.7,2.3,.5,6.8-8.6,16.7-31.2,34.9-78.3,122.6-73.3,137.1,.9,4.1,39.8-15.4,72.4-36.2,13.1-9,26.2-14.9,30.3-14.5,5.4,.9,0,6.3-25.3,24h0Z"/><path class="e" d="M761,356.3c0,4.5-2.7,5-14.9,2.7-7.7-1.4-34.4-2.3-58.8-2.3h-44.3l-36.2,54.3c-38.9,58.4-75.1,122.2-90.5,159.7-9.5,22.2-11.3,24.9-15.8,20.4-4.1-4.1-2.3-11.8,9.5-42.1,16.3-40.3,40.7-84.2,81-144.4l33.5-50.2-19.9,2.3c-33.9,3.6-85.1,14.9-110,24-24.9,9-29.4,9-26.2-.5,5-12.2,73.3-32.6,133.5-39.4l36.2-4.1,12.7-16.7c6.8-9.5,14.5-16.3,16.7-16.3,8.6,0,8.2,6.8-.5,19.5l-8.6,12.7,12.7,.9c24,1.4,74.7,8.6,81.9,11.3,4.4,1.9,8,5.5,8,8.2h0Z"/><path class="e" d="M690.4,469c-18.6,9-19,9-27.6,3.6-5-3.2-10-9-10.9-12.2-.9-4.1-2.3-6.3-3.2-6.3s-9.5,5-19,11.3c-21.7,14.9-34.4,15.4-42.1,3.6-7.2-10.9-2.7-23.1,13.6-38.9s30.8-17.2,48.9-3.6c12.7,9.5,14.5,12.2,14.5,24,0,7.7,.9,13.6,1.8,13.6s10.9-4.5,21.7-10c12.2-6.8,21.3-9,24.4-7.2,6.9,4.4,.5,10.7-22.1,22.1h0Zm-56.1-39.4c-4.5,0-24,17.2-28.1,24.4-5,9-.9,8.1,17.7-5.9,14.9-10.8,19-18.5,10.4-18.5h0Z"/><path class="e" d="M909.4,446.4c0,1.8-15.8,12.7-35.8,24.4-43,25.3-64.7,30.3-74.2,16.7-7.7-11.3-7.2-18.6,2.7-35.8,9.5-16.3,17.2-22.2,30.3-22.2,10,0,19.9,10.9,17.2,18.5-2.7,7.2-8.2,7.2-13.1,0-3.6-5-5-4.1-13.1,5.4-9.5,11.3-15.4,26.2-11.3,29.9,1.4,1.4,21.3-7.2,44.3-18.5,40.8-20.7,53-24.8,53-18.4h0Z"/><path class="e" d="M994,469c-18.6,9-19,9-27.6,3.6-5-3.2-10-9-10.9-12.2-.9-4.1-2.3-6.3-3.2-6.3s-9.5,5-19,11.3c-21.7,14.9-34.4,15.4-42.1,3.6-7.2-10.9-2.7-23.1,13.6-38.9s30.8-17.2,48.9-3.6c12.7,9.5,14.5,12.2,14.5,24,0,7.7,.9,13.6,1.8,13.6s10.9-4.5,21.7-10c12.2-6.8,21.3-9,24.4-7.2,6.9,4.4,.6,10.7-22.1,22.1h0Zm-56.1-39.4c-4.5,0-24,17.2-28.1,24.4-5,9-.9,8.1,17.7-5.9,15-10.8,19-18.5,10.4-18.5h0Z"/><path class="e" d="M1085,464.5c-17.7,12.2-38.5,25.8-46.2,29.9-17.2,8.1-36.2,9.5-42.1,1.8-7.7-8.6-1.8-31.7,18.1-71.5,19-38,51.1-82.8,63.8-88.2,4.5-2.3,8.6-1.8,10.9,.9,2.7,2.3,.4,6.8-8.6,16.7-31.2,34.9-78.3,122.6-73.3,137.1,.9,4.1,39.8-15.4,72.4-36.2,13.1-9,26.2-14.9,30.3-14.5,5.5,.9,0,6.3-25.3,24h0Z"/><path class="e" d="M1208.6,458.1c-33.5,20.8-62,33.5-79.7,35.8-12.7,1.4-15.8,0-24-7.7-7.2-7.2-8.6-11.3-7.2-20.4,2.3-13.6,17.7-38.9,24.9-41.6,8.6-3.2,13.6,4.5,7.2,11.8-8.2,9-20.4,38-18.1,43.4,3.6,9.5,19.5,5,67.4-19,53.4-26.3,70.6-27.6,29.5-2.3h0Zm-72-47.5c-1.4-1.4,.4-6.8,3.2-11.8,5-8.1,6.8-9,12.7-6.3,6.3,3.6,6.3,4.1-1.4,12.2-8.2,8.2-10.9,9.5-14.5,5.9h0Z"/><path class="e" d="M1387.3,439.6c0,3.6-49.3,36.2-65.6,43-22.6,9-43.9,4.5-49.8-11.8-2.3-5.9-4.5-5-22.6,7.2-20.8,14-24.4,14.9-33.9,9.5-11.8-7.2-4.5-32.6,14.9-48.9,11.8-10,29-11.8,37.6-3.6,5,4.5,7.2,2.3,24.9-23.1,17.7-26.2,68.3-84.6,73.3-84.6,1.4,0,4.5,1.4,7.2,3.2,3.2,2.3-1.4,9.5-20.4,31.2-45.3,52.5-72,96.9-67,110.4,4.5,12.2,26.2,5.9,67.9-19.9,25.8-15.8,33.5-18.1,33.5-12.6h0Zm-127.6,.9c-5-4.1-7.2-3.2-19,9-14,15.4-20.8,30.3-10.9,24.9,3.2-1.8,12.2-9,20.8-16.3,13.2-11.8,14.1-13.6,9.1-17.6h0Z"/><path class="e" d="M1472.4,469c-18.6,9-19,9-27.6,3.6-5-3.2-10-9-10.9-12.2-.9-4.1-2.3-6.3-3.2-6.3s-9.5,5-19,11.3c-21.7,14.9-34.4,15.4-42.1,3.6-7.2-10.9-2.7-23.1,13.6-38.9,16.3-15.8,30.8-17.2,48.9-3.6,12.7,9.5,14.5,12.2,14.5,24,0,7.7,.9,13.6,1.8,13.6s10.9-4.5,21.7-10c12.2-6.8,21.3-9,24.4-7.2,6.9,4.4,.5,10.7-22.1,22.1h0Zm-56.1-39.4c-4.5,0-24,17.2-28.1,24.4-5,9-.9,8.1,17.7-5.9,14.9-10.8,19-18.5,10.4-18.5h0Z"/><path class="e" d="M1654.8,439.6c0,3.6-49.3,36.2-65.6,43-22.6,9-43.9,4.5-49.8-11.8-2.3-5.9-4.5-5-22.6,7.2-20.8,14-24.4,14.9-33.9,9.5-11.8-7.2-4.5-32.6,14.9-48.9,11.8-10,29-11.8,37.6-3.6,5,4.5,7.2,2.3,24.9-23.1,17.7-26.2,68.3-84.6,73.3-84.6,1.4,0,4.5,1.4,7.2,3.2,3.2,2.3-1.4,9.5-20.4,31.2-45.3,52.5-72,96.9-67,110.4,4.5,12.2,26.2,5.9,67.9-19.9,25.8-15.8,33.5-18.1,33.5-12.6h0Zm-127.6,.9c-5-4.1-7.2-3.2-19,9-14,15.4-20.8,30.3-10.9,24.9,3.2-1.8,12.2-9,20.8-16.3,13.1-11.8,14-13.6,9.1-17.6h0Z"/><path class="e" d="M59.1,832.7H1327.2c32.6,0,59.1,26.4,59.1,59.1v37.2c0,32.6-26.4,59.1-59.1,59.1H59.1c-32.7-.1-59.1-26.5-59.1-59.2v-37.2c0-32.5,26.4-59,59.1-59Z"/><path class="d" d="M59.1,832.7H685.9c32.6,0,59.1,26.4,59.1,59.1v37.2c0,32.6-26.4,59.1-59.1,59.1H59.1c-32.7-.1-59.1-26.5-59.1-59.2v-37.2c0-32.5,26.4-59,59.1-59Z"/><g><path class="f" d="M83,899.7v-.1c-.1-.6,0-1.2,0-1.8v-.2c.1-.2,0-.4,.1-.5,0-.4,.1-.8,.1-1.2,.1-.7,.3-1.5,.5-2.2,.2-.8,.5-1.5,.8-2.3,.6-1.2,1.2-2.3,2.1-3.3,.4-.5,.8-1,1.3-1.4,1-1,2.2-1.7,3.5-2.2,1.2-.5,2.5-.8,3.8-1.1,.3,0,.6-.1,.9-.1,.2-.1,.5,0,.8,0h.9c.3,.1,.6,0,.8,0,.2,.1,.4,.1,.6,.1,1.1,.2,1.9,.8,2.5,1.7,.7,1.1,1,2.3,1.3,3.5,.5,2.1,1,4.2,1.4,6.2,.3,1.2,.5,2.4,.7,3.7,.1,.4,.1,.7,.2,1.1,.1,.3,0,.5,0,.8-.3,1.1-1.2,1.7-2.1,2.3-.8,.4-1.6,.7-2.4,1-.6,.3-1.2,.5-1.8,.9-.3,.2-.6,.4-.6,.8v.7c.1,.9,.3,1.7,.7,2.6,.5,1.2,1.1,2.5,1.7,3.7,1,2,2.2,3.8,3.6,5.6,.7,.9,1.5,1.8,2.3,2.7l.1,.1c.1,0,.2,.1,.2,.2l1.5,1.5c.3,.2,.6,.5,.8,.7,1,1,2.2,1.8,3.4,2.7,.9,.6,1.7,1.3,2.6,1.9,.7,.5,1.4,.8,2.2,1,.5,.1,1-.1,1.4-.5,.6-.5,1-1.2,1.4-1.9,.7-1.2,1.5-2.3,2.7-3.1,.6-.4,1.3-.4,2-.2,1.2,.4,2.4,.7,3.6,1.2,1.4,.7,2.9,1.2,4.3,1.8,1.4,.6,2.7,1.2,4.1,1.9,.8,.4,1.6,.8,2.2,1.4,.5,.4,.8,.9,.9,1.6,0,0,0,.1,.1,.1v1.3c-.1,.5-.1,1.1-.2,1.6-.3,1.4-.8,2.7-1.4,3.9-.6,1.2-1.4,2.2-2.3,3.2-1,1.1-2.2,2-3.5,2.8-.7,.4-1.5,.7-2.3,1-1,.3-1.9,.5-2.9,.5h-2.4c-.3-.1-.6,0-.8,0-.4,0-.9-.1-1.3-.1-.5-.1-1.1-.2-1.6-.3-.6-.1-1.1-.3-1.7-.4-.7-.2-1.3-.4-1.9-.7-.8-.3-1.5-.7-2.3-1.1-.8-.5-1.6-.9-2.4-1.5-1.1-.7-2.2-1.4-3.2-2.2-.9-.6-1.7-1.3-2.6-2-.8-.7-1.6-1.3-2.4-2-.7-.6-1.2-1.2-1.9-1.8l-.3-.3c-1-1-1.9-2-2.8-3-1.1-1.3-2.2-2.5-3.3-3.8-1.3-1.5-2.6-3.1-3.7-4.7-.9-1.2-1.8-2.5-2.6-3.7-.7-1.1-1.4-2.2-2-3.3-.5-.8-.9-1.6-1.3-2.4-.4-.9-.9-1.8-1.3-2.7-.5-1.1-1-2.3-1.4-3.5-.3-.9-.6-1.8-.8-2.8-.1-.6-.2-1.2-.3-1.7-.1-.5-.2-1.1-.2-1.6-.1,.2,0,0-.1-.1h0Z"/><path class="f" d="M119.4,876.2c.5,.1,1,.2,1.5,.4,2.1,.5,4.1,1.2,6.1,2.1,2.1,.9,4.2,2.1,6.1,3.4,1.3,.9,2.5,1.9,3.7,2.9,.9,.8,1.7,1.6,2.5,2.5,1,1.1,1.9,2.3,2.8,3.5,1.1,1.6,2.1,3.2,2.9,5,1.2,2.5,2.1,5,2.7,7.7,.4,1.5,.6,3,.8,4.5,.1,.6,.1,1.2,.2,1.8,.1,.2,0,.4,0,.7v.3c.1,.2,0,.5,0,.7v2.2c-.1,.5-.3,.9-.7,1.2-.9,.5-1.9,.3-2.3-.7-.1-.2-.2-.5-.1-.8,.1-.2,.1-.4,0-.6v-1.7c-.1-.2,0-.5,0-.8v-.2c-.1-.2,0-.4,0-.5-.1-.4-.1-.9-.1-1.3-.1-.4-.1-.9-.2-1.3-.1-.6-.2-1.2-.4-1.8-.1-.7-.3-1.4-.5-2.1-.1-.5-.3-1-.4-1.5-.2-.7-.5-1.5-.8-2.2l-.6-1.5c-.3-.7-.6-1.3-.9-1.9-.8-1.5-1.8-3-2.8-4.4-.7-.9-1.4-1.7-2.1-2.5-1.1-1.2-2.2-2.2-3.5-3.2-.9-.7-1.9-1.4-2.8-2-3.4-2.2-7.1-3.7-11-4.6-.2,0-.5-.1-.7-.1-.7-.2-1-.6-1.2-1.2-.2-.8,.4-1.7,1.1-1.8q.1,0,.2-.1c.1-.1,.3-.1,.5-.1h0Z"/><path class="f" d="M139.6,910.5v.2c.1,.4,0,.8,0,1.1-.1,.2-.1,.4-.2,.6-.2,.4-.6,.7-1.1,.8-.2,.1-.4,0-.6,0-.8-.1-1.2-.8-1.3-1.4-.1-.4,0-.8,0-1.2v-.5c-.1-.3-.1-.7-.1-1-.1-.4-.1-.7-.1-1.1,0-.3-.1-.7-.2-1-.1-.7-.3-1.3-.5-2-.2-.8-.5-1.6-.8-2.3-.3-.8-.6-1.6-1-2.3-.8-1.6-1.8-3.1-3-4.4-.9-1-1.8-1.9-2.8-2.8-1-.8-2.1-1.6-3.3-2.3-.7-.4-1.5-.8-2.3-1.1-1.1-.5-2.2-.8-3.4-1.2-.3-.1-.6-.1-.9-.2-.5-.2-.8-.6-.9-1.1-.2-1.2,.8-2.1,1.9-1.9,3.9,.9,7.4,2.6,10.6,5.1,1,.8,2,1.7,2.9,2.7,1.4,1.5,2.7,3.3,3.7,5.1,1.2,2.1,2,4.3,2.6,6.6,.3,1.1,.5,2.2,.6,3.4,0,.5,.1,.9,.2,1.4v.8h0Z"/><path class="f" d="M130.2,910.4c-.2,.7-.6,1.2-1.3,1.3h-.5c-.7-.1-1.2-.6-1.3-1.3v-.3c0-.6,0-1.3-.1-1.9-.1-1.1-.4-2.2-.8-3.2-.5-1.2-1.2-2.3-2-3.2s-1.7-1.6-2.7-2.3c-.9-.6-1.9-1-3-1.3-.4-.1-.9-.1-1.3-.4-.4-.3-.7-.7-.7-1.2,0-1,.3-1.3,1.2-1.7h.7c.7,.2,1.4,.4,2.1,.6,1.7,.6,3.2,1.5,4.6,2.7,1.7,1.4,2.9,3.1,3.9,5.1,.6,1.3,1,2.6,1.2,4,.1,.5,.1,1.1,.2,1.6-.2,.6-.2,1.1-.2,1.5h0Z"/><path class="f" d="M148.8,913.9v-3c.1,0,.1,.1,.1,.2v2.6s0,.1-.1,.2h0Z"/><path class="f" d="M83,897.8v1.8c-.1,0-.1-.1-.1-.2v-1.4c0-.1,0-.2,.1-.2Z"/><path class="f" d="M136.4,910.2c.1,.6,.1,1.1,.1,1.7-.1-.1-.1-.2-.1-.3v-1.4Z"/><path class="f" d="M130.2,910.4v-1.4c.1,.2,.1,.3,0,.5,0,.3,.1,.6,0,.9h0Z"/><path class="f" d="M140.2,932.7v-1.3c.1,.4,.1,.8,0,1.3Z"/><path class="f" d="M139.6,911.8v-1.1c.1,.3,.1,.7,0,1.1Z"/><path class="f" d="M126.2,945.7h1.2c-.5,0-.8-.1-1.2,0Z"/><path class="f" d="M145.6,911.9c.1,.3,.1,.7,0,1v-1Z"/><path class="f" d="M98.7,883.2h-.8c.2,0,.5-.1,.8,0Z"/><path class="f" d="M105.4,900.4v-.8c.1,.3,.1,.5,0,.8Z"/><path class="f" d="M124.3,945.6h.8c-.2,0-.5,.1-.8,0Z"/><path class="f" d="M139.6,910.5c-.1-.3-.1-.5,0-.8,.1,.2,0,.5,0,.8Z"/><path class="f" d="M96.9,883.1h-.8c.3,0,.6,.1,.8,0Z"/><path class="f" d="M145.6,910.5c.1,.2,.1,.5,0,.8-.1-.3,0-.6,0-.8Z"/><path class="f" d="M119.4,876.2h-.7c.3-.1,.5-.1,.7,0Z"/><path class="f" d="M118.2,895h-.7c.3-.1,.5-.1,.7,0Z"/><path class="f" d="M98.5,906.2c-.1-.2-.1-.5,0-.7v.7Z"/><path class="f" d="M148.8,910.6c-.1-.2,0-.4,0-.7,.1,.2,0,.4,0,.7Z"/><path class="f" d="M137.7,913.2h.6c-.2,.1-.4,.1-.6,0Z"/><path class="f" d="M102.9,933.4c.1,0,.2,.2,.3,.3-.2-.1-.3-.2-.3-.3Z"/><path class="f" d="M83.1,897c0,.2,0,.4-.1,.5,0-.2-.1-.4,.1-.5Z"/><path class="f" d="M83,899.7c.1,.2,.1,.4,0,.5v-.5Z"/><path class="f" d="M145.5,909.7c.1,.2,.1,.4,0,.5v-.5Z"/><path class="f" d="M128.4,911.8h.5c-.2,.1-.4,.1-.5,0Z"/><path class="f" d="M107.1,921l-.2-.2c.1,.1,.3,0,.2,.2Z"/></g><g><path class="f" d="M219.3,912.8c1.8,1.9,2.6,4.3,2.6,7.1,0,2.2-.6,4.2-1.7,6-1.1,1.8-2.9,3.3-5.2,4.4s-5.2,1.7-8.6,1.7c-2.6,0-5.2-.3-7.8-1s-4.7-1.7-6.5-3l3.4-6.7c1.4,1.1,3.1,1.9,5,2.5s3.8,.9,5.8,.9c2.2,0,3.9-.4,5.1-1.3s1.9-2,1.9-3.6c0-3.1-2.3-4.6-7-4.6h-4v-5.7l7.7-8.8h-16v-7h26.3v5.6l-8.5,9.7c3.3,.7,5.8,1.9,7.5,3.8h0Z"/><path class="f" d="M240.5,893.9v37.6h-8.7v-30.6h-7.5v-7h16.2Z"/><path class="f" d="M272.1,912.8c1.8,1.9,2.6,4.3,2.6,7.1,0,2.2-.6,4.2-1.7,6s-2.9,3.3-5.2,4.4-5.2,1.7-8.6,1.7c-2.6,0-5.2-.3-7.8-1s-4.7-1.7-6.5-3l3.4-6.7c1.4,1.1,3.1,1.9,5,2.5s3.8,.9,5.8,.9c2.2,0,3.9-.4,5.1-1.3s1.9-2,1.9-3.6c0-3.1-2.3-4.6-7-4.6h-4v-5.7l7.7-8.8h-16v-7h26.2v5.6l-8.5,9.7c3.4,.7,5.9,1.9,7.6,3.8h0Z"/><path class="f" d="M303.6,912.8c1.8,1.9,2.6,4.3,2.6,7.1,0,2.2-.6,4.2-1.7,6s-2.9,3.3-5.2,4.4-5.2,1.7-8.6,1.7c-2.6,0-5.2-.3-7.8-1s-4.7-1.7-6.5-3l3.4-6.7c1.4,1.1,3.1,1.9,5,2.5s3.8,.9,5.8,.9c2.2,0,3.9-.4,5.1-1.3s1.9-2,1.9-3.6c0-3.1-2.3-4.6-7-4.6h-4v-5.7l7.7-8.8h-16v-7h26.3v5.6l-8.5,9.7c3.3,.7,5.8,1.9,7.5,3.8h0Z"/><path class="f" d="M318.1,929.8c-2.4-1.5-4.3-3.8-5.7-6.7-1.4-2.9-2.1-6.4-2.1-10.4s.7-7.5,2.1-10.4,3.3-5.1,5.7-6.7c2.4-1.5,5.2-2.3,8.3-2.3s5.9,.8,8.3,2.3,4.3,3.8,5.7,6.7c1.4,2.9,2.1,6.4,2.1,10.4s-.7,7.5-2.1,10.4-3.3,5.1-5.7,6.7c-2.4,1.5-5.2,2.3-8.3,2.3s-5.9-.8-8.3-2.3Zm13.7-8c1.3-2,2-5,2-9.1s-.6-7.2-2-9.1c-1.3-2-3.1-3-5.4-3s-4,1-5.3,3-2,5-2,9.1,.6,7.2,2,9.1c1.3,2,3.1,3,5.3,3s4.1-1.1,5.4-3Z"/><path class="f" d="M381.1,923.5h-6.1v7.9h-8.5v-7.9h-20.2v-5.8l17.7-23.8h9.1l-16.4,22.6h10.1v-7h8.2v7h6.1v7h0Z"/><path class="f" d="M408.4,912.8c1.8,1.9,2.6,4.3,2.6,7.1,0,2.2-.6,4.2-1.7,6s-2.9,3.3-5.2,4.4-5.2,1.7-8.6,1.7c-2.6,0-5.2-.3-7.8-1s-4.7-1.7-6.5-3l3.4-6.7c1.4,1.1,3.1,1.9,5,2.5s3.8,.9,5.8,.9c2.2,0,3.9-.4,5.1-1.3s1.9-2,1.9-3.6c0-3.1-2.3-4.6-7-4.6h-4v-5.7l7.7-8.8h-16v-7h26.3v5.6l-8.5,9.7c3.3,.7,5.8,1.9,7.5,3.8h0Z"/><path class="f" d="M444,893.9v5.6l-14,31.9h-9.5l13.5-30.5h-12.5v6.1h-7.7v-13.2l30.2,.1h0Z"/><path class="f" d="M476,924.3v7.1h-28.4v-5.6l14.5-13.7c1.5-1.5,2.6-2.7,3.1-3.8,.5-1,.8-2.1,.8-3.1,0-1.5-.5-2.7-1.5-3.5s-2.5-1.2-4.5-1.2c-1.6,0-3.1,.3-4.5,.9s-2.4,1.6-3.3,2.8l-6.3-4.1c1.5-2.2,3.5-3.9,6.1-5.1,2.6-1.2,5.5-1.8,8.9-1.8,2.8,0,5.2,.5,7.3,1.4,2.1,.9,3.7,2.2,4.9,3.9s1.7,3.6,1.7,5.9c0,2-.4,4-1.3,5.7-.9,1.8-2.5,3.8-5,6.1l-8.6,8.2,16.1-.1h0Z"/><path class="f" d="M487.2,929.8c-2.4-1.5-4.3-3.8-5.7-6.7-1.4-2.9-2.1-6.4-2.1-10.4s.7-7.5,2.1-10.4,3.3-5.1,5.7-6.7c2.4-1.5,5.2-2.3,8.3-2.3s5.9,.8,8.3,2.3,4.3,3.8,5.7,6.7c1.4,2.9,2.1,6.4,2.1,10.4s-.7,7.5-2.1,10.4-3.3,5.1-5.7,6.7c-2.4,1.5-5.2,2.3-8.3,2.3s-5.9-.8-8.3-2.3Zm13.7-8c1.3-2,2-5,2-9.1s-.6-7.2-2-9.1c-1.3-2-3.1-3-5.4-3s-4,1-5.3,3-2,5-2,9.1,.6,7.2,2,9.1c1.3,2,3.1,3,5.3,3s4.1-1.1,5.4-3Z"/></g><path class="f" d="M832.2,872.4c-8.5,.3-16.8,5-22.2,14.2-3.8,6.6-4.9,13.7-2.3,21.1,1.2,3.6,2.7,7,4.5,10.4,6.2,11.9,13.7,22.9,21.7,33.7,.5,.7,.8,.7,1.3,0,3.2-4.3,6.3-8.7,9.3-13.1,5.6-8.3,10.9-16.8,14.9-26,1.7-3.8,3.2-7.7,3.3-12,.1-15.5-12.7-28.3-30.5-28.3Zm2.2,41.8c-7.5,0-13.6-6.2-13.5-13.7,0-7.5,6.1-13.5,13.6-13.5s13.7,6.1,13.6,13.7c-.1,7.4-6.3,13.5-13.7,13.5h0Z"/><path class="f" d="M910.9,903.6c1.3-2.3,3.2-4.2,5.5-5.5s4.9-2,7.8-2c3.4,0,6.3,.9,8.8,2.6,2.5,1.7,4.3,4.1,5.3,7.2h-6.9c-.7-1.4-1.7-2.5-2.9-3.2-1.3-.7-2.7-1.1-4.3-1.1-1.8,0-3.3,.4-4.7,1.2s-2.4,2-3.2,3.5-1.1,3.3-1.1,5.3,.4,3.7,1.1,5.2c.8,1.5,1.8,2.7,3.2,3.5s2.9,1.2,4.7,1.2c1.6,0,3.1-.4,4.3-1.1,1.2-.7,2.2-1.8,2.9-3.3h6.9c-1,3.1-2.8,5.5-5.3,7.2s-5.5,2.6-8.9,2.6c-2.9,0-5.5-.7-7.8-2s-4.1-3.1-5.5-5.5c-1.3-2.3-2-5-2-7.9,.1-2.9,.8-5.5,2.1-7.9Z"/><path class="f" d="M952.6,903.5c1.3-.7,2.7-1.1,4.3-1.1v6.3h-1.6c-1.9,0-3.3,.4-4.3,1.3-1,.9-1.4,2.4-1.4,4.7v11.9h-6v-23.9h6v3.7c.7-1.2,1.7-2.2,3-2.9Z"/><path class="f" d="M960.8,908.2c1-1.9,2.3-3.3,3.9-4.3,1.7-1,3.5-1.5,5.5-1.5,1.8,0,3.3,.4,4.7,1.1,1.3,.7,2.4,1.6,3.2,2.7v-3.4h6.1v23.9h-6.1v-3.5c-.8,1.1-1.8,2-3.2,2.8-1.4,.7-2.9,1.1-4.7,1.1-2,0-3.8-.5-5.5-1.6-1.7-1-3-2.5-3.9-4.4-1-1.9-1.4-4-1.4-6.5,0-2.4,.4-4.5,1.4-6.4Zm16.5,2.7c-.6-1-1.4-1.9-2.3-2.4-1-.6-2-.8-3.1-.8s-2.2,.3-3.1,.8c-.9,.5-1.7,1.3-2.3,2.4-.6,1-.9,2.3-.9,3.7s.3,2.7,.9,3.8c.6,1.1,1.4,1.9,2.3,2.5,1,.6,2,.9,3.1,.9s2.2-.3,3.1-.8c1-.6,1.8-1.4,2.3-2.4,.6-1,.9-2.3,.9-3.8s-.3-2.8-.9-3.9Z"/><path class="f" d="M990.1,926c-.7-.7-1.1-1.5-1.1-2.5s.4-1.8,1.1-2.5c.7-.7,1.6-1,2.7-1s1.9,.3,2.6,1c.7,.7,1,1.5,1,2.5s-.3,1.9-1,2.5c-.7,.7-1.6,1-2.6,1-1.1,0-2-.4-2.7-1Z"/><path class="f" d="M1022.2,903.1c0-1.6,.4-3,1.2-4.2,.8-1.3,2-2.3,3.6-3.1s3.5-1.1,5.8-1.1,4.3,.4,5.8,1.1c1.6,.8,2.8,1.8,3.6,3.1,.8,1.3,1.2,2.7,1.2,4.2,0,1.6-.4,3-1.2,4.2-.8,1.2-1.8,2.1-3.1,2.8,1.6,.7,2.8,1.7,3.7,3,.9,1.3,1.3,2.9,1.3,4.7,0,2-.5,3.7-1.5,5.1-1,1.4-2.4,2.6-4.1,3.3-1.7,.8-3.7,1.2-5.8,1.2s-4.1-.4-5.8-1.2c-1.7-.8-3.1-1.9-4.1-3.3-1-1.5-1.5-3.2-1.5-5.1,0-1.8,.4-3.4,1.3-4.7,.9-1.3,2.1-2.3,3.7-3-2.7-1.6-4.1-3.9-4.1-7Zm6.6,10.8c-1,.8-1.5,2-1.5,3.6,0,1.4,.5,2.6,1.5,3.5s2.3,1.4,4,1.4,3-.5,4-1.4,1.5-2.1,1.5-3.5c0-1.5-.5-2.7-1.5-3.6-1-.8-2.3-1.3-4-1.3-1.7,.1-3,.5-4,1.3Zm7.5-13.2c-.8-.8-2-1.2-3.5-1.2-1.4,0-2.6,.4-3.4,1.2s-1.3,1.9-1.3,3.3c0,1.3,.4,2.3,1.3,3.1s2,1.2,3.4,1.2,2.5-.4,3.4-1.2,1.3-1.8,1.3-3.1c0-1.5-.4-2.6-1.2-3.3Z"/><path class="f" d="M1049.6,908.2c1-1.9,2.4-3.3,4.2-4.3,1.8-1,3.8-1.5,6.1-1.5,3,0,5.4,.7,7.4,2.2,1.9,1.5,3.2,3.6,3.9,6.2h-6.5c-.3-1-.9-1.8-1.7-2.4-.8-.6-1.8-.9-3-.9-1.7,0-3.1,.6-4.1,1.9-1,1.2-1.5,3-1.5,5.3s.5,4,1.5,5.3c1,1.2,2.4,1.9,4.1,1.9,2.4,0,4-1.1,4.8-3.3h6.5c-.7,2.6-2,4.6-3.9,6.2-2,1.5-4.4,2.3-7.3,2.3-2.3,0-4.3-.5-6.1-1.5-1.8-1-3.2-2.5-4.2-4.3-1-1.9-1.5-4-1.5-6.5-.2-2.5,.3-4.7,1.3-6.6Z"/><path class="f" d="M1112.4,907.3l-1.4,6.6h5.5v5.4h-6.6l-1.6,7.3h-5.7l1.6-7.3h-7.8l-1.6,7.3h-5.7l1.6-7.3h-6.5v-5.4h7.7l1.4-6.6h-6.5v-5.4h7.6l1.5-7.2h5.7l-1.5,7.2h7.8l1.5-7.2h5.7l-1.5,7.2h5.5v5.4h-6.7Zm-5.7,0h-7.9l-1.4,6.6h7.8l1.5-6.6Z"/><path class="f" d="M1122.7,900.8v-5.6h10.4v31.4h-6.2v-25.9h-4.2v.1Z"/><path class="f" d="M1153.9,900.4c-.7-.6-1.7-.9-3-.9-2,0-3.4,.8-4.4,2.4-.9,1.6-1.4,4.2-1.4,7.8,.7-1.1,1.7-2,3-2.7,1.3-.6,2.8-1,4.3-1,1.9,0,3.5,.4,5,1.2,1.4,.8,2.6,2,3.4,3.5s1.2,3.4,1.2,5.5-.4,3.9-1.2,5.5c-.8,1.6-2,2.8-3.6,3.7s-3.5,1.3-5.6,1.3c-3,0-5.3-.7-7.1-2-1.7-1.3-2.9-3.2-3.6-5.5-.7-2.4-1-5.3-1-8.8,0-5.3,.9-9.2,2.7-11.9s4.7-4,8.6-4c3,0,5.4,.8,7,2.5,1.7,1.6,2.6,3.7,2.9,6.1h-5.6c-.4-1.2-.9-2.1-1.6-2.7Zm-6.8,11.9c-1,.9-1.6,2.2-1.6,3.9s.5,3,1.4,4c1,1,2.3,1.5,4.1,1.5,1.6,0,2.8-.5,3.7-1.4,.9-1,1.4-2.2,1.4-3.8,0-1.7-.4-3-1.3-4s-2.2-1.5-3.9-1.5c-1.5-.1-2.7,.4-3.8,1.3Z"/><path class="f" d="M1165.9,900.8v-5.6h10.4v31.4h-6.2v-25.9h-4.2v.1Z"/><path class="f" d="M1182.9,908.2c1-1.9,2.3-3.3,3.9-4.3,1.7-1,3.5-1.5,5.5-1.5,1.8,0,3.3,.4,4.7,1.1,1.3,.7,2.4,1.6,3.2,2.7v-3.4h6.1v23.9h-6.1v-3.5c-.8,1.1-1.8,2-3.2,2.8-1.4,.7-2.9,1.1-4.7,1.1-2,0-3.8-.5-5.5-1.6-1.7-1-3-2.5-3.9-4.4-1-1.9-1.4-4-1.4-6.5-.1-2.4,.4-4.5,1.4-6.4Zm16.5,2.7c-.6-1-1.4-1.9-2.3-2.4-1-.6-2-.8-3.1-.8s-2.2,.3-3.1,.8-1.7,1.3-2.3,2.4c-.6,1-.9,2.3-.9,3.7s.3,2.7,.9,3.8,1.4,1.9,2.3,2.5c1,.6,2,.9,3.1,.9s2.2-.3,3.1-.8c1-.6,1.8-1.4,2.3-2.4,.6-1,.9-2.3,.9-3.8-.1-1.5-.3-2.8-.9-3.9Z"/><path class="f" d="M1230.6,908.7v5.1h-18.3v-5.1h18.3Z"/><path class="f" d="M1268.3,920.5v-4.7l14.1-20.2h7v19.7h3.8v5.3h-3.8v6.1h-6v-6.1h-15.1v-.1Zm15.5-18.4l-8.8,13.2h8.8v-13.2Z"/><path class="f" d="M1245.84,897.01c1.98-1.67,4.66-2.51,8.05-2.51,2.25,0,4.17,.37,5.78,1.12,1.6,.75,2.82,1.78,3.64,3.08,.82,1.3,1.24,2.76,1.24,4.37,0,1.91-.49,3.46-1.48,4.66-.99,1.2-2.14,2.01-3.46,2.45v.17c1.71,.55,3.06,1.46,4.05,2.73,.99,1.27,1.48,2.9,1.48,4.9,0,1.79-.43,3.37-1.28,4.74-.85,1.37-2.1,2.45-3.73,3.23-1.64,.78-3.57,1.17-5.82,1.17-3.6,0-6.47-.85-8.61-2.56-2.14-1.71-3.28-4.27-3.39-7.71h7.46c.03,1.27,.4,2.28,1.12,3.01,.72,.74,1.77,1.11,3.15,1.11,1.17,0,2.07-.32,2.72-.98,.65-.65,.97-1.51,.97-2.58,0-1.39-.46-2.39-1.37-3.01s-2.37-.93-4.38-.93h-1.44v-6.02h1.44c1.53,0,2.76-.25,3.71-.76,.94-.5,1.42-1.41,1.42-2.71,0-1.04-.3-1.85-.9-2.42s-1.42-.87-2.47-.87c-1.14,0-1.98,.33-2.54,1-.55,.66-.88,1.49-.97,2.47h-7.51c.12-3.09,1.17-5.47,3.15-7.14Z"/></g></g></svg>