<?xml version="1.0" encoding="UTF-8"?><svg xmlns="http://www.w3.org/2000/svg" viewBox="0 0 1781.99 988"><defs><style>.d{fill:#fff;}.e{fill:#fede00;}.f{fill:#021746;}</style></defs><g id="a"/><g id="b"><g id="c"><path class="d" d="M128.83,148.4l-.2-84-41.2,69.2h-14.6L31.83,66.2v82.2H1.43V8.4H28.23l52.4,87L132.23,8.4h26.6l.4,140h-30.4Z"/><path class="d" d="M272.02,51.1c8.93,7.93,13.4,19.9,13.4,35.9v61.4h-29.2v-13.4c-5.87,10-16.8,15-32.8,15-8.27,0-15.43-1.4-21.5-4.2-6.07-2.8-10.7-6.67-13.9-11.6-3.2-4.93-4.8-10.53-4.8-16.8,0-10,3.77-17.87,11.3-23.6,7.53-5.73,19.17-8.6,34.9-8.6h24.8c0-6.8-2.07-12.03-6.2-15.7-4.13-3.67-10.33-5.5-18.6-5.5-5.73,0-11.37,.9-16.9,2.7-5.53,1.8-10.23,4.23-14.1,7.3l-11.2-21.8c5.87-4.13,12.9-7.33,21.1-9.6,8.2-2.27,16.63-3.4,25.3-3.4,16.67,0,29.47,3.97,38.4,11.9Zm-26.6,74.2c4.13-2.47,7.07-6.1,8.8-10.9v-11h-21.4c-12.8,0-19.2,4.2-19.2,12.6,0,4,1.57,7.17,4.7,9.5,3.13,2.33,7.43,3.5,12.9,3.5s10.07-1.23,14.2-3.7Z"/><path class="d" d="M313.62,0h31.2V148.4h-31.2V0Z"/><path class="d" d="M478.62,103.4h-81.4c1.47,6.67,4.93,11.93,10.4,15.8,5.47,3.87,12.27,5.8,20.4,5.8,5.6,0,10.57-.83,14.9-2.5,4.33-1.67,8.37-4.3,12.1-7.9l16.6,18c-10.13,11.6-24.93,17.4-44.4,17.4-12.13,0-22.87-2.37-32.2-7.1-9.33-4.73-16.53-11.3-21.6-19.7-5.07-8.4-7.6-17.93-7.6-28.6s2.5-20.03,7.5-28.5c5-8.47,11.87-15.07,20.6-19.8,8.73-4.73,18.5-7.1,29.3-7.1s20.07,2.27,28.6,6.8c8.53,4.53,15.23,11.03,20.1,19.5,4.87,8.47,7.3,18.3,7.3,29.5,0,.4-.2,3.2-.6,8.4Zm-73-34.6c-4.8,4-7.73,9.47-8.8,16.4h53c-1.07-6.8-4-12.23-8.8-16.3-4.8-4.07-10.67-6.1-17.6-6.1s-13,2-17.8,6Z"/><path class="d" d="M569.42,143.2c-3.07,2.27-6.83,3.97-11.3,5.1-4.47,1.13-9.17,1.7-14.1,1.7-12.8,0-22.7-3.27-29.7-9.8-7-6.53-10.5-16.13-10.5-28.8v-44.2h-16.6v-24h16.6V17h31.2v26.2h26.8v24h-26.8v43.8c0,4.53,1.17,8.03,3.5,10.5,2.33,2.47,5.63,3.7,9.9,3.7,4.93,0,9.13-1.33,12.6-4l8.4,22Z"/><path class="d" d="M668.82,51.1c8.93,7.93,13.4,19.9,13.4,35.9v61.4h-29.2v-13.4c-5.87,10-16.8,15-32.8,15-8.27,0-15.43-1.4-21.5-4.2-6.07-2.8-10.7-6.67-13.9-11.6-3.2-4.93-4.8-10.53-4.8-16.8,0-10,3.77-17.87,11.3-23.6,7.53-5.73,19.17-8.6,34.9-8.6h24.8c0-6.8-2.07-12.03-6.2-15.7-4.13-3.67-10.33-5.5-18.6-5.5-5.73,0-11.37,.9-16.9,2.7-5.53,1.8-10.23,4.23-14.1,7.3l-11.2-21.8c5.87-4.13,12.9-7.33,21.1-9.6,8.2-2.27,16.63-3.4,25.3-3.4,16.67,0,29.47,3.97,38.4,11.9Zm-26.6,74.2c4.13-2.47,7.07-6.1,8.8-10.9v-11h-21.4c-12.8,0-19.2,4.2-19.2,12.6,0,4,1.57,7.17,4.7,9.5,3.13,2.33,7.43,3.5,12.9,3.5s10.07-1.23,14.2-3.7Z"/><path class="d" d="M720.42,146.7c-8.54-2.2-15.33-4.97-20.4-8.3l10.4-22.4c4.8,3.07,10.6,5.57,17.4,7.5,6.8,1.93,13.47,2.9,20,2.9,13.2,0,19.8-3.27,19.8-9.8,0-3.07-1.8-5.27-5.4-6.6-3.6-1.33-9.13-2.47-16.6-3.4-8.8-1.33-16.07-2.87-21.8-4.6-5.73-1.73-10.7-4.8-14.9-9.2-4.2-4.4-6.3-10.67-6.3-18.8,0-6.8,1.97-12.83,5.9-18.1,3.93-5.27,9.67-9.37,17.2-12.3,7.53-2.93,16.43-4.4,26.7-4.4,7.6,0,15.17,.83,22.7,2.5,7.53,1.67,13.77,3.97,18.7,6.9l-10.4,22.2c-9.47-5.33-19.8-8-31-8-6.67,0-11.67,.93-15,2.8-3.33,1.87-5,4.27-5,7.2,0,3.33,1.8,5.67,5.4,7,3.6,1.33,9.33,2.6,17.2,3.8,8.8,1.47,16,3.03,21.6,4.7,5.6,1.67,10.47,4.7,14.6,9.1,4.13,4.4,6.2,10.53,6.2,18.4,0,6.67-2,12.6-6,17.8-4,5.2-9.83,9.23-17.5,12.1-7.67,2.87-16.77,4.3-27.3,4.3-8.93,0-17.67-1.1-26.2-3.3Z"/><path class="d" d="M842.42,116.5c3.6,3.53,5.4,8.17,5.4,13.9,0,2.67-.33,5.33-1,8-.67,2.67-2.13,6.67-4.4,12l-11.4,28.8h-19.8l8.8-31.8c-3.33-1.33-5.97-3.5-7.9-6.5-1.93-3-2.9-6.5-2.9-10.5,0-5.73,1.83-10.37,5.5-13.9,3.67-3.53,8.3-5.3,13.9-5.3s10.2,1.77,13.8,5.3Z"/><path class="d" d="M121.6,273.1c4.53,5.93,6.8,13.23,6.8,21.9,0,12.27-4.77,21.7-14.3,28.3-9.53,6.6-23.43,9.9-41.7,9.9H0V193.2H68.4c17.07,0,30.17,3.27,39.3,9.8,9.13,6.53,13.7,15.4,13.7,26.6,0,6.8-1.63,12.87-4.9,18.2-3.27,5.33-7.83,9.53-13.7,12.6,8,2.53,14.27,6.77,18.8,12.7Zm-89.4-55.5v33h32.2c8,0,14.07-1.4,18.2-4.2,4.13-2.8,6.2-6.93,6.2-12.4s-2.07-9.57-6.2-12.3c-4.13-2.73-10.2-4.1-18.2-4.1H32.2Zm57.1,87c4.33-2.8,6.5-7.13,6.5-13,0-11.6-8.6-17.4-25.8-17.4H32.2v34.6h37.8c8.53,0,14.97-1.4,19.3-4.2Z"/><path class="d" d="M171.5,327.7c-9-4.73-16.03-11.3-21.1-19.7-5.07-8.4-7.6-17.93-7.6-28.6s2.53-20.2,7.6-28.6c5.07-8.4,12.1-14.97,21.1-19.7,9-4.73,19.17-7.1,30.5-7.1s21.47,2.37,30.4,7.1c8.93,4.73,15.93,11.3,21,19.7,5.07,8.4,7.6,17.93,7.6,28.6s-2.53,20.2-7.6,28.6c-5.07,8.4-12.07,14.97-21,19.7-8.93,4.73-19.07,7.1-30.4,7.1s-21.5-2.37-30.5-7.1Zm50.2-26.6c5.13-5.4,7.7-12.63,7.7-21.7s-2.57-16.3-7.7-21.7c-5.13-5.4-11.7-8.1-19.7-8.1s-14.6,2.7-19.8,8.1-7.8,12.63-7.8,21.7,2.6,16.3,7.8,21.7,11.8,8.1,19.8,8.1,14.57-2.7,19.7-8.1Z"/><path class="d" d="M279.8,184.8h31.2l2,148.4h-31.2l-2-148.4Z"/><path class="d" d="M352,331.5c-8.54-2.2-15.33-4.97-20.4-8.3l10.4-22.4c4.8,3.07,10.6,5.57,17.4,7.5,6.8,1.93,13.47,2.9,20,2.9,13.2,0,19.8-3.27,19.8-9.8,0-3.07-1.8-5.27-5.4-6.6-3.6-1.33-9.13-2.47-16.6-3.4-8.8-1.33-16.07-2.87-21.8-4.6-5.73-1.73-10.7-4.8-14.9-9.2-4.2-4.4-6.3-10.67-6.3-18.8,0-6.8,1.97-12.83,5.9-18.1,3.93-5.27,9.67-9.37,17.2-12.3,7.53-2.93,16.43-4.4,26.7-4.4,7.6,0,15.17,.83,22.7,2.5,7.53,1.67,13.77,3.97,18.7,6.9l-10.4,22.2c-9.47-5.33-19.8-8-31-8-6.67,0-11.67,.93-15,2.8-3.33,1.87-5,4.27-5,7.2,0,3.33,1.8,5.67,5.4,7,3.6,1.33,9.33,2.6,17.2,3.8,8.8,1.47,16,3.03,21.6,4.7,5.6,1.67,10.47,4.7,14.6,9.1,4.13,4.4,6.2,10.53,6.2,18.4,0,6.67-2,12.6-6,17.8-4,5.2-9.83,9.23-17.5,12.1-7.67,2.87-16.77,4.3-27.3,4.3-8.93,0-17.67-1.1-26.2-3.3Z"/><path class="d" d="M468.9,327.7c-9-4.73-16.03-11.3-21.1-19.7-5.07-8.4-7.6-17.93-7.6-28.6s2.53-20.2,7.6-28.6c5.07-8.4,12.1-14.97,21.1-19.7,9-4.73,19.17-7.1,30.5-7.1s21.47,2.37,30.4,7.1c8.93,4.73,15.93,11.3,21,19.7,5.07,8.4,7.6,17.93,7.6,28.6s-2.53,20.2-7.6,28.6c-5.07,8.4-12.07,14.97-21,19.7-8.93,4.73-19.07,7.1-30.4,7.1s-21.5-2.37-30.5-7.1Zm50.2-26.6c5.13-5.4,7.7-12.63,7.7-21.7s-2.57-16.3-7.7-21.7c-5.13-5.4-11.7-8.1-19.7-8.1s-14.6,2.7-19.8,8.1-7.8,12.63-7.8,21.7,2.6,16.3,7.8,21.7,11.8,8.1,19.8,8.1,14.57-2.7,19.7-8.1Z"/><path class="d" d="M589.2,331.5c-8.54-2.2-15.33-4.97-20.4-8.3l10.4-22.4c4.8,3.07,10.6,5.57,17.4,7.5,6.8,1.93,13.47,2.9,20,2.9,13.2,0,19.8-3.27,19.8-9.8,0-3.07-1.8-5.27-5.4-6.6-3.6-1.33-9.13-2.47-16.6-3.4-8.8-1.33-16.07-2.87-21.8-4.6-5.73-1.73-10.7-4.8-14.9-9.2-4.2-4.4-6.3-10.67-6.3-18.8,0-6.8,1.97-12.83,5.9-18.1,3.93-5.27,9.67-9.37,17.2-12.3,7.53-2.93,16.43-4.4,26.7-4.4,7.6,0,15.17,.83,22.7,2.5,7.53,1.67,13.77,3.97,18.7,6.9l-10.4,22.2c-9.47-5.33-19.8-8-31-8-6.67,0-11.67,.93-15,2.8-3.33,1.87-5,4.27-5,7.2,0,3.33,1.8,5.67,5.4,7,3.6,1.33,9.33,2.6,17.2,3.8,8.8,1.47,16,3.03,21.6,4.7,5.6,1.67,10.47,4.7,14.6,9.1,4.13,4.4,6.2,10.53,6.2,18.4,0,6.67-2,12.6-6,17.8-4,5.2-9.83,9.23-17.5,12.1-7.67,2.87-16.77,4.3-27.3,4.3-8.93,0-17.67-1.1-26.2-3.3Z"/><path class="d" d="M868.09,220.6l-48.6,114.2c-4.93,12.4-11.03,21.13-18.3,26.2-7.27,5.07-16.03,7.6-26.3,7.6-5.6,0-11.13-.87-16.6-2.6-5.47-1.73-9.93-4.13-13.4-7.2l11.4-22.2c2.4,2.13,5.17,3.8,8.3,5,3.13,1.2,6.23,1.8,9.3,1.8,4.27,0,7.73-1.03,10.4-3.1,2.67-2.07,5.07-5.5,7.2-10.3l.4-1-46.6-108.4h32.2l30.2,73,30.4-73h30Z"/><path class="d" d="M1047.79,333.2l-.2-84-41.2,69.2h-14.6l-41-67.4v82.2h-30.4V193.2h26.8l52.4,87,51.6-87h26.6l.4,140h-30.4Z"/><path class="d" d="M1129.89,327.7c-9-4.73-16.03-11.3-21.1-19.7-5.07-8.4-7.6-17.93-7.6-28.6s2.53-20.2,7.6-28.6c5.07-8.4,12.1-14.97,21.1-19.7,9-4.73,19.17-7.1,30.5-7.1s21.47,2.37,30.4,7.1c8.93,4.73,15.93,11.3,21,19.7,5.07,8.4,7.6,17.93,7.6,28.6s-2.53,20.2-7.6,28.6c-5.07,8.4-12.07,14.97-21,19.7-8.93,4.73-19.07,7.1-30.4,7.1s-21.5-2.37-30.5-7.1Zm50.2-26.6c5.13-5.4,7.7-12.63,7.7-21.7s-2.57-16.3-7.7-21.7c-5.13-5.4-11.7-8.1-19.7-8.1s-14.6,2.7-19.8,8.1-7.8,12.63-7.8,21.7,2.6,16.3,7.8,21.7,11.8,8.1,19.8,8.1,14.57-2.7,19.7-8.1Z"/><path class="d" d="M1285.09,228c6.33-2.67,13.63-4,21.9-4v28.8c-3.47-.27-5.8-.4-7-.4-8.93,0-15.93,2.5-21,7.5-5.07,5-7.6,12.5-7.6,22.5v50.8h-31.2v-107.6h29.8v14.2c3.73-5.2,8.77-9.13,15.1-11.8Z"/><path class="d" d="M1406.79,235.9c8.93,7.93,13.4,19.9,13.4,35.9v61.4h-29.2v-13.4c-5.87,10-16.8,15-32.8,15-8.27,0-15.43-1.4-21.5-4.2-6.07-2.8-10.7-6.67-13.9-11.6-3.2-4.93-4.8-10.53-4.8-16.8,0-10,3.77-17.87,11.3-23.6,7.53-5.73,19.17-8.6,34.9-8.6h24.8c0-6.8-2.07-12.03-6.2-15.7-4.13-3.67-10.33-5.5-18.6-5.5-5.73,0-11.37,.9-16.9,2.7-5.53,1.8-10.23,4.23-14.1,7.3l-11.2-21.8c5.87-4.13,12.9-7.33,21.1-9.6,8.2-2.27,16.63-3.4,25.3-3.4,16.67,0,29.47,3.97,38.4,11.9Zm-26.6,74.2c4.13-2.47,7.07-6.1,8.8-10.9v-11h-21.4c-12.8,0-19.2,4.2-19.2,12.6,0,4,1.57,7.17,4.7,9.5,3.13,2.33,7.43,3.5,12.9,3.5s10.07-1.23,14.2-3.7Z"/><path class="d" d="M1448.39,184.8h31.2v148.4h-31.2V184.8Z"/><path class="d" d="M1508.59,184.8h31.2v148.4h-31.2V184.8Z"/><path class="d" d="M1673.59,288.2h-81.4c1.47,6.67,4.93,11.93,10.4,15.8,5.47,3.87,12.27,5.8,20.4,5.8,5.6,0,10.57-.83,14.9-2.5,4.33-1.67,8.37-4.3,12.1-7.9l16.6,18c-10.13,11.6-24.93,17.4-44.4,17.4-12.13,0-22.87-2.37-32.2-7.1-9.33-4.73-16.53-11.3-21.6-19.7-5.07-8.4-7.6-17.93-7.6-28.6s2.5-20.03,7.5-28.5c5-8.47,11.87-15.07,20.6-19.8,8.73-4.73,18.5-7.1,29.3-7.1s20.07,2.27,28.6,6.8c8.53,4.53,15.23,11.03,20.1,19.5,4.87,8.47,7.3,18.3,7.3,29.5,0,.4-.2,3.2-.6,8.4Zm-73-34.6c-4.8,4-7.73,9.47-8.8,16.4h53c-1.07-6.8-4-12.23-8.8-16.3-4.8-4.07-10.67-6.1-17.6-6.1s-13,2-17.8,6Z"/><path class="d" d="M1704.99,331.5c-8.54-2.2-15.33-4.97-20.4-8.3l10.4-22.4c4.8,3.07,10.6,5.57,17.4,7.5,6.8,1.93,13.47,2.9,20,2.9,13.2,0,19.8-3.27,19.8-9.8,0-3.07-1.8-5.27-5.4-6.6-3.6-1.33-9.13-2.47-16.6-3.4-8.8-1.33-16.07-2.87-21.8-4.6-5.73-1.73-10.7-4.8-14.9-9.2-4.2-4.4-6.3-10.67-6.3-18.8,0-6.8,1.97-12.83,5.9-18.1,3.93-5.27,9.67-9.37,17.2-12.3,7.53-2.93,16.43-4.4,26.7-4.4,7.6,0,15.17,.83,22.7,2.5,7.53,1.67,13.77,3.97,18.7,6.9l-10.4,22.2c-9.47-5.33-19.8-8-31-8-6.67,0-11.67,.93-15,2.8-3.33,1.87-5,4.27-5,7.2,0,3.33,1.8,5.67,5.4,7,3.6,1.33,9.33,2.6,17.2,3.8,8.8,1.47,16,3.03,21.6,4.7,5.6,1.67,10.47,4.7,14.6,9.1,4.13,4.4,6.2,10.53,6.2,18.4,0,6.67-2,12.6-6,17.8-4,5.2-9.83,9.23-17.5,12.1-7.67,2.87-16.77,4.3-27.3,4.3-8.93,0-17.67-1.1-26.2-3.3Z"/><path class="e" d="M179.92,439.57c0,3.62-49.33,36.2-65.62,42.99-22.63,9.05-43.9,4.53-49.78-11.77-2.26-5.88-4.53-4.98-22.63,7.24-20.82,14.03-24.44,14.93-33.94,9.5-11.76-7.24-4.53-32.58,14.94-48.88,11.76-9.96,28.96-11.77,37.56-3.62,4.98,4.53,7.24,2.26,24.89-23.08,17.65-26.25,68.33-84.63,73.31-84.63,1.36,0,4.53,1.36,7.24,3.17,3.17,2.26-1.36,9.5-20.37,31.23-45.26,52.5-71.96,96.85-66.98,110.42,4.53,12.22,26.25,5.88,67.88-19.91,25.8-15.84,33.49-18.1,33.49-12.67Zm-127.62,.9c-4.98-4.07-7.24-3.17-19.01,9.05-14.03,15.39-20.82,30.32-10.86,24.89,3.17-1.81,12.22-9.05,20.82-16.29,13.12-11.77,14.03-13.58,9.05-17.65Z"/><path class="e" d="M269.07,451.79c0,10.41-52.49,32.58-76.93,32.58-9.05,0-17.2-1.81-20.37-5.43-10.41-10.41-5.88-31.68,11.31-49.78,14.03-14.93,31.23-10.41,31.23,9.05,0,9.05-15.84,23.99-26.25,24.44-13.58,0-15.39,11.31-2.26,11.31,12.22,0,56.12-14.48,66.52-21.72,9.5-6.79,16.74-7.24,16.74-.45Zm-73.77-5.88c2.72-4.07,5.43-8.6,5.43-10.41,0-4.07-9.96,4.07-14.03,11.77-4.98,9.05,1.81,8.15,8.6-1.36Z"/><path class="e" d="M452.8,468.98c-18.56,9.05-19.01,9.05-27.6,3.62-4.98-3.17-9.96-9.05-10.86-12.22-.9-4.07-2.26-6.34-3.17-6.34s-9.5,4.98-19.01,11.31c-21.72,14.93-34.39,15.39-42.09,3.62-7.24-10.86-2.72-23.08,13.58-38.92,16.29-15.84,30.77-17.2,48.88-3.62,12.67,9.5,14.48,12.22,14.48,23.98,0,7.69,.9,13.58,1.81,13.58s10.86-4.53,21.72-9.96c12.22-6.79,21.27-9.05,24.44-7.24,6.79,4.53,.45,10.86-22.17,22.17Zm-56.12-39.37c-4.53,0-23.98,17.2-28.06,24.44-4.98,9.05-.91,8.15,17.65-5.88,14.93-10.86,19.01-18.55,10.41-18.55Z"/><path class="e" d="M543.76,464.46c-17.65,12.22-38.47,25.8-46.16,29.87-17.2,8.15-36.2,9.5-42.09,1.81-7.69-8.6-1.81-31.68,18.1-71.5,19.01-38.01,51.14-82.82,63.81-88.25,4.53-2.26,8.6-1.81,10.86,.91,2.72,2.26,.45,6.79-8.6,16.74-31.23,34.85-78.29,122.64-73.31,137.12,.91,4.07,39.82-15.39,72.41-36.2,13.12-9.05,26.25-14.93,30.32-14.48,5.43,.9,0,6.34-25.34,23.98Z"/><path class="e" d="M760.99,356.3c0,4.53-2.72,4.98-14.93,2.71-7.69-1.36-34.39-2.26-58.83-2.26h-44.35l-36.2,54.31c-38.92,58.38-75.12,122.19-90.51,159.75-9.5,22.17-11.31,24.89-15.84,20.37-4.07-4.07-2.26-11.77,9.5-42.09,16.29-40.28,40.73-84.17,81.01-144.36l33.49-50.23-19.91,2.26c-33.94,3.62-85.08,14.93-109.97,23.99-24.89,9.05-29.42,9.05-26.25-.45,4.98-12.22,73.32-32.58,133.5-39.37l36.2-4.07,12.67-16.74c6.79-9.5,14.48-16.29,16.74-16.29,8.6,0,8.15,6.79-.45,19.46l-8.6,12.67,12.67,.9c23.99,1.36,74.67,8.6,81.91,11.31,4.53,1.81,8.15,5.43,8.15,8.15Z"/><path class="e" d="M690.39,468.98c-18.56,9.05-19.01,9.05-27.6,3.62-4.98-3.17-9.96-9.05-10.86-12.22-.9-4.07-2.26-6.34-3.17-6.34s-9.5,4.98-19.01,11.31c-21.72,14.93-34.39,15.39-42.09,3.62-7.24-10.86-2.72-23.08,13.58-38.92,16.29-15.84,30.77-17.2,48.88-3.62,12.67,9.5,14.48,12.22,14.48,23.98,0,7.69,.9,13.58,1.81,13.58s10.86-4.53,21.72-9.96c12.22-6.79,21.27-9.05,24.44-7.24,6.79,4.53,.45,10.86-22.17,22.17Zm-56.12-39.37c-4.53,0-23.98,17.2-28.06,24.44-4.98,9.05-.91,8.15,17.65-5.88,14.93-10.86,19.01-18.55,10.41-18.55Z"/><path class="e" d="M909.42,446.36c0,1.81-15.84,12.67-35.75,24.44-42.99,25.34-64.71,30.32-74.22,16.74-7.69-11.31-7.24-18.56,2.72-35.75,9.5-16.29,17.2-22.17,30.32-22.17,9.95,0,19.91,10.86,17.2,18.55-2.72,7.24-8.15,7.24-13.12,0-3.62-4.98-4.98-4.07-13.12,5.43-9.5,11.31-15.39,26.25-11.31,29.87,1.36,1.36,21.27-7.24,44.35-18.55,40.73-20.82,52.95-24.89,52.95-18.55Z"/><path class="e" d="M994.05,468.98c-18.56,9.05-19.01,9.05-27.6,3.62-4.98-3.17-9.96-9.05-10.86-12.22-.9-4.07-2.26-6.34-3.17-6.34s-9.5,4.98-19.01,11.31c-21.72,14.93-34.39,15.39-42.09,3.62-7.24-10.86-2.72-23.08,13.58-38.92,16.29-15.84,30.77-17.2,48.88-3.62,12.67,9.5,14.48,12.22,14.48,23.98,0,7.69,.9,13.58,1.81,13.58s10.86-4.53,21.72-9.96c12.22-6.79,21.27-9.05,24.44-7.24,6.79,4.53,.45,10.86-22.17,22.17Zm-56.12-39.37c-4.53,0-23.98,17.2-28.06,24.44-4.98,9.05-.91,8.15,17.65-5.88,14.93-10.86,19.01-18.55,10.41-18.55Z"/><path class="e" d="M1085.01,464.46c-17.65,12.22-38.47,25.8-46.16,29.87-17.2,8.15-36.2,9.5-42.09,1.81-7.69-8.6-1.81-31.68,18.1-71.5,19.01-38.01,51.14-82.82,63.81-88.25,4.53-2.26,8.6-1.81,10.86,.91,2.72,2.26,.45,6.79-8.6,16.74-31.23,34.85-78.29,122.64-73.31,137.12,.91,4.07,39.82-15.39,72.41-36.2,13.12-9.05,26.25-14.93,30.32-14.48,5.43,.9,0,6.34-25.34,23.98Z"/><path class="e" d="M1208.55,458.12c-33.49,20.82-62,33.49-79.65,35.75-12.67,1.36-15.84,0-23.98-7.69-7.24-7.24-8.6-11.31-7.24-20.37,2.26-13.58,17.65-38.92,24.89-41.63,8.6-3.17,13.58,4.53,7.24,11.77-8.15,9.05-20.36,38.01-18.1,43.44,3.62,9.5,19.46,4.98,67.43-19.01,53.4-26.25,70.6-27.61,29.42-2.26Zm-71.96-47.52c-1.36-1.36,.45-6.79,3.17-11.77,4.98-8.15,6.79-9.05,12.67-6.34,6.34,3.62,6.34,4.07-1.36,12.22-8.15,8.15-10.86,9.5-14.48,5.88Z"/><path class="e" d="M1387.31,439.57c0,3.62-49.33,36.2-65.62,42.99-22.63,9.05-43.9,4.53-49.78-11.77-2.26-5.88-4.53-4.98-22.63,7.24-20.82,14.03-24.44,14.93-33.94,9.5-11.76-7.24-4.53-32.58,14.94-48.88,11.76-9.96,28.96-11.77,37.56-3.62,4.98,4.53,7.24,2.26,24.89-23.08,17.65-26.25,68.33-84.63,73.31-84.63,1.36,0,4.53,1.36,7.24,3.17,3.17,2.26-1.36,9.5-20.37,31.23-45.26,52.5-71.96,96.85-66.98,110.42,4.53,12.22,26.25,5.88,67.88-19.91,25.8-15.84,33.49-18.1,33.49-12.67Zm-127.62,.9c-4.98-4.07-7.24-3.17-19.01,9.05-14.03,15.39-20.82,30.32-10.86,24.89,3.17-1.81,12.22-9.05,20.82-16.29,13.12-11.77,14.03-13.58,9.05-17.65Z"/><path class="e" d="M1472.39,468.98c-18.56,9.05-19.01,9.05-27.6,3.62-4.98-3.17-9.96-9.05-10.86-12.22-.9-4.07-2.26-6.34-3.17-6.34s-9.5,4.98-19.01,11.31c-21.72,14.93-34.39,15.39-42.09,3.62-7.24-10.86-2.72-23.08,13.58-38.92,16.29-15.84,30.77-17.2,48.88-3.62,12.67,9.5,14.48,12.22,14.48,23.98,0,7.69,.9,13.58,1.81,13.58s10.86-4.53,21.72-9.96c12.22-6.79,21.27-9.05,24.44-7.24,6.79,4.53,.45,10.86-22.17,22.17Zm-56.12-39.37c-4.53,0-23.98,17.2-28.06,24.44-4.98,9.05-.91,8.15,17.65-5.88,14.93-10.86,19.01-18.55,10.41-18.55Z"/><path class="e" d="M1654.77,439.57c0,3.62-49.33,36.2-65.62,42.99-22.63,9.05-43.9,4.53-49.78-11.77-2.26-5.88-4.53-4.98-22.63,7.24-20.82,14.03-24.44,14.93-33.94,9.5-11.76-7.24-4.53-32.58,14.94-48.88,11.76-9.96,28.96-11.77,37.56-3.62,4.98,4.53,7.24,2.26,24.89-23.08,17.65-26.25,68.33-84.63,73.31-84.63,1.36,0,4.53,1.36,7.24,3.17,3.17,2.26-1.36,9.5-20.37,31.23-45.26,52.5-71.96,96.85-66.98,110.42,4.53,12.22,26.25,5.88,67.88-19.91,25.8-15.84,33.49-18.1,33.49-12.67Zm-127.62,.9c-4.98-4.07-7.24-3.17-19.01,9.05-14.03,15.39-20.82,30.32-10.86,24.89,3.17-1.81,12.22-9.05,20.82-16.29,13.12-11.77,14.03-13.58,9.05-17.65Z"/><rect class="e" x="0" y="832.71" width="1386.26" height="155.29" rx="59.06" ry="59.06"/><rect class="d" x="0" y="832.71" width="744.89" height="155.29" rx="59.06" ry="59.06"/><g><path class="f" d="M83.01,899.65v-.13c-.05-.59-.04-1.18,0-1.77,.02-.08,.03-.16,0-.24,.06-.18-.02-.37,.05-.54-.02-.39,.06-.78,.12-1.15,.12-.74,.26-1.48,.48-2.2,.23-.77,.48-1.55,.83-2.28,.56-1.18,1.24-2.29,2.08-3.3,.41-.5,.84-.97,1.32-1.41,1.04-.96,2.21-1.71,3.53-2.24,1.24-.5,2.53-.84,3.85-1.07,.3-.05,.61-.08,.92-.12,.25-.07,.5,.02,.75-.05h.95c.28,.06,.57-.02,.85,.04,.19,.09,.41,.06,.61,.1,1.1,.2,1.89,.84,2.49,1.74,.72,1.07,1.03,2.3,1.31,3.53,.48,2.08,.96,4.16,1.39,6.24,.26,1.21,.48,2.44,.65,3.67,.05,.37,.14,.74,.2,1.1,.05,.28,.03,.55,0,.83-.3,1.12-1.16,1.74-2.09,2.28-.75,.44-1.57,.72-2.36,1.04-.63,.26-1.24,.54-1.81,.9-.28,.18-.56,.41-.61,.79-.03,.24-.03,.48,0,.72,.09,.89,.31,1.74,.67,2.56,.54,1.25,1.11,2.48,1.74,3.68,1.04,1.98,2.25,3.85,3.59,5.63,.71,.94,1.46,1.85,2.28,2.71,.04,.04,.09,.08,.13,.12,.09,.04,.15,.11,.18,.2,.46,.54,.99,1.02,1.49,1.51,.26,.25,.55,.48,.81,.74,1.04,1,2.21,1.85,3.37,2.7,.86,.64,1.73,1.27,2.6,1.9,.67,.48,1.42,.83,2.23,1,.54,.12,.99-.11,1.39-.46,.62-.54,1.03-1.23,1.44-1.93,.7-1.18,1.48-2.31,2.67-3.06,.63-.39,1.3-.42,1.98-.2,1.22,.39,2.45,.73,3.62,1.25,1.42,.65,2.9,1.17,4.33,1.79,1.38,.6,2.73,1.24,4.06,1.94,.79,.41,1.59,.81,2.25,1.42,.46,.43,.79,.93,.85,1.57,0,.04,.03,.08,.05,.12,.04,.43,.04,.87,0,1.3-.08,.53-.13,1.06-.24,1.58-.28,1.38-.8,2.68-1.45,3.92-.61,1.16-1.39,2.2-2.27,3.18-1.01,1.12-2.18,2.03-3.48,2.76-.72,.41-1.5,.72-2.31,.96-.96,.28-1.93,.46-2.93,.51-.08,0-.15,.03-.23,.05-.29,.05-.59,.01-.89,.02-.09,0-.19-.02-.28,.02h-1c-.28-.06-.57,.02-.85-.05-.44,.02-.88-.06-1.31-.12-.53-.07-1.05-.17-1.58-.29-.56-.14-1.12-.26-1.68-.42-.65-.19-1.29-.41-1.92-.66-.77-.31-1.53-.67-2.26-1.07-.83-.45-1.63-.94-2.42-1.45-1.08-.69-2.15-1.4-3.19-2.16-.87-.63-1.72-1.28-2.55-1.96-.81-.66-1.59-1.35-2.37-2.04-.65-.57-1.24-1.2-1.86-1.8-.1-.09-.19-.18-.29-.26-.97-.98-1.94-1.96-2.85-3-1.11-1.26-2.21-2.52-3.29-3.79-1.3-1.53-2.55-3.1-3.74-4.71-.9-1.21-1.75-2.45-2.57-3.72-.69-1.08-1.37-2.16-2.01-3.27-.46-.8-.92-1.61-1.34-2.43-.45-.88-.89-1.77-1.29-2.67-.51-1.14-.97-2.31-1.38-3.49-.31-.9-.59-1.82-.8-2.75-.13-.57-.24-1.16-.33-1.74-.08-.54-.19-1.07-.22-1.61-.06-.18,.01-.37-.04-.55Z"/><path class="f" d="M119.42,876.21c.51,.12,1.01,.24,1.52,.37,2.08,.52,4.11,1.22,6.07,2.08,2.13,.94,4.16,2.06,6.07,3.38,1.3,.89,2.53,1.87,3.71,2.92,.89,.8,1.74,1.63,2.54,2.52,1.01,1.11,1.95,2.29,2.82,3.53,1.11,1.58,2.09,3.24,2.93,4.98,1.2,2.47,2.1,5.04,2.73,7.71,.35,1.48,.6,2.97,.78,4.48,.07,.58,.12,1.16,.17,1.75,.06,.21-.02,.44,.04,.65-.03,.1-.01,.19,0,.29,.05,.24,.02,.48,.02,.72,0,.68,0,1.36,0,2.04,0,.08,.02,.17-.02,.25-.11,.47-.29,.9-.73,1.16-.89,.54-1.91,.29-2.34-.7-.11-.25-.19-.53-.11-.84,.05-.18,.05-.39,0-.59,.04-.35,.03-.69,0-1.04,.03-.22,.01-.43,0-.65-.06-.25,.02-.51-.04-.76,.03-.08,.01-.15,0-.23-.06-.18,.01-.37-.04-.54-.09-.43-.09-.86-.14-1.29-.06-.44-.11-.89-.17-1.34-.08-.6-.24-1.19-.35-1.79-.12-.7-.3-1.39-.49-2.07-.13-.49-.29-.98-.45-1.47-.24-.74-.49-1.48-.79-2.2-.2-.49-.42-.97-.62-1.46-.28-.66-.61-1.3-.94-1.92-.82-1.54-1.77-3-2.83-4.38-.66-.86-1.37-1.69-2.11-2.49-1.07-1.15-2.23-2.2-3.46-3.19-.91-.73-1.85-1.4-2.82-2.03-3.38-2.21-7.06-3.7-10.98-4.6-.22-.05-.46-.08-.68-.13-.65-.16-1.01-.58-1.19-1.2-.23-.8,.38-1.71,1.07-1.85,.06-.01,.11-.04,.17-.06,.23-.03,.45-.04,.68,0Z"/><path class="f" d="M139.6,910.46v.19c.05,.38,.04,.76,0,1.14-.08,.21-.09,.43-.2,.63-.24,.42-.59,.69-1.05,.81-.2,.08-.41,.04-.62,.02-.77-.12-1.24-.75-1.3-1.41-.05-.4,0-.8-.02-1.21,0-.16,.02-.33-.02-.49-.08-.32-.05-.65-.09-.98-.05-.36-.1-.73-.12-1.1-.02-.34-.09-.67-.16-1-.15-.67-.3-1.34-.46-2-.2-.8-.47-1.58-.78-2.35-.31-.78-.64-1.56-1.03-2.31-.82-1.59-1.82-3.06-2.98-4.41-.87-1-1.82-1.92-2.85-2.76-1.04-.85-2.14-1.6-3.3-2.26-.74-.42-1.51-.78-2.29-1.14-1.1-.5-2.25-.85-3.41-1.2-.3-.09-.61-.13-.9-.25-.51-.21-.81-.6-.91-1.12-.25-1.19,.78-2.12,1.92-1.86,3.92,.9,7.45,2.63,10.61,5.12,1.03,.81,1.98,1.7,2.87,2.66,1.45,1.55,2.69,3.26,3.72,5.12,1.16,2.09,2.02,4.3,2.59,6.62,.27,1.11,.49,2.22,.6,3.36,.04,.46,.1,.92,.16,1.38,.06,.26-.02,.53,.04,.79Z"/><path class="f" d="M130.19,910.44c-.17,.71-.59,1.17-1.3,1.35-.17,.04-.35,.04-.52,0-.7-.1-1.18-.62-1.34-1.28-.02-.1,0-.21,0-.31,.04-.63-.03-1.26-.11-1.88-.14-1.09-.42-2.17-.85-3.19-.5-1.19-1.18-2.27-2.04-3.24-.79-.89-1.69-1.64-2.7-2.26-.94-.57-1.95-1.02-3.02-1.33-.43-.12-.89-.14-1.28-.41-.43-.3-.73-.67-.72-1.22,.01-.97,.29-1.34,1.23-1.69,.22-.04,.45-.03,.68,0,.7,.19,1.4,.38,2.08,.63,1.68,.63,3.21,1.52,4.59,2.68,1.66,1.41,2.95,3.1,3.87,5.08,.6,1.28,1.01,2.63,1.23,4.03,.08,.53,.11,1.06,.2,1.58,.04,.49,.04,.97,0,1.46Z"/><path class="f" d="M148.81,913.87v-3.02c.06,.05,.05,.12,.05,.19,0,.88,0,1.76,0,2.63,0,.07,.01,.14-.05,.19Z"/><path class="f" d="M83,897.75v1.77c-.06-.05-.05-.12-.05-.19,0-.46,0-.93,0-1.39,0-.07-.01-.14,.05-.19Z"/><path class="f" d="M136.38,910.15c.08,.56,.05,1.13,.05,1.69-.08-.08-.05-.18-.05-.27,0-.47,0-.95,0-1.42Z"/><path class="f" d="M130.19,910.44v-1.46c.1,.15,.05,.32,.04,.47-.01,.33,.06,.66-.04,.99Z"/><path class="f" d="M140.23,932.65v-1.3c.08,.43,.08,.87,0,1.3Z"/><path class="f" d="M139.6,911.79v-1.14c.08,.38,.08,.76,0,1.14Z"/><path class="f" d="M126.16,945.65c.39-.05,.77-.04,1.16-.05-.38,.11-.77,.03-1.16,.05Z"/><path class="f" d="M145.64,911.87c.05,.35,.05,.69,0,1.04,0-.35,0-.69,0-1.04Z"/><path class="f" d="M98.71,883.18c-.29,0-.57,0-.85-.04,.28,.01,.57-.06,.85,.04Z"/><path class="f" d="M105.38,900.4c.03-.28,.01-.55,0-.83,.09,.28,.08,.55,0,.83Z"/><path class="f" d="M124.31,945.61c.28,0,.57,0,.85,.05-.28-.01-.57,.06-.85-.05Z"/><path class="f" d="M139.6,910.46c-.05-.26-.05-.53-.04-.79,.1,.26,.03,.53,.04,.79Z"/><path class="f" d="M96.91,883.14c-.25,.05-.5,.05-.75,.05,.24-.11,.5-.03,.75-.05Z"/><path class="f" d="M145.59,910.47c.07,.25,.05,.5,.04,.76-.1-.25-.03-.5-.04-.76Z"/><path class="f" d="M119.42,876.21h-.68c.23-.08,.45-.09,.68,0Z"/><path class="f" d="M118.22,894.99h-.68c.22-.08,.45-.08,.68,0Z"/><path class="f" d="M98.5,906.15c-.07-.24-.09-.48,0-.72v.72Z"/><path class="f" d="M148.8,910.57c-.06-.21-.04-.43-.04-.65,.11,.21,.03,.43,.04,.65Z"/><path class="f" d="M137.73,913.25c.21,0,.41,.02,.62-.02-.2,.12-.41,.09-.62,.02Z"/><path class="f" d="M102.88,933.38c.14,.05,.21,.16,.29,.26-.14-.05-.24-.13-.29-.26Z"/><path class="f" d="M83.06,896.97c0,.18,0,.37-.05,.54,.01-.18-.06-.37,.05-.54Z"/><path class="f" d="M83.01,899.65c.05,.18,.05,.36,.04,.55-.1-.17-.03-.36-.04-.55Z"/><path class="f" d="M145.54,909.69c.06,.18,.05,.36,.04,.54-.1-.17-.03-.36-.04-.54Z"/><path class="f" d="M128.37,911.8h.52c-.17,.08-.35,.08-.52,0Z"/><path class="f" d="M107.09,921.05l-.18-.2c.11,.02,.27,0,.18,.2Z"/></g><g><path class="f" d="M219.32,912.83c1.75,1.91,2.63,4.28,2.63,7.11,0,2.18-.57,4.2-1.72,6.04-1.15,1.84-2.89,3.32-5.23,4.43-2.34,1.11-5.21,1.66-8.61,1.66-2.65,0-5.25-.35-7.81-1.05-2.56-.7-4.73-1.69-6.52-2.98l3.38-6.65c1.43,1.07,3.09,1.91,4.96,2.5,1.88,.59,3.8,.89,5.77,.89,2.18,0,3.9-.42,5.15-1.26,1.25-.84,1.88-2.03,1.88-3.57,0-3.08-2.34-4.62-7.03-4.62h-3.97v-5.74l7.73-8.75h-15.99v-6.98h26.3v5.64l-8.48,9.66c3.29,.54,5.81,1.76,7.57,3.68Z"/><path class="f" d="M240.46,893.86v37.57h-8.69v-30.59h-7.51v-6.98h16.21Z"/><path class="f" d="M272.12,912.83c1.75,1.91,2.63,4.28,2.63,7.11,0,2.18-.57,4.2-1.72,6.04-1.15,1.84-2.89,3.32-5.23,4.43-2.34,1.11-5.21,1.66-8.61,1.66-2.65,0-5.25-.35-7.81-1.05-2.56-.7-4.73-1.69-6.52-2.98l3.38-6.65c1.43,1.07,3.09,1.91,4.96,2.5,1.88,.59,3.8,.89,5.77,.89,2.18,0,3.9-.42,5.15-1.26,1.25-.84,1.88-2.03,1.88-3.57,0-3.08-2.34-4.62-7.03-4.62h-3.97v-5.74l7.73-8.75h-15.99v-6.98h26.3v5.64l-8.48,9.66c3.29,.54,5.81,1.76,7.57,3.68Z"/><path class="f" d="M303.63,912.83c1.75,1.91,2.63,4.28,2.63,7.11,0,2.18-.57,4.2-1.72,6.04-1.15,1.84-2.89,3.32-5.23,4.43-2.34,1.11-5.21,1.66-8.61,1.66-2.65,0-5.25-.35-7.81-1.05-2.56-.7-4.73-1.69-6.52-2.98l3.38-6.65c1.43,1.07,3.09,1.91,4.96,2.5,1.88,.59,3.8,.89,5.77,.89,2.18,0,3.9-.42,5.15-1.26,1.25-.84,1.88-2.03,1.88-3.57,0-3.08-2.34-4.62-7.03-4.62h-3.97v-5.74l7.73-8.75h-15.99v-6.98h26.3v5.64l-8.48,9.66c3.29,.54,5.81,1.76,7.57,3.68Z"/><path class="f" d="M318.06,929.76c-2.43-1.54-4.34-3.77-5.72-6.68-1.38-2.92-2.07-6.39-2.07-10.44s.69-7.52,2.07-10.44c1.38-2.92,3.28-5.14,5.72-6.68,2.43-1.54,5.21-2.31,8.32-2.31s5.89,.77,8.32,2.31c2.43,1.54,4.34,3.77,5.72,6.68,1.38,2.92,2.07,6.4,2.07,10.44s-.69,7.52-2.07,10.44c-1.38,2.92-3.28,5.14-5.72,6.68-2.43,1.54-5.21,2.31-8.32,2.31s-5.89-.77-8.32-2.31Zm13.71-8c1.31-1.97,1.96-5.01,1.96-9.12s-.65-7.16-1.96-9.12c-1.31-1.97-3.1-2.95-5.39-2.95s-4.03,.98-5.34,2.95c-1.31,1.97-1.96,5.01-1.96,9.12s.65,7.16,1.96,9.12c1.31,1.97,3.09,2.95,5.34,2.95s4.09-.98,5.39-2.95Z"/><path class="f" d="M381.12,923.54h-6.12v7.89h-8.48v-7.89h-20.23v-5.85l17.71-23.83h9.12l-16.42,22.59h10.09v-7.03h8.21v7.03h6.12v7.08Z"/><path class="f" d="M408.44,912.83c1.75,1.91,2.63,4.28,2.63,7.11,0,2.18-.57,4.2-1.72,6.04-1.15,1.84-2.89,3.32-5.23,4.43-2.34,1.11-5.21,1.66-8.61,1.66-2.65,0-5.25-.35-7.81-1.05-2.56-.7-4.73-1.69-6.52-2.98l3.38-6.65c1.43,1.07,3.09,1.91,4.96,2.5,1.88,.59,3.8,.89,5.77,.89,2.18,0,3.9-.42,5.15-1.26,1.25-.84,1.88-2.03,1.88-3.57,0-3.08-2.34-4.62-7.03-4.62h-3.97v-5.74l7.73-8.75h-15.99v-6.98h26.3v5.64l-8.48,9.66c3.29,.54,5.81,1.76,7.57,3.68Z"/><path class="f" d="M444.02,893.86v5.64l-13.95,31.93h-9.45l13.47-30.48h-12.45v6.12h-7.73v-13.2h30.11Z"/><path class="f" d="M475.95,924.34v7.08h-28.39v-5.64l14.49-13.69c1.54-1.47,2.58-2.73,3.11-3.78,.54-1.05,.81-2.1,.81-3.14,0-1.5-.51-2.66-1.53-3.46s-2.51-1.21-4.48-1.21c-1.65,0-3.13,.31-4.45,.94-1.32,.63-2.43,1.57-3.33,2.82l-6.33-4.08c1.47-2.18,3.49-3.89,6.06-5.13,2.58-1.23,5.53-1.85,8.86-1.85,2.79,0,5.23,.46,7.33,1.37,2.09,.91,3.72,2.2,4.88,3.86,1.16,1.66,1.74,3.62,1.74,5.88,0,2.04-.43,3.95-1.29,5.74-.86,1.79-2.52,3.83-4.99,6.12l-8.64,8.16h16.15Z"/><path class="f" d="M487.22,929.76c-2.43-1.54-4.34-3.77-5.72-6.68-1.38-2.92-2.07-6.39-2.07-10.44s.69-7.52,2.07-10.44c1.38-2.92,3.28-5.14,5.72-6.68,2.43-1.54,5.21-2.31,8.32-2.31s5.89,.77,8.32,2.31c2.43,1.54,4.34,3.77,5.72,6.68,1.38,2.92,2.07,6.4,2.07,10.44s-.69,7.52-2.07,10.44c-1.38,2.92-3.28,5.14-5.72,6.68-2.43,1.54-5.21,2.31-8.32,2.31s-5.89-.77-8.32-2.31Zm13.71-8c1.31-1.97,1.96-5.01,1.96-9.12s-.65-7.16-1.96-9.12c-1.31-1.97-3.1-2.95-5.39-2.95s-4.03,.98-5.34,2.95c-1.31,1.97-1.96,5.01-1.96,9.12s.65,7.16,1.96,9.12c1.31,1.97,3.09,2.95,5.34,2.95s4.09-.98,5.39-2.95Z"/></g><path class="f" d="M832.2,872.43c-8.54,.35-16.84,4.95-22.22,14.24-3.83,6.6-4.87,13.67-2.34,21.07,1.22,3.57,2.72,7.02,4.45,10.37,6.16,11.91,13.72,22.92,21.68,33.67,.55,.74,.8,.7,1.32,0,3.19-4.3,6.31-8.65,9.29-13.1,5.57-8.31,10.9-16.75,14.91-25.95,1.67-3.82,3.2-7.72,3.26-11.97,.22-15.61-12.52-28.39-30.35-28.33Zm2.17,41.72c-7.51-.02-13.59-6.17-13.54-13.69,.05-7.5,6.11-13.52,13.59-13.5,7.63,.03,13.65,6.11,13.61,13.73-.05,7.43-6.19,13.49-13.65,13.46Z"/><g><path class="f" d="M917.66,925.4c-2.5-1.34-4.46-3.2-5.89-5.59-1.43-2.38-2.14-5.07-2.14-8.08s.71-5.7,2.14-8.08c1.43-2.38,3.39-4.24,5.89-5.59,2.5-1.34,5.31-2.01,8.42-2.01,2.63,0,5,.46,7.12,1.39,2.12,.92,3.9,2.25,5.35,3.98l-4.5,4.16c-2.05-2.37-4.59-3.55-7.62-3.55-1.88,0-3.55,.41-5.02,1.23-1.47,.82-2.62,1.97-3.44,3.44-.82,1.47-1.23,3.15-1.23,5.02s.41,3.55,1.23,5.02c.82,1.47,1.97,2.62,3.44,3.44,1.47,.82,3.15,1.23,5.02,1.23,3.03,0,5.57-1.2,7.62-3.59l4.5,4.16c-1.44,1.76-3.23,3.1-5.37,4.03-2.14,.92-4.52,1.39-7.15,1.39-3.09,0-5.88-.67-8.38-2.01Z"/><path class="f" d="M952.53,904.12c1.37-.58,2.95-.87,4.74-.87v6.24c-.75-.06-1.26-.09-1.52-.09-1.93,0-3.45,.54-4.55,1.62-1.1,1.08-1.65,2.71-1.65,4.87v11h-6.76v-23.3h6.45v3.07c.81-1.13,1.9-1.98,3.27-2.56Z"/><path class="f" d="M978.88,905.83c1.93,1.72,2.9,4.31,2.9,7.77v13.3h-6.32v-2.9c-1.27,2.17-3.64,3.25-7.1,3.25-1.79,0-3.34-.3-4.66-.91-1.31-.61-2.32-1.44-3.01-2.51-.69-1.07-1.04-2.28-1.04-3.64,0-2.17,.82-3.87,2.45-5.11,1.63-1.24,4.15-1.86,7.56-1.86h5.37c0-1.47-.45-2.61-1.34-3.4-.9-.79-2.24-1.19-4.03-1.19-1.24,0-2.46,.19-3.66,.58-1.2,.39-2.22,.92-3.05,1.58l-2.43-4.72c1.27-.89,2.79-1.59,4.57-2.08,1.78-.49,3.6-.74,5.48-.74,3.61,0,6.38,.86,8.32,2.58Zm-5.76,16.07c.89-.53,1.53-1.32,1.91-2.36v-2.38h-4.63c-2.77,0-4.16,.91-4.16,2.73,0,.87,.34,1.55,1.02,2.06,.68,.51,1.61,.76,2.79,.76s2.18-.27,3.07-.8Z"/><path class="f" d="M987.45,926.03c-.81-.81-1.21-1.82-1.21-3.03s.4-2.24,1.21-3.01c.81-.76,1.8-1.15,2.99-1.15s2.18,.38,2.99,1.15c.81,.77,1.21,1.77,1.21,3.01s-.4,2.22-1.21,3.03-1.8,1.21-2.99,1.21-2.18-.4-2.99-1.21Z"/><path class="f" d="M1034.25,913.91c.79,1.21,1.19,2.61,1.19,4.2,0,1.88-.53,3.52-1.6,4.92-1.07,1.4-2.57,2.48-4.5,3.25-1.93,.76-4.17,1.15-6.71,1.15s-4.77-.38-6.69-1.15c-1.92-.76-3.41-1.85-4.46-3.25-1.05-1.4-1.58-3.04-1.58-4.92,0-1.59,.4-2.99,1.19-4.2,.79-1.21,1.93-2.19,3.4-2.94-1.13-.69-1.99-1.57-2.6-2.62-.61-1.05-.91-2.26-.91-3.62,0-1.76,.49-3.29,1.47-4.59,.98-1.3,2.35-2.3,4.11-3.01,1.76-.71,3.78-1.06,6.06-1.06s4.35,.35,6.13,1.06c1.78,.71,3.15,1.71,4.14,3.01,.98,1.3,1.47,2.83,1.47,4.59,0,1.36-.3,2.56-.91,3.62-.61,1.05-1.49,1.93-2.64,2.62,1.5,.75,2.65,1.73,3.44,2.94Zm-7.45,7.17c1.02-.79,1.54-1.85,1.54-3.18s-.51-2.38-1.54-3.16c-1.03-.78-2.42-1.17-4.18-1.17s-3.1,.39-4.11,1.17c-1.01,.78-1.52,1.83-1.52,3.16s.5,2.43,1.52,3.2c1.01,.78,2.38,1.17,4.11,1.17s3.15-.4,4.18-1.19Zm-7.58-18.84c-.85,.68-1.28,1.61-1.28,2.79s.42,2.06,1.26,2.73c.84,.66,1.98,1,3.42,1s2.6-.33,3.46-1c.87-.66,1.3-1.57,1.3-2.73s-.43-2.11-1.3-2.79c-.87-.68-2.02-1.02-3.46-1.02s-2.55,.34-3.4,1.02Z"/><path class="f" d="M1046.68,925.4c-2.5-1.34-4.46-3.2-5.89-5.59-1.43-2.38-2.14-5.07-2.14-8.08s.71-5.7,2.14-8.08c1.43-2.38,3.39-4.24,5.89-5.59,2.5-1.34,5.31-2.01,8.42-2.01,2.63,0,5,.46,7.12,1.39,2.12,.92,3.9,2.25,5.35,3.98l-4.5,4.16c-2.05-2.37-4.59-3.55-7.62-3.55-1.88,0-3.55,.41-5.02,1.23-1.47,.82-2.62,1.97-3.44,3.44-.82,1.47-1.23,3.15-1.23,5.02s.41,3.55,1.23,5.02c.82,1.47,1.97,2.62,3.44,3.44,1.47,.82,3.15,1.23,5.02,1.23,3.03,0,5.57-1.2,7.62-3.59l4.5,4.16c-1.44,1.76-3.23,3.1-5.37,4.03-2.14,.92-4.52,1.39-7.15,1.39-3.09,0-5.88-.67-8.38-2.01Z"/><path class="f" d="M1104.17,915.25h5.63v4.72h-6.19l-.87,6.93h-4.89l.87-6.93h-6.37l-.87,6.93h-4.85l.87-6.93h-5.67v-4.72h6.24l.91-7.02h-5.67v-4.72h6.24l.87-6.93h4.85l-.87,6.93h6.37l.87-6.93h4.85l-.87,6.93h5.63l.04,4.72h-6.24l-.87,7.02Zm-4.89,0l.91-7.02h-6.37l-.91,7.02h6.37Z"/><path class="f" d="M1125.52,896.58v30.32h-7.02v-24.69h-6.06v-5.63h13.08Z"/><path class="f" d="M1150.68,909.06c1.59,.78,2.84,1.88,3.77,3.31,.92,1.43,1.39,3.08,1.39,4.96,0,2.02-.51,3.8-1.52,5.33-1.01,1.53-2.39,2.71-4.14,3.53-1.75,.82-3.69,1.23-5.82,1.23-4.24,0-7.56-1.3-9.96-3.9-2.4-2.6-3.59-6.31-3.59-11.13,0-3.44,.65-6.38,1.95-8.83,1.3-2.45,3.11-4.32,5.44-5.59,2.32-1.27,5.02-1.91,8.08-1.91,1.62,0,3.17,.18,4.66,.54,1.49,.36,2.75,.87,3.79,1.54l-2.6,5.15c-1.5-1.01-3.39-1.52-5.67-1.52-2.57,0-4.61,.75-6.11,2.25-1.5,1.5-2.31,3.68-2.43,6.54,1.79-1.79,4.29-2.69,7.49-2.69,1.93,0,3.7,.39,5.28,1.17Zm-3.05,11.91c.94-.81,1.41-1.91,1.41-3.29s-.47-2.49-1.41-3.31c-.94-.82-2.19-1.23-3.75-1.23s-2.79,.43-3.77,1.28c-.98,.85-1.47,1.94-1.47,3.27s.48,2.41,1.43,3.25c.95,.84,2.25,1.26,3.9,1.26,1.5,0,2.72-.4,3.66-1.21Z"/><path class="f" d="M1170.08,896.58v30.32h-7.02v-24.69h-6.06v-5.63h13.08Z"/><path class="f" d="M1194.51,905.83c1.93,1.72,2.9,4.31,2.9,7.77v13.3h-6.32v-2.9c-1.27,2.17-3.64,3.25-7.1,3.25-1.79,0-3.34-.3-4.66-.91-1.31-.61-2.32-1.44-3.01-2.51-.69-1.07-1.04-2.28-1.04-3.64,0-2.17,.82-3.87,2.45-5.11,1.63-1.24,4.15-1.86,7.56-1.86h5.37c0-1.47-.45-2.61-1.34-3.4-.9-.79-2.24-1.19-4.03-1.19-1.24,0-2.46,.19-3.66,.58-1.2,.39-2.22,.92-3.05,1.58l-2.43-4.72c1.27-.89,2.79-1.59,4.57-2.08,1.78-.49,3.6-.74,5.48-.74,3.61,0,6.38,.86,8.32,2.58Zm-5.76,16.07c.89-.53,1.53-1.32,1.91-2.36v-2.38h-4.63c-2.77,0-4.16,.91-4.16,2.73,0,.87,.34,1.55,1.02,2.06,.68,.51,1.61,.76,2.79,.76s2.18-.27,3.07-.8Z"/><path class="f" d="M1202.65,912h12.26v5.41h-12.26v-5.41Z"/><path class="f" d="M1238.21,911.89c1.41,1.54,2.12,3.46,2.12,5.74,0,1.76-.46,3.39-1.39,4.87-.92,1.49-2.33,2.68-4.22,3.57-1.89,.89-4.21,1.34-6.95,1.34-2.14,0-4.24-.28-6.3-.84-2.06-.56-3.82-1.36-5.26-2.4l2.73-5.37c1.15,.87,2.49,1.54,4.01,2.01,1.52,.48,3.07,.71,4.66,.71,1.76,0,3.15-.34,4.16-1.02,1.01-.68,1.52-1.64,1.52-2.88,0-2.48-1.89-3.72-5.67-3.72h-3.2v-4.63l6.24-7.06h-12.91v-5.63h21.22v4.55l-6.84,7.8c2.66,.43,4.69,1.42,6.11,2.97Z"/><path class="f" d="M1271.34,920.53h-4.94v6.37h-6.84v-6.37h-16.33v-4.72l14.29-19.23h7.36l-13.25,18.23h8.14v-5.67h6.63v5.67h4.94v5.72Z"/></g></g></g></svg>