<?xml version="1.0" encoding="utf-8"?>
<!-- Generator: Adobe Illustrator 26.2.1, SVG Export Plug-In . SVG Version: 6.00 Build 0)  -->
<svg version="1.1" id="Capa_1" xmlns="http://www.w3.org/2000/svg" xmlns:xlink="http://www.w3.org/1999/xlink" x="0px" y="0px"
	 viewBox="0 0 1782 988" style="enable-background:new 0 0 1782 988;" xml:space="preserve">
<style type="text/css">
	.st0{fill:#FFFFFF;}
	.st1{fill:#FEDE00;}
	.st2{fill:#021746;}
</style>
<g id="a">
</g>
<path class="st0" d="M128.8,148.4l-0.2-84l-41.2,69.2H72.8l-41-67.4v82.2H1.4V8.4h26.8l52.4,87l51.6-87h26.6l0.4,140H128.8z"/>
<path class="st0" d="M272,51.1C280.9,59,285.4,71,285.4,87v61.4h-29.2V135c-5.9,10-16.8,15-32.8,15c-8.3,0-15.4-1.4-21.5-4.2
	c-6.1-2.8-10.7-6.7-13.9-11.6c-3.2-4.9-4.8-10.5-4.8-16.8c0-10,3.8-17.9,11.3-23.6c7.5-5.7,19.2-8.6,34.9-8.6h24.8
	c0-6.8-2.1-12-6.2-15.7c-4.1-3.7-10.3-5.5-18.6-5.5c-5.7,0-11.4,0.9-16.9,2.7c-5.5,1.8-10.2,4.2-14.1,7.3l-11.2-21.8
	c5.9-4.1,12.9-7.3,21.1-9.6c8.2-2.3,16.6-3.4,25.3-3.4C250.3,39.2,263.1,43.2,272,51.1z M245.4,125.3c4.1-2.5,7.1-6.1,8.8-10.9v-11
	h-21.4c-12.8,0-19.2,4.2-19.2,12.6c0,4,1.6,7.2,4.7,9.5c3.1,2.3,7.4,3.5,12.9,3.5S241.3,127.8,245.4,125.3z"/>
<path class="st0" d="M313.6,0h31.2v148.4h-31.2V0z"/>
<path class="st0" d="M478.6,103.4h-81.4c1.5,6.7,4.9,11.9,10.4,15.8s12.3,5.8,20.4,5.8c5.6,0,10.6-0.8,14.9-2.5s8.4-4.3,12.1-7.9
	l16.6,18c-10.1,11.6-24.9,17.4-44.4,17.4c-12.1,0-22.9-2.4-32.2-7.1c-9.3-4.7-16.5-11.3-21.6-19.7s-7.6-17.9-7.6-28.6
	s2.5-20,7.5-28.5s11.9-15.1,20.6-19.8s18.5-7.1,29.3-7.1s20.1,2.3,28.6,6.8s15.2,11,20.1,19.5s7.3,18.3,7.3,29.5
	C479.2,95.4,479,98.2,478.6,103.4L478.6,103.4z M405.6,68.8c-4.8,4-7.7,9.5-8.8,16.4h53c-1.1-6.8-4-12.2-8.8-16.3
	c-4.8-4.1-10.7-6.1-17.6-6.1S410.4,64.8,405.6,68.8L405.6,68.8z"/>
<path class="st0" d="M569.4,143.2c-3.1,2.3-6.8,4-11.3,5.1S549,150,544,150c-12.8,0-22.7-3.3-29.7-9.8s-10.5-16.1-10.5-28.8V67.2
	h-16.6v-24h16.6V17H535v26.2h26.8v24H535V111c0,4.5,1.2,8,3.5,10.5s5.6,3.7,9.9,3.7c4.9,0,9.1-1.3,12.6-4L569.4,143.2L569.4,143.2z"
	/>
<path class="st0" d="M668.8,51.1C677.8,59,682.2,71,682.2,87v61.4H653V135c-5.9,10-16.8,15-32.8,15c-8.3,0-15.4-1.4-21.5-4.2
	s-10.7-6.7-13.9-11.6c-3.2-4.9-4.8-10.5-4.8-16.8c0-10,3.8-17.9,11.3-23.6c7.5-5.7,19.2-8.6,34.9-8.6H651c0-6.8-2.1-12-6.2-15.7
	S634.5,64,626.2,64c-5.7,0-11.4,0.9-16.9,2.7c-5.5,1.8-10.2,4.2-14.1,7.3L584,52.2c5.9-4.1,12.9-7.3,21.1-9.6
	c8.2-2.3,16.6-3.4,25.3-3.4C647.1,39.2,659.9,43.2,668.8,51.1z M642.2,125.3c4.1-2.5,7.1-6.1,8.8-10.9v-11h-21.4
	c-12.8,0-19.2,4.2-19.2,12.6c0,4,1.6,7.2,4.7,9.5s7.4,3.5,12.9,3.5S638.1,127.8,642.2,125.3z"/>
<path class="st0" d="M720.4,146.7c-8.5-2.2-15.3-5-20.4-8.3l10.4-22.4c4.8,3.1,10.6,5.6,17.4,7.5c6.8,1.9,13.5,2.9,20,2.9
	c13.2,0,19.8-3.3,19.8-9.8c0-3.1-1.8-5.3-5.4-6.6c-3.6-1.3-9.1-2.5-16.6-3.4c-8.8-1.3-16.1-2.9-21.8-4.6c-5.7-1.7-10.7-4.8-14.9-9.2
	c-4.2-4.4-6.3-10.7-6.3-18.8c0-6.8,2-12.8,5.9-18.1c3.9-5.3,9.7-9.4,17.2-12.3s16.4-4.4,26.7-4.4c7.6,0,15.2,0.8,22.7,2.5
	s13.8,4,18.7,6.9l-10.4,22.2c-9.5-5.3-19.8-8-31-8c-6.7,0-11.7,0.9-15,2.8s-5,4.3-5,7.2c0,3.3,1.8,5.7,5.4,7
	c3.6,1.3,9.3,2.6,17.2,3.8c8.8,1.5,16,3,21.6,4.7s10.5,4.7,14.6,9.1s6.2,10.5,6.2,18.4c0,6.7-2,12.6-6,17.8s-9.8,9.2-17.5,12.1
	c-7.7,2.9-16.8,4.3-27.3,4.3C737.7,150,729,148.9,720.4,146.7L720.4,146.7z"/>
<path class="st0" d="M842.4,116.5c3.6,3.5,5.4,8.2,5.4,13.9c0,2.7-0.3,5.3-1,8s-2.1,6.7-4.4,12L831,179.2h-19.8l8.8-31.8
	c-3.3-1.3-6-3.5-7.9-6.5c-1.9-3-2.9-6.5-2.9-10.5c0-5.7,1.8-10.4,5.5-13.9s8.3-5.3,13.9-5.3S838.8,113,842.4,116.5L842.4,116.5z"/>
<path class="st0" d="M121.6,273.1c4.5,5.9,6.8,13.2,6.8,21.9c0,12.3-4.8,21.7-14.3,28.3c-9.5,6.6-23.4,9.9-41.7,9.9H0v-140h68.4
	c17.1,0,30.2,3.3,39.3,9.8s13.7,15.4,13.7,26.6c0,6.8-1.6,12.9-4.9,18.2c-3.3,5.3-7.8,9.5-13.7,12.6
	C110.8,262.9,117.1,267.2,121.6,273.1z M32.2,217.6v33h32.2c8,0,14.1-1.4,18.2-4.2s6.2-6.9,6.2-12.4s-2.1-9.6-6.2-12.3
	c-4.1-2.7-10.2-4.1-18.2-4.1C64.4,217.6,32.2,217.6,32.2,217.6z M89.3,304.6c4.3-2.8,6.5-7.1,6.5-13c0-11.6-8.6-17.4-25.8-17.4H32.2
	v34.6H70C78.5,308.8,85,307.4,89.3,304.6z"/>
<path class="st0" d="M171.5,327.7c-9-4.7-16-11.3-21.1-19.7c-5.1-8.4-7.6-17.9-7.6-28.6s2.5-20.2,7.6-28.6s12.1-15,21.1-19.7
	s19.2-7.1,30.5-7.1s21.5,2.4,30.4,7.1c8.9,4.7,15.9,11.3,21,19.7s7.6,17.9,7.6,28.6s-2.5,20.2-7.6,28.6s-12.1,15-21,19.7
	s-19.1,7.1-30.4,7.1S180.5,332.4,171.5,327.7z M221.7,301.1c5.1-5.4,7.7-12.6,7.7-21.7s-2.6-16.3-7.7-21.7
	c-5.1-5.4-11.7-8.1-19.7-8.1s-14.6,2.7-19.8,8.1c-5.2,5.4-7.8,12.6-7.8,21.7s2.6,16.3,7.8,21.7s11.8,8.1,19.8,8.1
	S216.6,306.5,221.7,301.1z"/>
<path class="st0" d="M279.8,184.8H311l2,148.4h-31.2L279.8,184.8L279.8,184.8z"/>
<path class="st0" d="M352,331.5c-8.5-2.2-15.3-5-20.4-8.3l10.4-22.4c4.8,3.1,10.6,5.6,17.4,7.5s13.5,2.9,20,2.9
	c13.2,0,19.8-3.3,19.8-9.8c0-3.1-1.8-5.3-5.4-6.6c-3.6-1.3-9.1-2.5-16.6-3.4c-8.8-1.3-16.1-2.9-21.8-4.6c-5.7-1.7-10.7-4.8-14.9-9.2
	c-4.2-4.4-6.3-10.7-6.3-18.8c0-6.8,2-12.8,5.9-18.1s9.7-9.4,17.2-12.3c7.5-2.9,16.4-4.4,26.7-4.4c7.6,0,15.2,0.8,22.7,2.5
	s13.8,4,18.7,6.9L415,255.6c-9.5-5.3-19.8-8-31-8c-6.7,0-11.7,0.9-15,2.8c-3.3,1.9-5,4.3-5,7.2c0,3.3,1.8,5.7,5.4,7
	s9.3,2.6,17.2,3.8c8.8,1.5,16,3,21.6,4.7s10.5,4.7,14.6,9.1s6.2,10.5,6.2,18.4c0,6.7-2,12.6-6,17.8c-4,5.2-9.8,9.2-17.5,12.1
	s-16.8,4.3-27.3,4.3C369.3,334.8,360.5,333.7,352,331.5L352,331.5z"/>
<path class="st0" d="M468.9,327.7c-9-4.7-16-11.3-21.1-19.7c-5.1-8.4-7.6-17.9-7.6-28.6s2.5-20.2,7.6-28.6s12.1-15,21.1-19.7
	s19.2-7.1,30.5-7.1s21.5,2.4,30.4,7.1c8.9,4.7,15.9,11.3,21,19.7s7.6,17.9,7.6,28.6s-2.5,20.2-7.6,28.6c-5.1,8.4-12.1,15-21,19.7
	s-19.1,7.1-30.4,7.1S477.9,332.4,468.9,327.7z M519.1,301.1c5.1-5.4,7.7-12.6,7.7-21.7s-2.6-16.3-7.7-21.7
	c-5.1-5.4-11.7-8.1-19.7-8.1s-14.6,2.7-19.8,8.1c-5.2,5.4-7.8,12.6-7.8,21.7s2.6,16.3,7.8,21.7s11.8,8.1,19.8,8.1
	S514,306.5,519.1,301.1z"/>
<path class="st0" d="M589.2,331.5c-8.5-2.2-15.3-5-20.4-8.3l10.4-22.4c4.8,3.1,10.6,5.6,17.4,7.5c6.8,1.9,13.5,2.9,20,2.9
	c13.2,0,19.8-3.3,19.8-9.8c0-3.1-1.8-5.3-5.4-6.6c-3.6-1.3-9.1-2.5-16.6-3.4c-8.8-1.3-16.1-2.9-21.8-4.6s-10.7-4.8-14.9-9.2
	c-4.2-4.4-6.3-10.7-6.3-18.8c0-6.8,2-12.8,5.9-18.1c3.9-5.3,9.7-9.4,17.2-12.3c7.5-2.9,16.4-4.4,26.7-4.4c7.6,0,15.2,0.8,22.7,2.5
	s13.8,4,18.7,6.9l-10.4,22.2c-9.5-5.3-19.8-8-31-8c-6.7,0-11.7,0.9-15,2.8c-3.3,1.9-5,4.3-5,7.2c0,3.3,1.8,5.7,5.4,7
	c3.6,1.3,9.3,2.6,17.2,3.8c8.8,1.5,16,3,21.6,4.7s10.5,4.7,14.6,9.1s6.2,10.5,6.2,18.4c0,6.7-2,12.6-6,17.8
	c-4,5.2-9.8,9.2-17.5,12.1s-16.8,4.3-27.3,4.3C606.5,334.8,597.7,333.7,589.2,331.5L589.2,331.5z"/>
<path class="st0" d="M868.1,220.6l-48.6,114.2c-4.9,12.4-11,21.1-18.3,26.2c-7.3,5.1-16,7.6-26.3,7.6c-5.6,0-11.1-0.9-16.6-2.6
	s-9.9-4.1-13.4-7.2l11.4-22.2c2.4,2.1,5.2,3.8,8.3,5s6.2,1.8,9.3,1.8c4.3,0,7.7-1,10.4-3.1c2.7-2.1,5.1-5.5,7.2-10.3l0.4-1
	l-46.6-108.4h32.2l30.2,73l30.4-73L868.1,220.6L868.1,220.6z"/>
<path class="st0" d="M1047.8,333.2l-0.2-84l-41.2,69.2h-14.6l-41-67.4v82.2h-30.4v-140h26.8l52.4,87l51.6-87h26.6l0.4,140H1047.8z"
	/>
<path class="st0" d="M1129.9,327.7c-9-4.7-16-11.3-21.1-19.7c-5.1-8.4-7.6-17.9-7.6-28.6s2.5-20.2,7.6-28.6s12.1-15,21.1-19.7
	s19.2-7.1,30.5-7.1s21.5,2.4,30.4,7.1c8.9,4.7,15.9,11.3,21,19.7s7.6,17.9,7.6,28.6s-2.5,20.2-7.6,28.6s-12.1,15-21,19.7
	s-19.1,7.1-30.4,7.1S1138.9,332.4,1129.9,327.7z M1180.1,301.1c5.1-5.4,7.7-12.6,7.7-21.7s-2.6-16.3-7.7-21.7
	c-5.1-5.4-11.7-8.1-19.7-8.1s-14.6,2.7-19.8,8.1c-5.2,5.4-7.8,12.6-7.8,21.7s2.6,16.3,7.8,21.7s11.8,8.1,19.8,8.1
	S1175,306.5,1180.1,301.1z"/>
<path class="st0" d="M1285.1,228c6.3-2.7,13.6-4,21.9-4v28.8c-3.5-0.3-5.8-0.4-7-0.4c-8.9,0-15.9,2.5-21,7.5
	c-5.1,5-7.6,12.5-7.6,22.5v50.8h-31.2V225.6h29.8v14.2C1273.7,234.6,1278.8,230.7,1285.1,228L1285.1,228z"/>
<path class="st0" d="M1406.8,235.9c8.9,7.9,13.4,19.9,13.4,35.9v61.4H1391v-13.4c-5.9,10-16.8,15-32.8,15c-8.3,0-15.4-1.4-21.5-4.2
	c-6.1-2.8-10.7-6.7-13.9-11.6c-3.2-4.9-4.8-10.5-4.8-16.8c0-10,3.8-17.9,11.3-23.6s19.2-8.6,34.9-8.6h24.8c0-6.8-2.1-12-6.2-15.7
	s-10.3-5.5-18.6-5.5c-5.7,0-11.4,0.9-16.9,2.7s-10.2,4.2-14.1,7.3L1322,237c5.9-4.1,12.9-7.3,21.1-9.6s16.6-3.4,25.3-3.4
	C1385.1,224,1397.9,228,1406.8,235.9L1406.8,235.9z M1380.2,310.1c4.1-2.5,7.1-6.1,8.8-10.9v-11h-21.4c-12.8,0-19.2,4.2-19.2,12.6
	c0,4,1.6,7.2,4.7,9.5s7.4,3.5,12.9,3.5S1376.1,312.6,1380.2,310.1z"/>
<path class="st0" d="M1448.4,184.8h31.2v148.4h-31.2V184.8z"/>
<path class="st0" d="M1508.6,184.8h31.2v148.4h-31.2V184.8z"/>
<path class="st0" d="M1673.6,288.2h-81.4c1.5,6.7,4.9,11.9,10.4,15.8s12.3,5.8,20.4,5.8c5.6,0,10.6-0.8,14.9-2.5
	c4.3-1.7,8.4-4.3,12.1-7.9l16.6,18c-10.1,11.6-24.9,17.4-44.4,17.4c-12.1,0-22.9-2.4-32.2-7.1s-16.5-11.3-21.6-19.7
	c-5.1-8.4-7.6-17.9-7.6-28.6s2.5-20,7.5-28.5s11.9-15.1,20.6-19.8s18.5-7.1,29.3-7.1s20.1,2.3,28.6,6.8s15.2,11,20.1,19.5
	s7.3,18.3,7.3,29.5C1674.2,280.2,1674,283,1673.6,288.2L1673.6,288.2z M1600.6,253.6c-4.8,4-7.7,9.5-8.8,16.4h53
	c-1.1-6.8-4-12.2-8.8-16.3c-4.8-4.1-10.7-6.1-17.6-6.1S1605.4,249.6,1600.6,253.6L1600.6,253.6z"/>
<path class="st0" d="M1705,331.5c-8.5-2.2-15.3-5-20.4-8.3l10.4-22.4c4.8,3.1,10.6,5.6,17.4,7.5s13.5,2.9,20,2.9
	c13.2,0,19.8-3.3,19.8-9.8c0-3.1-1.8-5.3-5.4-6.6c-3.6-1.3-9.1-2.5-16.6-3.4c-8.8-1.3-16.1-2.9-21.8-4.6c-5.7-1.7-10.7-4.8-14.9-9.2
	c-4.2-4.4-6.3-10.7-6.3-18.8c0-6.8,2-12.8,5.9-18.1s9.7-9.4,17.2-12.3c7.5-2.9,16.4-4.4,26.7-4.4c7.6,0,15.2,0.8,22.7,2.5
	c7.5,1.7,13.8,4,18.7,6.9l-10.4,22.2c-9.5-5.3-19.8-8-31-8c-6.7,0-11.7,0.9-15,2.8c-3.3,1.9-5,4.3-5,7.2c0,3.3,1.8,5.7,5.4,7
	s9.3,2.6,17.2,3.8c8.8,1.5,16,3,21.6,4.7s10.5,4.7,14.6,9.1s6.2,10.5,6.2,18.4c0,6.7-2,12.6-6,17.8c-4,5.2-9.8,9.2-17.5,12.1
	s-16.8,4.3-27.3,4.3C1722.3,334.8,1713.5,333.7,1705,331.5L1705,331.5z"/>
<path class="st1" d="M179.9,439.6c0,3.6-49.3,36.2-65.6,43c-22.6,9-43.9,4.5-49.8-11.8c-2.3-5.9-4.5-5-22.6,7.2
	c-20.8,14-24.4,14.9-33.9,9.5c-11.8-7.2-4.5-32.6,14.9-48.9c11.8-10,29-11.8,37.6-3.6c5,4.5,7.2,2.3,24.9-23.1
	c17.7-26.2,68.3-84.6,73.3-84.6c1.4,0,4.5,1.4,7.2,3.2c3.2,2.3-1.4,9.5-20.4,31.2c-45.3,52.5-72,96.9-67,110.4
	c4.5,12.2,26.2,5.9,67.9-19.9C172.2,436.4,179.9,434.1,179.9,439.6L179.9,439.6z M52.3,440.5c-5-4.1-7.2-3.2-19,9
	c-14,15.4-20.8,30.3-10.9,24.9c3.2-1.8,12.2-9,20.8-16.3C56.4,446.3,57.3,444.5,52.3,440.5L52.3,440.5z"/>
<path class="st1" d="M269.1,451.8c0,10.4-52.5,32.6-76.9,32.6c-9.1,0-17.2-1.8-20.4-5.4c-10.4-10.4-5.9-31.7,11.3-49.8
	c14-14.9,31.2-10.4,31.2,9c0,9-15.8,24-26.2,24.4c-13.6,0-15.4,11.3-2.3,11.3c12.2,0,56.1-14.5,66.5-21.7
	C261.8,445.4,269.1,445,269.1,451.8L269.1,451.8z M195.3,445.9c2.7-4.1,5.4-8.6,5.4-10.4c0-4.1-10,4.1-14,11.8
	C181.7,456.3,188.5,455.4,195.3,445.9z"/>
<path class="st1" d="M452.8,469c-18.6,9-19,9-27.6,3.6c-5-3.2-10-9-10.9-12.2c-0.9-4.1-2.3-6.3-3.2-6.3s-9.5,5-19,11.3
	c-21.7,14.9-34.4,15.4-42.1,3.6c-7.2-10.9-2.7-23.1,13.6-38.9c16.3-15.8,30.8-17.2,48.9-3.6c12.7,9.5,14.5,12.2,14.5,24
	c0,7.7,0.9,13.6,1.8,13.6s10.9-4.5,21.7-10c12.2-6.8,21.3-9,24.4-7.2C481.8,451.3,475.4,457.6,452.8,469L452.8,469z M396.7,429.6
	c-4.5,0-24,17.2-28.1,24.4c-5,9-0.9,8.1,17.6-5.9C401.2,437.3,405.3,429.6,396.7,429.6L396.7,429.6z"/>
<path class="st1" d="M543.8,464.5c-17.7,12.2-38.5,25.8-46.2,29.9c-17.2,8.1-36.2,9.5-42.1,1.8c-7.7-8.6-1.8-31.7,18.1-71.5
	c19-38,51.1-82.8,63.8-88.2c4.5-2.3,8.6-1.8,10.9,0.9c2.7,2.3,0.5,6.8-8.6,16.7c-31.2,34.9-78.3,122.6-73.3,137.1
	c0.9,4.1,39.8-15.4,72.4-36.2c13.1-9,26.2-14.9,30.3-14.5C574.5,441.4,569.1,446.8,543.8,464.5L543.8,464.5z"/>
<path class="st1" d="M761,356.3c0,4.5-2.7,5-14.9,2.7c-7.7-1.4-34.4-2.3-58.8-2.3h-44.3l-36.2,54.3
	c-38.9,58.4-75.1,122.2-90.5,159.7c-9.5,22.2-11.3,24.9-15.8,20.4c-4.1-4.1-2.3-11.8,9.5-42.1c16.3-40.3,40.7-84.2,81-144.4
	l33.5-50.2l-19.9,2.3c-33.9,3.6-85.1,14.9-110,24c-24.9,9-29.4,9-26.2-0.5c5-12.2,73.3-32.6,133.5-39.4l36.2-4.1l12.7-16.7
	c6.8-9.5,14.5-16.3,16.7-16.3c8.6,0,8.2,6.8-0.5,19.5l-8.6,12.7l12.7,0.9c24,1.4,74.7,8.6,81.9,11.3C757.4,350,761,353.6,761,356.3
	L761,356.3z"/>
<path class="st1" d="M690.4,469c-18.6,9-19,9-27.6,3.6c-5-3.2-10-9-10.9-12.2c-0.9-4.1-2.3-6.3-3.2-6.3s-9.5,5-19,11.3
	c-21.7,14.9-34.4,15.4-42.1,3.6c-7.2-10.9-2.7-23.1,13.6-38.9c16.3-15.8,30.8-17.2,48.9-3.6c12.7,9.5,14.5,12.2,14.5,24
	c0,7.7,0.9,13.6,1.8,13.6s10.9-4.5,21.7-10c12.2-6.8,21.3-9,24.4-7.2C719.4,451.3,713,457.6,690.4,469L690.4,469z M634.3,429.6
	c-4.5,0-24,17.2-28.1,24.4c-5,9-0.9,8.1,17.7-5.9C638.8,437.3,642.9,429.6,634.3,429.6L634.3,429.6z"/>
<path class="st1" d="M909.4,446.4c0,1.8-15.8,12.7-35.8,24.4c-43,25.3-64.7,30.3-74.2,16.7c-7.7-11.3-7.2-18.6,2.7-35.8
	c9.5-16.3,17.2-22.2,30.3-22.2c10,0,19.9,10.9,17.2,18.5c-2.7,7.2-8.2,7.2-13.1,0c-3.6-5-5-4.1-13.1,5.4
	c-9.5,11.3-15.4,26.2-11.3,29.9c1.4,1.4,21.3-7.2,44.3-18.5C897.2,444.1,909.4,440,909.4,446.4L909.4,446.4z"/>
<path class="st1" d="M994,469c-18.6,9-19,9-27.6,3.6c-5-3.2-10-9-10.9-12.2c-0.9-4.1-2.3-6.3-3.2-6.3s-9.5,5-19,11.3
	c-21.7,14.9-34.4,15.4-42.1,3.6c-7.2-10.9-2.7-23.1,13.6-38.9c16.3-15.8,30.8-17.2,48.9-3.6c12.7,9.5,14.5,12.2,14.5,24
	c0,7.7,0.9,13.6,1.8,13.6s10.9-4.5,21.7-10c12.2-6.8,21.3-9,24.4-7.2C1023,451.3,1016.7,457.6,994,469L994,469z M937.9,429.6
	c-4.5,0-24,17.2-28.1,24.4c-5,9-0.9,8.1,17.7-5.9C942.5,437.3,946.5,429.6,937.9,429.6L937.9,429.6z"/>
<path class="st1" d="M1085,464.5c-17.7,12.2-38.5,25.8-46.2,29.9c-17.2,8.1-36.2,9.5-42.1,1.8c-7.7-8.6-1.8-31.7,18.1-71.5
	c19-38,51.1-82.8,63.8-88.2c4.5-2.3,8.6-1.8,10.9,0.9c2.7,2.3,0.4,6.8-8.6,16.7c-31.2,34.9-78.3,122.6-73.3,137.1
	c0.9,4.1,39.8-15.4,72.4-36.2c13.1-9,26.2-14.9,30.3-14.5C1115.8,441.4,1110.3,446.8,1085,464.5L1085,464.5z"/>
<path class="st1" d="M1208.6,458.1c-33.5,20.8-62,33.5-79.7,35.8c-12.7,1.4-15.8,0-24-7.7c-7.2-7.2-8.6-11.3-7.2-20.4
	c2.3-13.6,17.7-38.9,24.9-41.6c8.6-3.2,13.6,4.5,7.2,11.8c-8.2,9-20.4,38-18.1,43.4c3.6,9.5,19.5,5,67.4-19
	C1232.5,434.1,1249.7,432.8,1208.6,458.1L1208.6,458.1z M1136.6,410.6c-1.4-1.4,0.4-6.8,3.2-11.8c5-8.1,6.8-9,12.7-6.3
	c6.3,3.6,6.3,4.1-1.4,12.2C1142.9,412.9,1140.2,414.2,1136.6,410.6L1136.6,410.6z"/>
<path class="st1" d="M1387.3,439.6c0,3.6-49.3,36.2-65.6,43c-22.6,9-43.9,4.5-49.8-11.8c-2.3-5.9-4.5-5-22.6,7.2
	c-20.8,14-24.4,14.9-33.9,9.5c-11.8-7.2-4.5-32.6,14.9-48.9c11.8-10,29-11.8,37.6-3.6c5,4.5,7.2,2.3,24.9-23.1
	c17.7-26.2,68.3-84.6,73.3-84.6c1.4,0,4.5,1.4,7.2,3.2c3.2,2.3-1.4,9.5-20.4,31.2c-45.3,52.5-72,96.9-67,110.4
	c4.5,12.2,26.2,5.9,67.9-19.9C1379.6,436.4,1387.3,434.1,1387.3,439.6L1387.3,439.6z M1259.7,440.5c-5-4.1-7.2-3.2-19,9
	c-14,15.4-20.8,30.3-10.9,24.9c3.2-1.8,12.2-9,20.8-16.3C1263.8,446.3,1264.7,444.5,1259.7,440.5L1259.7,440.5z"/>
<path class="st1" d="M1472.4,469c-18.6,9-19,9-27.6,3.6c-5-3.2-10-9-10.9-12.2c-0.9-4.1-2.3-6.3-3.2-6.3s-9.5,5-19,11.3
	c-21.7,14.9-34.4,15.4-42.1,3.6c-7.2-10.9-2.7-23.1,13.6-38.9c16.3-15.8,30.8-17.2,48.9-3.6c12.7,9.5,14.5,12.2,14.5,24
	c0,7.7,0.9,13.6,1.8,13.6s10.9-4.5,21.7-10c12.2-6.8,21.3-9,24.4-7.2C1501.4,451.3,1495,457.6,1472.4,469L1472.4,469z M1416.3,429.6
	c-4.5,0-24,17.2-28.1,24.4c-5,9-0.9,8.1,17.7-5.9C1420.8,437.3,1424.9,429.6,1416.3,429.6L1416.3,429.6z"/>
<path class="st1" d="M1654.8,439.6c0,3.6-49.3,36.2-65.6,43c-22.6,9-43.9,4.5-49.8-11.8c-2.3-5.9-4.5-5-22.6,7.2
	c-20.8,14-24.4,14.9-33.9,9.5c-11.8-7.2-4.5-32.6,14.9-48.9c11.8-10,29-11.8,37.6-3.6c5,4.5,7.2,2.3,24.9-23.1
	c17.7-26.2,68.3-84.6,73.3-84.6c1.4,0,4.5,1.4,7.2,3.2c3.2,2.3-1.4,9.5-20.4,31.2c-45.3,52.5-72,96.9-67,110.4
	c4.5,12.2,26.2,5.9,67.9-19.9C1647.1,436.4,1654.8,434.1,1654.8,439.6L1654.8,439.6z M1527.2,440.5c-5-4.1-7.2-3.2-19,9
	c-14,15.4-20.8,30.3-10.9,24.9c3.2-1.8,12.2-9,20.8-16.3C1531.2,446.3,1532.1,444.5,1527.2,440.5L1527.2,440.5z"/>
<path class="st1" d="M59.1,832.7h1268.1c32.6,0,59.1,26.4,59.1,59.1v37.2c0,32.6-26.4,59.1-59.1,59.1H59.1C26.4,988,0,961.6,0,928.9
	v-37.2C0,859.2,26.4,832.7,59.1,832.7z"/>
<path class="st0" d="M59.1,832.7h626.8c32.6,0,59.1,26.4,59.1,59.1v37.2c0,32.6-26.4,59.1-59.1,59.1H59.1C26.4,988,0,961.6,0,928.9
	v-37.2C0,859.2,26.4,832.7,59.1,832.7z"/>
<g>
	<path class="st2" d="M83,899.7v-0.1c-0.1-0.6,0-1.2,0-1.8c0-0.1,0-0.2,0-0.2c0.1-0.2,0-0.4,0.1-0.5c0-0.4,0.1-0.8,0.1-1.2
		c0.1-0.7,0.3-1.5,0.5-2.2c0.2-0.8,0.5-1.5,0.8-2.3c0.6-1.2,1.2-2.3,2.1-3.3c0.4-0.5,0.8-1,1.3-1.4c1-1,2.2-1.7,3.5-2.2
		c1.2-0.5,2.5-0.8,3.8-1.1c0.3,0,0.6-0.1,0.9-0.1c0.2-0.1,0.5,0,0.8,0h0.9c0.3,0.1,0.6,0,0.8,0c0.2,0.1,0.4,0.1,0.6,0.1
		c1.1,0.2,1.9,0.8,2.5,1.7c0.7,1.1,1,2.3,1.3,3.5c0.5,2.1,1,4.2,1.4,6.2c0.3,1.2,0.5,2.4,0.7,3.7c0.1,0.4,0.1,0.7,0.2,1.1
		c0.1,0.3,0,0.5,0,0.8c-0.3,1.1-1.2,1.7-2.1,2.3c-0.8,0.4-1.6,0.7-2.4,1c-0.6,0.3-1.2,0.5-1.8,0.9c-0.3,0.2-0.6,0.4-0.6,0.8
		c0,0.2,0,0.5,0,0.7c0.1,0.9,0.3,1.7,0.7,2.6c0.5,1.2,1.1,2.5,1.7,3.7c1,2,2.2,3.8,3.6,5.6c0.7,0.9,1.5,1.8,2.3,2.7
		c0,0,0.1,0.1,0.1,0.1c0.1,0,0.2,0.1,0.2,0.2c0.5,0.5,1,1,1.5,1.5c0.3,0.2,0.6,0.5,0.8,0.7c1,1,2.2,1.8,3.4,2.7
		c0.9,0.6,1.7,1.3,2.6,1.9c0.7,0.5,1.4,0.8,2.2,1c0.5,0.1,1-0.1,1.4-0.5c0.6-0.5,1-1.2,1.4-1.9c0.7-1.2,1.5-2.3,2.7-3.1
		c0.6-0.4,1.3-0.4,2-0.2c1.2,0.4,2.4,0.7,3.6,1.2c1.4,0.7,2.9,1.2,4.3,1.8c1.4,0.6,2.7,1.2,4.1,1.9c0.8,0.4,1.6,0.8,2.2,1.4
		c0.5,0.4,0.8,0.9,0.9,1.6c0,0,0,0.1,0.1,0.1c0,0.4,0,0.9,0,1.3c-0.1,0.5-0.1,1.1-0.2,1.6c-0.3,1.4-0.8,2.7-1.4,3.9
		c-0.6,1.2-1.4,2.2-2.3,3.2c-1,1.1-2.2,2-3.5,2.8c-0.7,0.4-1.5,0.7-2.3,1c-1,0.3-1.9,0.5-2.9,0.5c-0.1,0-0.2,0-0.2,0
		c-0.3,0-0.6,0-0.9,0c-0.1,0-0.2,0-0.3,0h-1c-0.3-0.1-0.6,0-0.8,0c-0.4,0-0.9-0.1-1.3-0.1c-0.5-0.1-1.1-0.2-1.6-0.3
		c-0.6-0.1-1.1-0.3-1.7-0.4c-0.7-0.2-1.3-0.4-1.9-0.7c-0.8-0.3-1.5-0.7-2.3-1.1c-0.8-0.5-1.6-0.9-2.4-1.5c-1.1-0.7-2.2-1.4-3.2-2.2
		c-0.9-0.6-1.7-1.3-2.6-2c-0.8-0.7-1.6-1.3-2.4-2c-0.7-0.6-1.2-1.2-1.9-1.8c-0.1-0.1-0.2-0.2-0.3-0.3c-1-1-1.9-2-2.8-3
		c-1.1-1.3-2.2-2.5-3.3-3.8c-1.3-1.5-2.6-3.1-3.7-4.7c-0.9-1.2-1.8-2.5-2.6-3.7c-0.7-1.1-1.4-2.2-2-3.3c-0.5-0.8-0.9-1.6-1.3-2.4
		c-0.4-0.9-0.9-1.8-1.3-2.7c-0.5-1.1-1-2.3-1.4-3.5c-0.3-0.9-0.6-1.8-0.8-2.8c-0.1-0.6-0.2-1.2-0.3-1.7c-0.1-0.5-0.2-1.1-0.2-1.6
		C83,900,83.1,899.8,83,899.7L83,899.7z"/>
	<path class="st2" d="M119.4,876.2c0.5,0.1,1,0.2,1.5,0.4c2.1,0.5,4.1,1.2,6.1,2.1c2.1,0.9,4.2,2.1,6.1,3.4c1.3,0.9,2.5,1.9,3.7,2.9
		c0.9,0.8,1.7,1.6,2.5,2.5c1,1.1,1.9,2.3,2.8,3.5c1.1,1.6,2.1,3.2,2.9,5c1.2,2.5,2.1,5,2.7,7.7c0.4,1.5,0.6,3,0.8,4.5
		c0.1,0.6,0.1,1.2,0.2,1.8c0.1,0.2,0,0.4,0,0.7c0,0.1,0,0.2,0,0.3c0.1,0.2,0,0.5,0,0.7c0,0.7,0,1.4,0,2c0,0.1,0,0.2,0,0.2
		c-0.1,0.5-0.3,0.9-0.7,1.2c-0.9,0.5-1.9,0.3-2.3-0.7c-0.1-0.2-0.2-0.5-0.1-0.8c0.1-0.2,0.1-0.4,0-0.6c0-0.3,0-0.7,0-1
		c0-0.2,0-0.4,0-0.7c-0.1-0.2,0-0.5,0-0.8c0-0.1,0-0.2,0-0.2c-0.1-0.2,0-0.4,0-0.5c-0.1-0.4-0.1-0.9-0.1-1.3
		c-0.1-0.4-0.1-0.9-0.2-1.3c-0.1-0.6-0.2-1.2-0.4-1.8c-0.1-0.7-0.3-1.4-0.5-2.1c-0.1-0.5-0.3-1-0.4-1.5c-0.2-0.7-0.5-1.5-0.8-2.2
		c-0.2-0.5-0.4-1-0.6-1.5c-0.3-0.7-0.6-1.3-0.9-1.9c-0.8-1.5-1.8-3-2.8-4.4c-0.7-0.9-1.4-1.7-2.1-2.5c-1.1-1.2-2.2-2.2-3.5-3.2
		c-0.9-0.7-1.9-1.4-2.8-2c-3.4-2.2-7.1-3.7-11-4.6c-0.2,0-0.5-0.1-0.7-0.1c-0.7-0.2-1-0.6-1.2-1.2c-0.2-0.8,0.4-1.7,1.1-1.8
		c0.1,0,0.1,0,0.2-0.1C119,876.2,119.2,876.2,119.4,876.2L119.4,876.2z"/>
	<path class="st2" d="M139.6,910.5v0.2c0.1,0.4,0,0.8,0,1.1c-0.1,0.2-0.1,0.4-0.2,0.6c-0.2,0.4-0.6,0.7-1.1,0.8
		c-0.2,0.1-0.4,0-0.6,0c-0.8-0.1-1.2-0.8-1.3-1.4c-0.1-0.4,0-0.8,0-1.2c0-0.2,0-0.3,0-0.5c-0.1-0.3-0.1-0.7-0.1-1
		c-0.1-0.4-0.1-0.7-0.1-1.1c0-0.3-0.1-0.7-0.2-1c-0.1-0.7-0.3-1.3-0.5-2c-0.2-0.8-0.5-1.6-0.8-2.3c-0.3-0.8-0.6-1.6-1-2.3
		c-0.8-1.6-1.8-3.1-3-4.4c-0.9-1-1.8-1.9-2.8-2.8c-1-0.8-2.1-1.6-3.3-2.3c-0.7-0.4-1.5-0.8-2.3-1.1c-1.1-0.5-2.2-0.8-3.4-1.2
		c-0.3-0.1-0.6-0.1-0.9-0.2c-0.5-0.2-0.8-0.6-0.9-1.1c-0.2-1.2,0.8-2.1,1.9-1.9c3.9,0.9,7.4,2.6,10.6,5.1c1,0.8,2,1.7,2.9,2.7
		c1.4,1.5,2.7,3.3,3.7,5.1c1.2,2.1,2,4.3,2.6,6.6c0.3,1.1,0.5,2.2,0.6,3.4c0,0.5,0.1,0.9,0.2,1.4
		C139.6,909.9,139.6,910.2,139.6,910.5L139.6,910.5z"/>
	<path class="st2" d="M130.2,910.4c-0.2,0.7-0.6,1.2-1.3,1.3c-0.2,0-0.4,0-0.5,0c-0.7-0.1-1.2-0.6-1.3-1.3c0-0.1,0-0.2,0-0.3
		c0-0.6,0-1.3-0.1-1.9c-0.1-1.1-0.4-2.2-0.8-3.2c-0.5-1.2-1.2-2.3-2-3.2c-0.8-0.9-1.7-1.6-2.7-2.3c-0.9-0.6-1.9-1-3-1.3
		c-0.4-0.1-0.9-0.1-1.3-0.4c-0.4-0.3-0.7-0.7-0.7-1.2c0-1,0.3-1.3,1.2-1.7c0.2,0,0.4,0,0.7,0c0.7,0.2,1.4,0.4,2.1,0.6
		c1.7,0.6,3.2,1.5,4.6,2.7c1.7,1.4,2.9,3.1,3.9,5.1c0.6,1.3,1,2.6,1.2,4c0.1,0.5,0.1,1.1,0.2,1.6C130.2,909.5,130.2,910,130.2,910.4
		L130.2,910.4z"/>
	<path class="st2" d="M148.8,913.9v-3c0.1,0,0.1,0.1,0.1,0.2c0,0.9,0,1.8,0,2.6C148.9,913.7,148.9,913.8,148.8,913.9L148.8,913.9z"
		/>
	<path class="st2" d="M83,897.8v1.8c-0.1,0-0.1-0.1-0.1-0.2c0-0.5,0-0.9,0-1.4C82.9,897.9,82.9,897.8,83,897.8z"/>
	<path class="st2" d="M136.4,910.2c0.1,0.6,0.1,1.1,0.1,1.7c-0.1-0.1-0.1-0.2-0.1-0.3C136.4,911.1,136.4,910.6,136.4,910.2z"/>
	<path class="st2" d="M130.2,910.4V909c0.1,0.2,0.1,0.3,0,0.5C130.2,909.8,130.3,910.1,130.2,910.4L130.2,910.4z"/>
	<path class="st2" d="M140.2,932.7v-1.3C140.3,931.8,140.3,932.2,140.2,932.7z"/>
	<path class="st2" d="M139.6,911.8v-1.1C139.7,911,139.7,911.4,139.6,911.8z"/>
	<path class="st2" d="M126.2,945.7c0.4,0,0.8,0,1.2,0C126.9,945.7,126.6,945.6,126.2,945.7z"/>
	<path class="st2" d="M145.6,911.9c0.1,0.3,0.1,0.7,0,1C145.6,912.6,145.6,912.2,145.6,911.9z"/>
	<path class="st2" d="M98.7,883.2c-0.3,0-0.6,0-0.8,0C98.1,883.2,98.4,883.1,98.7,883.2z"/>
	<path class="st2" d="M105.4,900.4c0-0.3,0-0.5,0-0.8C105.5,899.9,105.5,900.1,105.4,900.4z"/>
	<path class="st2" d="M124.3,945.6c0.3,0,0.6,0,0.8,0C124.9,945.6,124.6,945.7,124.3,945.6z"/>
	<path class="st2" d="M139.6,910.5c-0.1-0.3-0.1-0.5,0-0.8C139.7,909.9,139.6,910.2,139.6,910.5z"/>
	<path class="st2" d="M96.9,883.1c-0.2,0-0.5,0-0.8,0C96.4,883.1,96.7,883.2,96.9,883.1z"/>
	<path class="st2" d="M145.6,910.5c0.1,0.2,0.1,0.5,0,0.8C145.5,911,145.6,910.7,145.6,910.5z"/>
	<path class="st2" d="M119.4,876.2h-0.7C119,876.1,119.2,876.1,119.4,876.2z"/>
	<path class="st2" d="M118.2,895h-0.7C117.8,894.9,118,894.9,118.2,895z"/>
	<path class="st2" d="M98.5,906.2c-0.1-0.2-0.1-0.5,0-0.7V906.2z"/>
	<path class="st2" d="M148.8,910.6c-0.1-0.2,0-0.4,0-0.7C148.9,910.1,148.8,910.3,148.8,910.6z"/>
	<path class="st2" d="M137.7,913.2c0.2,0,0.4,0,0.6,0C138.1,913.3,137.9,913.3,137.7,913.2z"/>
	<path class="st2" d="M102.9,933.4c0.1,0,0.2,0.2,0.3,0.3C103,933.6,102.9,933.5,102.9,933.4z"/>
	<path class="st2" d="M83.1,897c0,0.2,0,0.4-0.1,0.5C83,897.3,82.9,897.1,83.1,897z"/>
	<path class="st2" d="M83,899.7c0.1,0.2,0.1,0.4,0,0.5C83,900,83,899.8,83,899.7z"/>
	<path class="st2" d="M145.5,909.7c0.1,0.2,0.1,0.4,0,0.5C145.5,910.1,145.5,909.9,145.5,909.7z"/>
	<path class="st2" d="M128.4,911.8h0.5C128.7,911.9,128.5,911.9,128.4,911.8z"/>
	<path class="st2" d="M107.1,921l-0.2-0.2C107,920.9,107.2,920.8,107.1,921z"/>
</g>
<g>
	<path class="st2" d="M219.3,912.8c1.8,1.9,2.6,4.3,2.6,7.1c0,2.2-0.6,4.2-1.7,6c-1.1,1.8-2.9,3.3-5.2,4.4s-5.2,1.7-8.6,1.7
		c-2.6,0-5.2-0.3-7.8-1s-4.7-1.7-6.5-3l3.4-6.7c1.4,1.1,3.1,1.9,5,2.5c1.9,0.6,3.8,0.9,5.8,0.9c2.2,0,3.9-0.4,5.1-1.3s1.9-2,1.9-3.6
		c0-3.1-2.3-4.6-7-4.6h-4v-5.7l7.7-8.8h-16v-7h26.3v5.6l-8.5,9.7C215.1,909.7,217.6,910.9,219.3,912.8L219.3,912.8z"/>
	<path class="st2" d="M240.5,893.9v37.6h-8.7v-30.6h-7.5v-7H240.5L240.5,893.9z"/>
	<path class="st2" d="M272.1,912.8c1.8,1.9,2.6,4.3,2.6,7.1c0,2.2-0.6,4.2-1.7,6c-1.1,1.8-2.9,3.3-5.2,4.4s-5.2,1.7-8.6,1.7
		c-2.6,0-5.2-0.3-7.8-1s-4.7-1.7-6.5-3l3.4-6.7c1.4,1.1,3.1,1.9,5,2.5c1.9,0.6,3.8,0.9,5.8,0.9c2.2,0,3.9-0.4,5.1-1.3s1.9-2,1.9-3.6
		c0-3.1-2.3-4.6-7-4.6h-4v-5.7l7.7-8.8h-16v-7H273v5.6l-8.5,9.7C267.9,909.7,270.4,910.9,272.1,912.8L272.1,912.8z"/>
	<path class="st2" d="M303.6,912.8c1.8,1.9,2.6,4.3,2.6,7.1c0,2.2-0.6,4.2-1.7,6c-1.1,1.8-2.9,3.3-5.2,4.4s-5.2,1.7-8.6,1.7
		c-2.6,0-5.2-0.3-7.8-1s-4.7-1.7-6.5-3l3.4-6.7c1.4,1.1,3.1,1.9,5,2.5c1.9,0.6,3.8,0.9,5.8,0.9c2.2,0,3.9-0.4,5.1-1.3s1.9-2,1.9-3.6
		c0-3.1-2.3-4.6-7-4.6h-4v-5.7l7.7-8.8h-16v-7h26.3v5.6l-8.5,9.7C299.4,909.7,301.9,910.9,303.6,912.8L303.6,912.8z"/>
	<path class="st2" d="M318.1,929.8c-2.4-1.5-4.3-3.8-5.7-6.7c-1.4-2.9-2.1-6.4-2.1-10.4s0.7-7.5,2.1-10.4s3.3-5.1,5.7-6.7
		c2.4-1.5,5.2-2.3,8.3-2.3s5.9,0.8,8.3,2.3s4.3,3.8,5.7,6.7c1.4,2.9,2.1,6.4,2.1,10.4s-0.7,7.5-2.1,10.4s-3.3,5.1-5.7,6.7
		c-2.4,1.5-5.2,2.3-8.3,2.3S320.5,931.3,318.1,929.8z M331.8,921.8c1.3-2,2-5,2-9.1s-0.6-7.2-2-9.1c-1.3-2-3.1-3-5.4-3s-4,1-5.3,3
		c-1.3,2-2,5-2,9.1s0.6,7.2,2,9.1c1.3,2,3.1,3,5.3,3S330.5,923.7,331.8,921.8z"/>
	<path class="st2" d="M381.1,923.5H375v7.9h-8.5v-7.9h-20.2v-5.8l17.7-23.8h9.1l-16.4,22.6h10.1v-7h8.2v7h6.1L381.1,923.5
		L381.1,923.5z"/>
	<path class="st2" d="M408.4,912.8c1.8,1.9,2.6,4.3,2.6,7.1c0,2.2-0.6,4.2-1.7,6c-1.1,1.8-2.9,3.3-5.2,4.4s-5.2,1.7-8.6,1.7
		c-2.6,0-5.2-0.3-7.8-1s-4.7-1.7-6.5-3l3.4-6.7c1.4,1.1,3.1,1.9,5,2.5c1.9,0.6,3.8,0.9,5.8,0.9c2.2,0,3.9-0.4,5.1-1.3s1.9-2,1.9-3.6
		c0-3.1-2.3-4.6-7-4.6h-4v-5.7l7.7-8.8h-16v-7h26.3v5.6l-8.5,9.7C404.2,909.7,406.7,910.9,408.4,912.8L408.4,912.8z"/>
	<path class="st2" d="M444,893.9v5.6l-14,31.9h-9.5l13.5-30.5h-12.5v6.1h-7.7v-13.2L444,893.9L444,893.9z"/>
	<path class="st2" d="M476,924.3v7.1h-28.4v-5.6l14.5-13.7c1.5-1.5,2.6-2.7,3.1-3.8c0.5-1,0.8-2.1,0.8-3.1c0-1.5-0.5-2.7-1.5-3.5
		s-2.5-1.2-4.5-1.2c-1.6,0-3.1,0.3-4.5,0.9s-2.4,1.6-3.3,2.8l-6.3-4.1c1.5-2.2,3.5-3.9,6.1-5.1c2.6-1.2,5.5-1.8,8.9-1.8
		c2.8,0,5.2,0.5,7.3,1.4c2.1,0.9,3.7,2.2,4.9,3.9s1.7,3.6,1.7,5.9c0,2-0.4,4-1.3,5.7c-0.9,1.8-2.5,3.8-5,6.1l-8.6,8.2L476,924.3
		L476,924.3z"/>
	<path class="st2" d="M487.2,929.8c-2.4-1.5-4.3-3.8-5.7-6.7c-1.4-2.9-2.1-6.4-2.1-10.4s0.7-7.5,2.1-10.4s3.3-5.1,5.7-6.7
		c2.4-1.5,5.2-2.3,8.3-2.3s5.9,0.8,8.3,2.3s4.3,3.8,5.7,6.7c1.4,2.9,2.1,6.4,2.1,10.4s-0.7,7.5-2.1,10.4s-3.3,5.1-5.7,6.7
		c-2.4,1.5-5.2,2.3-8.3,2.3S489.6,931.3,487.2,929.8z M500.9,921.8c1.3-2,2-5,2-9.1s-0.6-7.2-2-9.1c-1.3-2-3.1-3-5.4-3s-4,1-5.3,3
		c-1.3,2-2,5-2,9.1s0.6,7.2,2,9.1c1.3,2,3.1,3,5.3,3S499.6,923.7,500.9,921.8z"/>
</g>
<path class="st2" d="M832.2,872.4c-8.5,0.3-16.8,5-22.2,14.2c-3.8,6.6-4.9,13.7-2.3,21.1c1.2,3.6,2.7,7,4.5,10.4
	c6.2,11.9,13.7,22.9,21.7,33.7c0.5,0.7,0.8,0.7,1.3,0c3.2-4.3,6.3-8.7,9.3-13.1c5.6-8.3,10.9-16.8,14.9-26c1.7-3.8,3.2-7.7,3.3-12
	C862.8,885.2,850,872.4,832.2,872.4z M834.4,914.2c-7.5,0-13.6-6.2-13.5-13.7c0-7.5,6.1-13.5,13.6-13.5c7.6,0,13.7,6.1,13.6,13.7
	C848,908.1,841.8,914.2,834.4,914.2L834.4,914.2z"/>
<g>
	<path class="st2" d="M910.9,903.6c1.3-2.3,3.2-4.2,5.5-5.5c2.3-1.3,4.9-2,7.8-2c3.4,0,6.3,0.9,8.8,2.6c2.5,1.7,4.3,4.1,5.3,7.2
		h-6.9c-0.7-1.4-1.7-2.5-2.9-3.2c-1.3-0.7-2.7-1.1-4.3-1.1c-1.8,0-3.3,0.4-4.7,1.2c-1.4,0.8-2.4,2-3.2,3.5s-1.1,3.3-1.1,5.3
		c0,2,0.4,3.7,1.1,5.2c0.8,1.5,1.8,2.7,3.2,3.5c1.4,0.8,2.9,1.2,4.7,1.2c1.6,0,3.1-0.4,4.3-1.1c1.2-0.7,2.2-1.8,2.9-3.3h6.9
		c-1,3.1-2.8,5.5-5.3,7.2c-2.5,1.7-5.5,2.6-8.9,2.6c-2.9,0-5.5-0.7-7.8-2c-2.3-1.3-4.1-3.1-5.5-5.5c-1.3-2.3-2-5-2-7.9
		C908.9,908.6,909.6,906,910.9,903.6z"/>
	<path class="st2" d="M952.6,903.5c1.3-0.7,2.7-1.1,4.3-1.1v6.3h-1.6c-1.9,0-3.3,0.4-4.3,1.3c-1,0.9-1.4,2.4-1.4,4.7v11.9h-6v-23.9
		h6v3.7C950.3,905.2,951.3,904.2,952.6,903.5z"/>
	<path class="st2" d="M960.8,908.2c1-1.9,2.3-3.3,3.9-4.3c1.7-1,3.5-1.5,5.5-1.5c1.8,0,3.3,0.4,4.7,1.1c1.3,0.7,2.4,1.6,3.2,2.7
		v-3.4h6.1v23.9h-6.1v-3.5c-0.8,1.1-1.8,2-3.2,2.8c-1.4,0.7-2.9,1.1-4.7,1.1c-2,0-3.8-0.5-5.5-1.6c-1.7-1-3-2.5-3.9-4.4
		c-1-1.9-1.4-4-1.4-6.5C959.4,912.2,959.8,910.1,960.8,908.2z M977.3,910.9c-0.6-1-1.4-1.9-2.3-2.4c-1-0.6-2-0.8-3.1-0.8
		c-1.1,0-2.2,0.3-3.1,0.8c-0.9,0.5-1.7,1.3-2.3,2.4c-0.6,1-0.9,2.3-0.9,3.7c0,1.4,0.3,2.7,0.9,3.8c0.6,1.1,1.4,1.9,2.3,2.5
		c1,0.6,2,0.9,3.1,0.9c1.1,0,2.2-0.3,3.1-0.8c1-0.6,1.8-1.4,2.3-2.4c0.6-1,0.9-2.3,0.9-3.8C978.2,913.3,977.9,912,977.3,910.9z"/>
	<path class="st2" d="M990.1,926c-0.7-0.7-1.1-1.5-1.1-2.5c0-1,0.4-1.8,1.1-2.5c0.7-0.7,1.6-1,2.7-1c1.1,0,1.9,0.3,2.6,1
		c0.7,0.7,1,1.5,1,2.5c0,1-0.3,1.9-1,2.5c-0.7,0.7-1.6,1-2.6,1C991.7,927,990.8,926.6,990.1,926z"/>
	<path class="st2" d="M1022.2,903.1c0-1.6,0.4-3,1.2-4.2c0.8-1.3,2-2.3,3.6-3.1c1.6-0.8,3.5-1.1,5.8-1.1c2.3,0,4.3,0.4,5.8,1.1
		c1.6,0.8,2.8,1.8,3.6,3.1c0.8,1.3,1.2,2.7,1.2,4.2c0,1.6-0.4,3-1.2,4.2c-0.8,1.2-1.8,2.1-3.1,2.8c1.6,0.7,2.8,1.7,3.7,3
		c0.9,1.3,1.3,2.9,1.3,4.7c0,2-0.5,3.7-1.5,5.1c-1,1.4-2.4,2.6-4.1,3.3c-1.7,0.8-3.7,1.2-5.8,1.2c-2.2,0-4.1-0.4-5.8-1.2
		c-1.7-0.8-3.1-1.9-4.1-3.3c-1-1.5-1.5-3.2-1.5-5.1c0-1.8,0.4-3.4,1.3-4.7c0.9-1.3,2.1-2.3,3.7-3
		C1023.6,908.5,1022.2,906.2,1022.2,903.1z M1028.8,913.9c-1,0.8-1.5,2-1.5,3.6c0,1.4,0.5,2.6,1.5,3.5c1,0.9,2.3,1.4,4,1.4
		c1.7,0,3-0.5,4-1.4c1-0.9,1.5-2.1,1.5-3.5c0-1.5-0.5-2.7-1.5-3.6c-1-0.8-2.3-1.3-4-1.3C1031.1,912.7,1029.8,913.1,1028.8,913.9z
		 M1036.3,900.7c-0.8-0.8-2-1.2-3.5-1.2c-1.4,0-2.6,0.4-3.4,1.2c-0.8,0.8-1.3,1.9-1.3,3.3c0,1.3,0.4,2.3,1.3,3.1
		c0.9,0.8,2,1.2,3.4,1.2c1.4,0,2.5-0.4,3.4-1.2c0.9-0.8,1.3-1.8,1.3-3.1C1037.5,902.5,1037.1,901.4,1036.3,900.7z"/>
	<path class="st2" d="M1049.6,908.2c1-1.9,2.4-3.3,4.2-4.3c1.8-1,3.8-1.5,6.1-1.5c3,0,5.4,0.7,7.4,2.2c1.9,1.5,3.2,3.6,3.9,6.2h-6.5
		c-0.3-1-0.9-1.8-1.7-2.4c-0.8-0.6-1.8-0.9-3-0.9c-1.7,0-3.1,0.6-4.1,1.9c-1,1.2-1.5,3-1.5,5.3c0,2.3,0.5,4,1.5,5.3
		c1,1.2,2.4,1.9,4.1,1.9c2.4,0,4-1.1,4.8-3.3h6.5c-0.7,2.6-2,4.6-3.9,6.2c-2,1.5-4.4,2.3-7.3,2.3c-2.3,0-4.3-0.5-6.1-1.5
		c-1.8-1-3.2-2.5-4.2-4.3c-1-1.9-1.5-4-1.5-6.5C1048.1,912.3,1048.6,910.1,1049.6,908.2z"/>
	<path class="st2" d="M1112.4,907.3l-1.4,6.6h5.5v5.4h-6.6l-1.6,7.3h-5.7l1.6-7.3h-7.8l-1.6,7.3h-5.7l1.6-7.3h-6.5v-5.4h7.7l1.4-6.6
		h-6.5v-5.4h7.6l1.5-7.2h5.7l-1.5,7.2h7.8l1.5-7.2h5.7l-1.5,7.2h5.5v5.4H1112.4z M1106.7,907.3h-7.9l-1.4,6.6h7.8L1106.7,907.3z"/>
	<path class="st2" d="M1122.7,900.8v-5.6h10.4v31.4h-6.2v-25.9H1122.7z"/>
	<path class="st2" d="M1153.9,900.4c-0.7-0.6-1.7-0.9-3-0.9c-2,0-3.4,0.8-4.4,2.4c-0.9,1.6-1.4,4.2-1.4,7.8c0.7-1.1,1.7-2,3-2.7
		c1.3-0.6,2.8-1,4.3-1c1.9,0,3.5,0.4,5,1.2c1.4,0.8,2.6,2,3.4,3.5c0.8,1.5,1.2,3.4,1.2,5.5c0,2-0.4,3.9-1.2,5.5
		c-0.8,1.6-2,2.8-3.6,3.7c-1.6,0.9-3.5,1.3-5.6,1.3c-3,0-5.3-0.7-7.1-2c-1.7-1.3-2.9-3.2-3.6-5.5c-0.7-2.4-1-5.3-1-8.8
		c0-5.3,0.9-9.2,2.7-11.9s4.7-4,8.6-4c3,0,5.4,0.8,7,2.5c1.7,1.6,2.6,3.7,2.9,6.1h-5.6C1155.1,901.9,1154.6,901,1153.9,900.4z
		 M1147.1,912.3c-1,0.9-1.6,2.2-1.6,3.9c0,1.7,0.5,3,1.4,4c1,1,2.3,1.5,4.1,1.5c1.6,0,2.8-0.5,3.7-1.4c0.9-1,1.4-2.2,1.4-3.8
		c0-1.7-0.4-3-1.3-4c-0.9-1-2.2-1.5-3.9-1.5C1149.4,910.9,1148.2,911.4,1147.1,912.3z"/>
	<path class="st2" d="M1165.9,900.8v-5.6h10.4v31.4h-6.2v-25.9H1165.9z"/>
	<path class="st2" d="M1182.9,908.2c1-1.9,2.3-3.3,3.9-4.3c1.7-1,3.5-1.5,5.5-1.5c1.8,0,3.3,0.4,4.7,1.1c1.3,0.7,2.4,1.6,3.2,2.7
		v-3.4h6.1v23.9h-6.1v-3.5c-0.8,1.1-1.8,2-3.2,2.8c-1.4,0.7-2.9,1.1-4.7,1.1c-2,0-3.8-0.5-5.5-1.6c-1.7-1-3-2.5-3.9-4.4
		c-1-1.9-1.4-4-1.4-6.5C1181.4,912.2,1181.9,910.1,1182.9,908.2z M1199.4,910.9c-0.6-1-1.4-1.9-2.3-2.4c-1-0.6-2-0.8-3.1-0.8
		c-1.1,0-2.2,0.3-3.1,0.8c-0.9,0.5-1.7,1.3-2.3,2.4c-0.6,1-0.9,2.3-0.9,3.7c0,1.4,0.3,2.7,0.9,3.8c0.6,1.1,1.4,1.9,2.3,2.5
		c1,0.6,2,0.9,3.1,0.9c1.1,0,2.2-0.3,3.1-0.8c1-0.6,1.8-1.4,2.3-2.4c0.6-1,0.9-2.3,0.9-3.8C1200.2,913.3,1200,912,1199.4,910.9z"/>
	<path class="st2" d="M1230.6,908.7v5.1h-18.3v-5.1H1230.6z"/>
	<path class="st2" d="M1239.4,898.8c1.8-2.8,4.8-4.2,9-4.2c4.2,0,7.2,1.4,9,4.2c1.8,2.8,2.7,6.7,2.7,11.7c0,5-0.9,8.9-2.7,11.8
		c-1.8,2.8-4.8,4.3-9,4.3c-4.2,0-7.2-1.4-9-4.3c-1.8-2.8-2.7-6.8-2.7-11.8C1236.7,905.6,1237.6,901.7,1239.4,898.8z M1253.6,905.2
		c-0.3-1.4-0.8-2.6-1.6-3.6c-0.8-0.9-2-1.4-3.6-1.4c-1.6,0-2.8,0.5-3.6,1.4c-0.8,0.9-1.4,2.1-1.6,3.6c-0.3,1.5-0.4,3.2-0.4,5.4
		c0,2.2,0.1,4,0.4,5.5c0.3,1.5,0.8,2.7,1.6,3.6c0.8,0.9,2.1,1.4,3.7,1.4c1.6,0,2.8-0.5,3.7-1.4c0.8-0.9,1.4-2.1,1.6-3.6
		c0.3-1.5,0.4-3.3,0.4-5.5C1254,908.4,1253.9,906.6,1253.6,905.2z"/>
	<path class="st2" d="M1264.3,920.5v-4.7l14.1-20.2h7v19.7h3.8v5.3h-3.8v6.1h-6v-6.1H1264.3z M1279.8,902.1l-8.8,13.2h8.8V902.1z"/>
</g>
</svg>
